<?xml version="1.0" encoding="utf-8" ?>
<svg baseProfile="full" height="300mm" version="1.1" viewBox="0,0,200,300" width="200mm" xmlns="http://www.w3.org/2000/svg" xmlns:ev="http://www.w3.org/2001/xml-events" xmlns:xlink="http://www.w3.org/1999/xlink"><defs /><rect fill="#222222" height="300" width="200" x="0" y="0" /><text fill="#FFFFFF" style="font-size:12px; font-family:Arial; font-weight:bold;" x="10" y="20">Over 10km Runs</text><text fill="#FFFFFF" style="font-size:4px; font-family:Arial" x="10" y="280">ATHLETE</text><text fill="#FFFFFF" style="font-size:9px; font-family:Arial" x="10" y="290">sh33p.yang</text><text fill="#FFFFFF" style="font-size:4px; font-family:Arial" x="120" y="280">STATISTICS</text><text fill="#FFFFFF" style="font-size:3px; font-family:Arial" x="120" y="285">Number: 9</text><text fill="#FFFFFF" style="font-size:3px; font-family:Arial" x="120" y="290">Weekly: 1.1</text><text fill="#FFFFFF" style="font-size:3px; font-family:Arial" x="141" y="285">Total: 107.4 km</text><text fill="#FFFFFF" style="font-size:3px; font-family:Arial" x="141" y="290">Avg: 11.9 km</text><text fill="#FFFFFF" style="font-size:3px; font-family:Arial" x="167" y="285">Min: 10.1 km</text><text fill="#FFFFFF" style="font-size:3px; font-family:Arial" x="167" y="290">Max: 21.8 km</text><polyline fill="none" points="39.49764193082228,87.0 41.06053370051086,81.162303733523 38.26965554011986,75.03268571774242 53.117127356119454,70.21653073339257 62.49447797751054,60.87604236364132 63.499194115400314,52.70304296701215 58.14070804556832,39.27582648815587 52.44731659721583,33.14594990352634 46.30738464323804,42.778596117917914 39.051101424731314,37.96228469145717 34.69733149372041,39.27582648815587 32.2413587118499,43.362389854562934 22.19419733202085,48.616518041701056 17.952062528114766,57.081443866947666 17.72879227483645,69.63275278400397 21.1894811950624,75.90834775095573 26.2130618840456,80.72447513014777 40.72562832152471,85.10275247780373 38.04638528684154,74.88674197066575 49.32153305737302,72.40569498552941 61.82466721860692,63.503063598356675 63.38755898876116,51.24357170978328 59.703599815722555,41.31911027361639 51.88914096541703,33.14594990352634 47.20046565448865,41.31911027361639 36.26022326387465,37.378487779409625 20.29640018288046,49.34625586908078 16.947346390224993,61.02198817033786 20.40803530951962,74.74079820205225 27.32941314857453,81.45418936188798 40.27908781543374,85.68652133241994 37.934750160202384,74.59485441143624 49.54480330972001,72.55163909721887 62.04793747141957,62.335499463486485 63.38755898876116,53.57872469164431 58.69888367783278,40.881264102237765 51.554235585965216,33.29189978603972 45.86084413761273,42.194802037556656 38.82783117191866,38.10823386604898 35.47877737926319,38.69203034846578 20.40803530951962,48.90841323742643 18.398603033274412,53.43277779093478 16.835711263120174,60.58415068674367 17.952062528114766,68.46519585640635 23.422183722723275,78.53532921697479 31.683183080051094,84.22709855239373 40.502358068712056,85.83246349223191 36.818398895673454,74.15702291287016 49.2098979302682,72.69758318801178 61.82466721860692,62.043608215113636 63.275923862122,52.26520181534579 58.47561342548579,40.881264102237765 51.219330206513405,33.0 46.64229002222419,42.486699120665435 38.26965554011986,38.25418301863829 34.69733149372041,39.27582648815587 22.64073783857748,46.5732492726529 18.17533278092742,53.28683086921228 16.947346390224993,64.67062636028277 19.62658942397684,73.42730331822531 27.664318528026342,82.4757883856073 39.051101424731314,86.85405801172601 40.3907229420729,81.89201764349127 37.04166914941743,75.32457314798376 48.42845204565674,73.42730331822531 59.033789057284594,65.10846204240806 62.60611310321838,58.97874492802657 61.936302344780415,46.719197181402706 57.69416753994301,39.71367336745607 50.99605995416641,33.87569910031743 46.865560275968164,42.92454458406428 36.26022326387465,38.83797941543162 32.018088459037244,42.194802037556656 27.32941314857453,41.756956252094824 20.854575815144926,46.427301342599094 16.500805884134024,56.78955107409274 19.62658942397684,73.71919122041436 31.906453332863748,84.81086792174028 39.49764193082228,86.56217397080036 40.72562832152471,81.74607490457129 37.48820965504274,74.74079820205225 50.437884320970625,71.96786252124002 60.93158620689064,63.211172693176195 62.82938335649669,51.535466132860165 60.150140321813524,43.216441452503204 51.10769508033991,34.31354836106766 46.64229002222419,42.63264762976905 35.255507125519216,39.12987748568412 24.76180524053052,44.82187269546557 18.621873286552727,52.557095938012935 16.947346390224993,63.503063598356675 18.733508412726223,71.67597410437884 28.89230491872877,83.35144385532476 38.49292579246685,85.68652133241994 41.17216882761568,83.49738635827089 37.71147990738973,74.59485441143624 45.97247926425189,73.57324727991363 56.91272165486589,67.29763755615568 63.16428873548284,57.227390231215395 62.94101848267019,50.07599315972766 57.80580266658217,40.29746890650131 51.554235585965216,34.16759862919571 45.19103337870911,42.486699120665435 36.37185839051381,38.69203034846578 20.519670435693115,48.470570412115194 17.282251769211143,58.54090654337779 19.514954298269004,73.42730331822531 29.785385930445045,83.49738635827089 40.05581756262109,85.39463694795268 40.72562832152471,81.45418936188798 37.37657452793792,74.74079820205225 45.86084413761273,73.86513513937825 58.587248551659286,65.40035238972632 62.82938335649669,58.54090654337779 62.38284285040572,48.90841323742643 51.33096533315256,35.043296699645 46.30738464323804,43.50833823537687 39.49764193082228,39.42177546932362 34.02752073481679,39.12987748568412 30.901737194973975,42.92454458406428 21.301116320770234,47.88677967863623 16.724076136481017,57.957121729967184 17.617157148197293,68.0273616547347 20.966210941318423,76.49212201079354 33.24607484927401,85.68652133241994 39.94418243598193,86.41623191785766 39.94418243598193,81.01636088686064 37.153304275590926,75.61646049236879 45.30266850581393,74.59485441143624 53.22876248275861,70.65436396945734 59.92687006900087,64.96251683676383 63.16428873548284,56.93549748091027" stroke="#4dd2ff" stroke-linecap="round" stroke-linejoin="round" stroke-width="0.5"><title>2021-12-26 10.3km</title></polyline><polyline fill="none" points="97.1708912551403,75.16463144525187 107.46884708711877,74.27697319386061 121.27489776257426,64.36473621288314 123.65134910866618,52.67704780655913 119.80376121448353,42.32075480505591 112.6744071780704,33.59179652197054 106.22403923934326,42.17280699039111 98.64202780276537,37.58641394414008 93.32330336235464,42.32075480505591 81.32788228383288,47.942755655851215 76.00915784295648,58.89077246229863 77.253965690732,70.72633236076217 84.27015537861735,80.19468008412514 98.75519215222448,86.70411748206243 100.22632869984955,82.70969497784972 97.39721995498985,75.31257441098569 110.63744888128713,71.61399374331813 121.61439081188291,62.44145504408516 123.42502040835097,52.085262504871935 119.0116107664071,40.2494834184763 111.3164349803701,33.443847423943225 105.77138184010983,42.17280699039111 98.41569910338148,37.88231090048794 95.81291905790567,38.474104551947676 92.98381031211466,42.17280699039111 86.64660672424361,43.356388900079764 79.7435813867487,48.534543392190244 76.23548654234037,58.594881681667175 78.38560918904841,72.05782414082205 85.51496322639287,81.67410137085244 98.07620605407283,86.55617619055556 100.67898609954864,83.15352048358181 98.07620605407283,76.20023174927337 111.99542107945308,71.61399374331813 121.50122646195814,63.32912373251747 123.76451345765963,52.972940326319076 121.3880621115677,44.8358643304673 112.2217497783713,33.0 106.22403923934326,40.9892236890737 97.05772690568119,37.290516900946386 92.8706459631212,41.581015513511375 84.60964842839167,43.94817933358718 79.63041703682393,49.126330780854914 76.57497959211469,59.33460847014794 78.38560918904841,71.61399374331813 86.08078497508541,81.52615933970083 99.43417825130746,86.85205875168322 101.13164349831641,83.30146227497607 97.96304170368239,75.31257441098569 111.09010628052056,71.46605023357552 122.51970560988411,61.40584058489185 123.76451345765963,52.82499407726573 119.12477511633188,40.54537959193112 111.3164349803701,33.147949163394514 107.24251838773489,40.54537959193112 95.47342600859702,37.88231090048794 92.8706459631212,41.13717167766299 81.78053968260065,45.72354854486184 78.27244483912364,51.93731612584088 76.46181524265558,62.14556530705886 78.6119378884323,72.50165434269002 87.4387571727857,81.82204337965231 99.09468520246446,85.96441080677323 100.67898609954864,82.70969497784972 98.07620605407283,75.31257441098569 112.56124282814562,70.43044505937723 122.18021256057546,61.5537855727016 123.65134910866618,52.67704780655913 120.36958296364173,42.17280699039111 111.54276367975399,33.443847423943225 105.65821749018505,41.87691129546147 96.37874080659822,37.58641394414008 80.53573183482513,48.238649567298125 77.02763699134812,58.15104534768034 79.85674573620781,74.42491629009601 87.77825022209436,82.85763683443656 98.64202780276537,87.0 100.90531479846686,83.30146227497607 97.84987735422328,75.60846027749358 111.09010628052056,71.76193723082542 123.08552735904232,59.92638950893888 123.99084215750918,52.82499407726573 119.80376121448353,42.02485915401485 112.2217497783713,33.147949163394514 107.69517578650266,40.9892236890737 95.81291905790567,37.734362433024216 92.8706459631212,41.43306759011466 83.25167623069137,45.72354854486184 77.02763699134812,56.07980653550476 77.93295178934932,70.282501376234 80.42256748536602,75.60846027749358 89.58887981902808,83.89322922431165 99.88683565054089,86.26029354223283 100.90531479846686,81.37821728730341 97.51038430491462,75.7564031778602 110.1847914820537,72.2057675634278 122.40654125995934,61.10995054326486 123.65134910866618,51.64142330083996 119.80376121448353,41.43306759011466 112.44807847775519,33.29589830467012 107.12935403734446,41.43306759011466 99.88683565054089,37.58641394414008 94.90760425990447,38.03025934618199 93.54963206220418,40.693327645713 81.89370403252542,46.3153375859838 77.59345874004066,53.86061736481497 77.14080134080723,67.61951135809068 79.40408833697438,74.72080241731601 87.32559282286093,82.70969497784972 98.98152085207403,86.70411748206243 100.79215044854209,82.70969497784972 97.39721995498985,75.16463144525187 111.99542107945308,71.31810670276172 121.95388386119157,61.84967548341956 123.76451345765963,52.67704780655913 120.14325426425785,42.616650369542185 112.10858542844653,33.73974559811177 107.12935403734446,41.13717167766299 97.05772690568119,37.290516900946386 82.91218318091705,46.16739035840146 77.59345874004066,55.3400773559697 77.02763699134812,66.28801370714791 78.95143093774095,74.42491629009601 88.0045789219439,82.85763683443656 98.75519215222448,87.0 100.45265739969909,81.82204337965231 97.62354865437374,75.7564031778602 112.78757152752951,71.02221957477741 122.9723630095832,60.07433471427066 123.3118560584262,48.8304371300037 118.89844641648233,39.509742604452185 112.2217497783713,33.29589830467012 107.01618968788534,41.13717167766299 98.75519215222448,37.290516900946386 89.92837286833674,41.87691129546147 83.25167623069137,50.16195787343895 82.1200327319093,55.3400773559697 84.49648407800123,65.25240320549347 88.68356502056122,62.88528948597377" stroke="#4dd2ff" stroke-linecap="round" stroke-linejoin="round" stroke-width="0.5"><title>2021-12-11 10.8km</title></polyline><polyline fill="none" points="157.97731369594112,54.21510706387926 147.7924932478927,33.43551141876378 145.41286230203696,33.622159032616764 146.3647146804724,36.48407880711602 171.8743584190961,86.75116786800209 174.6347303162329,85.9424624289968 174.6347303162329,85.19596372998785 149.55342014785856,36.23521698615514 147.45934491558,33.0 145.65082539687864,33.43551141876378 146.88823348865844,37.35509402892785 171.8267658003606,86.50233558984473 172.44546984601766,87.0 174.72991555416957,85.32038027123781 149.26786443428136,35.67527735364274 147.55453015328385,33.0 145.7460106345825,33.31107963074464 146.17434420483187,35.86192398017738 171.73158056265675,86.81337591464398 174.25398936495185,85.88025425447267 174.25398936495185,84.32504691780196 150.07693895581178,37.04401736991713 147.55453015328385,33.062215944286436 145.41286230203696,33.43551141876378 171.8267658003606,86.37791939571616 174.49195245932788,85.3825885282713 172.73102555959485,81.4012416616024 149.88656848017126,37.04401736991713 147.316567058675,33.18664780573454 145.41286230203696,33.43551141876378 145.2700844455976,34.430964408180444 168.06694890605286,79.34834505614708" stroke="#4dd2ff" stroke-linecap="round" stroke-linejoin="round" stroke-width="0.5"><title>2021-10-24 10.2km</title></polyline><polyline fill="none" points="37.6609055660665,165.21571469446644 49.527530988212675,162.53066852409393 60.13903256691992,155.07216966792475 63.562097592744976,148.3594738347456 63.79030192736536,142.69094055518508 60.36723690247163,132.6963442293927 51.695472170598805,123.74587592191529 46.67497679963708,131.65212699386757 39.258335910737514,127.77359642833471 34.58014704333618,128.0719454595819 20.317376103252172,137.76824123237748 16.209698072634637,146.86775761982426 17.350719748064876,161.33731239032932 23.740441128611565,170.73495396052022 38.573722906410694,176.70166535116732 40.05705108400434,171.9282990450738 36.97629256080836,165.66322169918567 51.58137000352144,161.33731239032932 60.823645572178066,154.027975454228 63.219791090115905,148.9561597063439 62.07876941468567,137.171548782615 52.83649384602904,124.19340121163987 51.23906350089237,123.29835043416824 46.10446596192196,131.95047488540877 39.486540246754885,128.0719454595819 34.69424921087921,128.0719454595819 32.29810369294137,131.5029530156171 20.317376103252172,138.21576033905149 16.55200457526371,147.31527271447703 17.80712841823697,161.7848211050732 21.914806448854506,168.94493370340206 28.304527829401195,174.01664956624154 38.916029408574104,176.40333061513957 40.51345975417644,173.41997842758428 36.177577388472855,165.36488371831365 50.21214399300516,162.0831601381069 63.219791090115905,148.80698827130254 61.62236074497923,134.9339489727281 53.29290251620114,124.0442261371063 51.46726783597842,123.14917522820178 45.5339551246725,131.8013009505812 39.71474458137527,128.0719454595819 34.922453545965254,128.22111994214356 21.344295611139387,137.32072192779742 16.55200457526371,147.16610103775747 17.921230585314333,161.63565155514516 25.10966713912785,171.18245853146072 38.916029408574104,176.40333061513957 40.399357586633414,172.07746708160266 37.090394728351384,165.21571469446644 50.8967569982633,161.63565155514516 60.93774773972109,154.027975454228 63.33389325812459,149.25450251076836 62.306973750237375,136.1273361518979 53.97751552099362,124.0442261371063 52.037778673227876,123.0 45.876261627301574,131.8013009505812 38.80192724149674,128.0719454595819 35.03655571304262,128.22111994214356 22.827623788733035,135.9781628312776 18.149434920866042,144.18266290822066 17.236617580521852,157.75723557069432 24.425054133869708,170.58578572655097 29.445549504831433,174.16581729636528 38.916029408574104,176.10499579051975 39.828846749383956,171.77913098596036 37.20449689589441,165.21571469446644 49.07112231757492,162.97817671240773 62.64928025286645,151.04455749550834 63.79030192736536,142.9892852010671 61.62236074497923,134.9339489727281 52.72239167848602,123.0 47.35958980489522,131.65212699386757 35.6070665512234,127.9227709552506 22.713521621655673,136.57485598232597 17.921230585314333,145.22686725156382 18.834047926124185,161.9339906326495 22.37121511856094,168.19909099757206 28.875038667116314,172.97247484279796 39.14423374412581,176.5524979941547 40.399357586633414,171.6299629054265 37.432701230980456,165.21571469446644 51.353165668435395,161.9339906326495 62.64928025286645,152.38709666242357 63.44799542473629,139.25997082097456 54.31982202408835,124.0442261371063 52.60828951140866,123.29835043416824 46.90318113518879,132.99469181348104 39.3724380787462,128.66864325886127 34.80835137795657,129.2653407076141 24.19684979924932,135.38146932935342 17.12251541344449,146.56941411388107 18.37763925595209,162.38149908429477 26.478893149178475,172.52497106103692 40.171153251547366,177.0 40.28525541862473,171.03329036314972 37.090394728351384,165.9615595927462 52.49418734339997,161.63565155514516 61.736462912522256,153.87880476482678 63.33389325812459,149.4036738802679 62.64928025286645,137.171548782615 53.29290251620114,123.89505104068667 51.23906350089237,124.19340121163987 46.67497679963708,132.54717040411197 40.171153251547366,128.9669920274755 34.4660448753275,129.41451501485426 32.868614530190825,132.39799655752722 21.68660211376846,137.91741428989917 17.12251541344449,147.31527271447703 19.29045659583062,164.32070009375457 24.19684979924932,171.33162667811848 31.15708201751113,175.6574933899101 39.14423374412581,177.0 40.171153251547366,172.3758030901663 37.6609055660665,165.8123906571418 50.66855266317725,162.53066852409393 60.36723690247163,155.51968114520423 63.562097592744976,148.80698827130254 62.99158675502986,138.81245217460673 52.72239167848602,124.19340121163987 46.218568129930645,132.54717040411197 35.264760048594326,128.9669920274755 32.868614530190825,132.09964879776817 21.914806448854506,136.72402921540197 16.666106742806733,147.01692933985032 17.4648219156079,160.7406337974826 24.653258469887078,171.48079480289016 31.385286352597177,175.50832587946206 39.258335910737514,176.85083268664312 40.399357586633414,173.2708105876809 38.003212068229914,167.15491028956603 49.98393965745345,162.53066852409393 61.05184990679845,153.43129256437533" stroke="#4dd2ff" stroke-linecap="round" stroke-linejoin="round" stroke-width="0.5"><title>2021-07-25 10.1km</title></polyline><polyline fill="none" points="98.11731368256733,165.96155959262978 113.292906423565,161.4864819839131 122.19287810614333,152.98378016625065 122.87749131210148,139.55831647582818 114.31982623320073,126.1326751888264 111.01086240215227,124.64092630485538 105.76216115336865,132.0996487981174 99.48654009541497,128.81781765434425 92.75451023317873,129.26534070784692 90.35836401116103,132.8455180323217 80.2032681168057,138.6632792489836 76.4378954814747,146.42024232808035 76.8943042862229,159.2489357801387 80.31737031787634,166.70740394224413 86.13658257201314,172.37580308970064 98.4596202862449,176.85083268629387 100.5134599050507,172.97247484268155 97.2044960744679,166.25989739829674 110.09804479405284,162.08316013845615 122.07877590507269,152.53626757115126 123.67620671959594,143.13845749152824 118.6557098729536,130.60790868499316 111.58137340750545,123.0 105.64805895276368,131.80130095069762 95.1506564556621,127.77359642856754 78.60583730181679,139.70748927048407 76.09558887826279,151.9395838038763 78.60583730181679,164.6190383817302 87.27760458225384,172.97247484268155 98.80192688899115,176.85083268629387 100.17115330137312,172.52497106057126 96.63398506958038,166.11072850669734 111.80957780964673,161.0389731375035 122.64928690996021,150.89538636698853 122.76338911149651,140.45335291372612 117.97109666652977,129.41451501543634 110.78265800047666,123.59670078195632 106.3326721591875,131.80130095069762 97.5468026776798,128.2211199424928 93.66732784174383,128.81781765434425 92.98271463532001,131.20460499310866 81.68659673025832,137.02237561543006 77.35071309050545,145.3760392125696 76.6660998845473,156.7130441190675 80.54557472048327,166.85657274676487 89.55964860366657,174.01664956612512 99.37243789480999,176.70166535116732 100.05705110123381,173.2708105876809 96.51988286804408,166.25989739829674 113.63521302677691,160.59146409423556 122.19287810614333,152.0887547787279 122.99159351317212,142.3925958214095 119.11211867723614,132.39799655776005 110.66855579894036,123.74587592214812 107.01728536514565,131.3537790152477 94.23783884709701,128.5194688423071 80.88788132369518,137.46989505155943 77.69301969371736,143.7351464324165 76.6660998845473,155.3705106745474 80.43147251894698,166.70740394224413 92.06989702675492,175.95582834561355 99.1442334917374,176.85083268629387 100.05705110123381,173.1216427263571 96.29167846636847,166.11072850669734 111.2390668047592,161.4864819839131 121.96467370353639,152.53626757115126 123.33390011638403,143.13845749152824 118.42750547081232,130.01121202518698 111.35316900536418,123.74587592214812 106.44677435979247,131.95047488517594 96.17757626529783,128.2211199424928 92.98271463532001,131.65212699444965 82.59941433928907,135.9781628312776 77.0084064877592,144.6301791870501 77.35071309050545,157.60806542867795 81.68659673025832,168.04992239095736 87.04940018011257,173.71831404045224 99.48654009541497,176.4033306146739 99.94294889969751,172.07746708206832 96.51988286804408,166.11072850669734 111.35316900536418,162.08316013845615 122.64928690996021,151.64124178886414 123.5621045185253,142.9892852010671 118.88391427509487,131.95047488517594 111.46727120690048,124.19340121222194 107.13138756621629,132.24882268859074 96.17757626529783,128.37029440316837 93.66732784174383,131.3537790152477 83.16992534417659,136.27650945074856 78.71993950335309,142.84011288860347 77.23661088943481,158.2047458634479 81.0019835238345,167.45324774400797 87.04940018011257,174.16581729624886 98.80192688899115,177.0 100.05705110123381,173.56914624455385 96.74808727018535,166.40906626859214 113.292906423565,160.59146409423556 122.99159351317212,150.89538636698853 123.90441112173721,140.45335291372612 119.79673188365996,131.20460499310866 112.1518844133243,123.29835043475032 106.90318316454068,131.50295301584993 95.9493718626909,127.77359642856754 92.52630583103746,131.95047488517594 85.56607156665996,134.18808127299417 80.54557472048327,138.5141063007759 77.35071309050545,151.49207074858714 79.51865491084754,164.17153091693763 88.0763199897483,173.56914624455385 98.91602909006178,176.85083268629387 100.62756210612133,173.56914624455385 97.43270047660917,165.66322169918567 111.80957780964673,161.18814277497586 121.85057150246575,152.98378016625065 123.90441112173721,141.9450785558438 122.3069803067483,136.42568272759672 111.80957780964673,123.29835043475032 107.13138756621629,131.50295301584993 96.06347406376153,127.77359642856754 83.74043634999543,134.7847754767863 79.74685931252316,139.55831647582818 77.23661088943481,146.86775761947501 78.94814390549436,163.1273460650118 87.04940018011257,173.1216427263571 98.68782468838617,176.1049957909854 100.28525550290942,171.6299629054265 97.66090487875044,165.3648837179644 112.60829321714118,159.84561524970923 122.99159351317212,149.5528452275321 123.79030892113224,141.7959060901776 121.85057150246575,135.08312244690023 111.92368001071736,123.0 106.21856995811686,131.20460499310866 96.63398506958038,127.32607271708548 84.31094735488296,134.33725485671312 79.97506371513009,139.11079796089325 76.6660998845473,147.46444436884485 79.63275711145252,165.51405271980911 87.73401338700205,173.4199784270022 95.60706525994465,176.70166535116732" stroke="#4dd2ff" stroke-linecap="round" stroke-linejoin="round" stroke-width="0.5"><title>2021-07-11 11.0km</title></polyline><polyline fill="none" points="157.91786846797913,164.93485760007752 171.42358651012182,162.2863922456745 181.44032738963142,155.0766455042176 183.57873274711892,142.5698188142851 178.85173143213615,129.76855203899322 173.3368965657428,123.44142870185897 167.82206169888377,131.2399703398114 155.77946311188862,128.00284722360084 140.58553031552583,139.03845122660277 136.75891020381823,148.16112535219872 139.009863210842,162.5806665199343 147.33838933566585,171.99739762645913 159.15589262219146,176.1171896327869 160.50646442640573,170.9674469754682 157.4676778675057,165.08199435926508 169.73537175450474,162.72780362458434 181.21523208916187,154.48809245752636 183.69128039758652,143.89407844824018 180.76504148868844,133.4470937353908 171.87377711106092,123.0 165.90875164279714,131.68139540823177 158.2555114198476,127.26713596459012 145.19998397957534,134.1828004529234 137.8843867070973,144.48263772320934 137.20910080475733,154.78236902412027 140.81062561599538,165.6705411777366 148.46386583941057,172.88021162617952 159.04334497172385,176.1171896327869 160.50646442640573,171.26171869807877 157.91786846797913,164.93485760007752 169.51027645356953,162.5806665199343 182.6783515443094,151.39818328566616 183.46618509618565,139.33273233432556 178.7391837821342,129.17998411355074 172.32396771246567,123.0 166.47148989420384,131.0928286073613 155.66691546188667,127.70856278471183 149.7018899936229,133.1528108973871 142.3862927206792,136.24277638469357 137.65929140662774,143.74693857558304 136.98400550428778,153.89953906461596 140.02279206411913,164.34631034935592 148.12622288800776,172.43880472320598 158.93079732125625,175.52864895539824 160.73155972687528,172.88021162617952 157.2425825665705,165.3762678115745 170.74830060778186,161.40356890350813 180.65249383775517,154.78236902412027 182.90344684477895,150.2210725209443 182.90344684477895,139.6270133559592 176.6007784260437,127.11999364761868 172.32396771246567,123.0 166.47148989420384,131.2399703398114 159.04334497172385,127.56142053287476 155.44182016141713,128.149989410711 152.74067655252293,131.68139540823177 142.8364833225496,136.095635387348 137.9969343575649,143.30551882716827 137.54674375616014,157.87226775067393 140.69807796599343,165.6705411777366 147.67603228753433,171.99739762645913 159.71863087359816,175.38151373172877 160.95665502734482,172.1445333469892 157.69277316750959,165.6705411777366 170.523205306381,162.13925507623935 181.89051799150184,152.72243124136003 183.91637569805607,142.5698188142851 179.07682673307136,129.91569396673003 172.54906301293522,123.44142870185897 166.80913284560665,131.2399703398114 156.45474901422858,127.70856278471183 142.94903097255155,135.654212265159 136.98400550428778,145.07119665195933 136.98400550428778,156.10661250335397 139.91024441365153,164.78772082005162 149.25169939221814,173.1744827866205 159.4935355731286,175.9700544961379 160.84410737780854,171.55599033430917 157.4676778675057,165.6705411777366 172.09887241199613,161.1092942833202 182.3407085929066,151.98673814855283 183.3536374461837,140.06843472638866 177.27606432698667,127.85570501483744 172.09887241199613,123.5885715589393 166.92168049607426,131.53425374050857 155.1041772100143,128.29713157576043 152.74067655252293,131.53425374050857 141.59845916880295,136.83134015806718 138.44712495896965,142.86409888439812 137.54674375616014,157.43085423082812 142.49884037161246,168.31899757985957 150.6022711964324,173.7630248478963 159.60608322359622,176.26432474778267 161.0692026782781,172.43880472320598 157.58022551750764,165.6705411777366 170.63575295731425,161.9921178848017 178.514088481199,156.54802660743007 182.79089919431135,150.66248921951046 183.57873274711892,140.50985590182245 178.514088481199,129.17998411355074 171.98632476152852,123.8828572089551 166.92168049607426,131.8285370543599 154.76653425907716,128.59141584153986 143.06157862301916,135.50707118131686 138.67222025990486,142.5698188142851 137.3216484556906,153.3109853261849 140.24788736458868,165.3762678115745 147.11329403566197,171.99739762645913 159.4935355731286,175.82291933725355 160.50646442640573,171.11458284780383 157.01748726610094,165.6705411777366 172.32396771246567,161.1092942833202 183.1285421452485,151.25104451552033 182.90344684477895,139.18559179123258 176.03804017324,127.11999364761868 172.21142006199807,123.8828572089551 166.47148989420384,131.8285370543599 155.1041772100143,128.29713157576043 143.2866739234887,136.095635387348 137.43419610569254,145.36547598714242 139.79769676318392,165.08199435926508 149.81443764362484,173.9101603088784 159.4935355731286,175.9700544961379 160.95665502734482,173.46875386009924 157.58022551750764,165.6705411777366 169.84791940497234,162.8749407074647 182.3407085929066,152.42815406929003 183.91637569805607,142.5698188142851 179.97720793588087,132.56424496130785 172.99925361480564,124.03000000159955 167.03422814654186,131.53425374050857 156.67984431469813,127.85570501483744 142.3862927206792,136.38991736032767 137.9969343575649,143.15837886743248 137.09655315522105,154.34095414180774 139.23495851131156,164.49344719474902 147.67603228753433,173.1744827866205 158.70570202032104,176.1171896327869 160.39391677593812,172.291669045866 157.4676778675057,165.6705411777366 170.74830060778186,161.9921178848017 182.90344684477895,151.25104451552033 183.91637569805607,143.30551882716827 179.18937438353896,131.0928286073613 172.32396771246567,123.8828572089551 166.92168049607426,131.38711205072468 154.76653425907716,128.73855794174597 142.94903097255155,135.35993007564684 137.77183905709535,144.04121829912765 137.54674375616014,158.90223187359516 141.03572091739625,168.1718612971017 149.5893423431553,174.20443116663955 158.70570202032104,175.9700544961379 160.39391677593812,172.58594037941657 157.4676778675057,165.5234045057441 168.83499055169523,162.72780362458434 182.11561329243705,152.28101545077516 183.69128039758652,141.245557428163 179.75211263541132,131.68139540823177 172.43651536246762,123.73571439483203 166.1338469432667,131.2399703398114 155.66691546188667,128.149989410711 152.85322420299053,131.38711205072468 142.94903097255155,135.654212265159 137.9969343575649,141.98125841491856 136.75891020381823,154.63523075170815 139.009863210842,164.78772082005162 145.98781753191724,172.1445333469892 157.91786846797913,176.55859491351293 159.9437261740677,175.38151373172877 160.28136912547052,171.26171869807877 157.2425825665705,165.6705411777366 168.83499055169523,162.8749407074647 182.3407085929066,151.25104451552033 183.3536374461837,139.92129429109627 180.65249383775517,133.4470937353908 171.98632476152852,123.8828572089551 166.6965851946734,130.94568685267586 156.00455841282383,128.149989410711 152.85322420299053,131.8285370543599 144.29960277676582,134.47708298807265 139.34750616177917,140.21557513944572 136.08362430194393,153.0167083266424 138.8973155603744,164.0520365939592 148.46386583941057,173.7630248478963 157.8053208179772,177.0 160.28136912547052,173.02734721748857 157.8053208179772,165.5234045057441 169.84791940497234,162.8749407074647 181.89051799150184,152.57529266620986 183.8038280471228,142.27553865755908 182.5658038938418,137.1256219150382 172.09887241199613,123.8828572089551 165.68365634186193,131.97567867906764 156.22965371329337,128.59141584153986 145.31253163004294,133.4470937353908 138.10948200849816,142.71695886034286 136.42126725288108,155.81233632593649 138.8973155603744,164.49344719474902 149.36424704268575,174.4987019378459 159.15589262219146,177.0 160.39391677593812,173.02734721748857 157.4676778675057,165.5234045057441 169.51027645356953,163.16921480937162 182.00306564196944,151.98673814855283 183.57873274711892,143.01123888680013 180.87758913822472,134.035659152898 172.21142006199807,123.44142870185897 166.1338469432667,132.26996186340693 158.59315437078476,128.29713157576043 154.65398660860956,129.03284207778051 144.86234102910385,134.1828004529234 138.22202965803444,142.5698188142851 136.42126725288108,152.72243124136003 140.92317326692864,167.14190671086544 147.11329403566197,172.88021162617952 159.15589262219146,176.55859491351293 160.39391677593812,171.85026188381016 157.58022551750764,165.5234045057441 171.42358651012182,161.55070618155878 182.5658038938418,151.5453220337513 183.3536374461837,141.83411826065276 178.7391837821342,130.2099777564872 172.7741583143361,123.73571439483203 166.24639459419996,132.56424496130785 160.50646442640573,128.149989410711 156.34220136376098,127.70856278471183 141.37336386786774,137.7141851692577 138.22202965803444,143.452658765018 136.64636255335063,154.92950727482093 140.47298266505823,166.2590876503964 148.57641348987818,174.0572957486729 158.8182496712543,176.8528649926884 160.84410737780854,173.7630248478963 157.8053208179772,164.49344719474902 169.28518115263432,162.8749407074647 182.00306564196944,153.0167083266424 183.69128039758652,141.5398378879181 181.10268443915993,133.29995232709916 172.21142006199807,123.73571439483203 167.37187109747902,131.68139540823177 160.05627382500097,127.70856278471183 156.34220136376098,127.70856278471183 153.86615305626765,130.94568685267586 143.961959825363,135.50707118131686 139.91024441365153,140.95127688301727 136.64636255335063,152.42815406929003 138.8973155603744,163.75776275194949 146.6631034342572,172.43880472320598 159.04334497172385,176.55859491351293 160.73155972687528,173.3216183341574 157.8053208179772,165.3762678115745 173.3368965657428,160.37360735423863 181.21523208916187,154.19381580420304 183.1285421452485,149.77965562744066 183.2410897957161,138.89131063979585 178.514088481199,129.47426811937476 173.67453951667994,123.44142870185897 166.6965851946734,132.56424496130785 159.26844027312472,128.00284722360084 154.8790819090791,128.88570002041524 152.29048595111817,132.41710342292208 142.3862927206792,137.41990358522162 138.3345773089677,143.74693857558304 136.19617195194587,153.89953906461596 138.44712495896965,162.8749407074647 148.01367523800582,172.88021162617952 159.15589262219146,176.26432474778267 160.61901207687333,172.1445333469892 158.14296376891434,164.49344719474902 169.51027645356953,162.8749407074647 182.11561329243705,153.16384683718206 183.69128039758652,142.86409888439812 179.8646602849476,131.2399703398114 173.2243489152752,123.14714292204008 167.1467757965438,131.8285370543599 155.5543678109534,127.85570501483744 139.23495851131156,140.21557513944572" stroke="#ff0000" stroke-linecap="round" stroke-linejoin="round" stroke-width="0.5"><title>2021-07-04 21.8km</title></polyline><polyline fill="none" points="45.21804685331881,254.07473974575987 55.98370141489431,248.18650894681923 60.48769975081086,244.0216413474991 62.46506487438455,238.276967253536 60.26799251511693,224.3459923187038 52.468385639600456,214.4362088421476 46.206729415338486,223.05341756501002 40.05492680892348,219.1756830442464 34.78195314621553,218.88844283780782 30.058247573208064,224.48961163015338 21.7093726079911,228.2237063209177 17.75464236130938,235.8354705363745 16.87581341713667,245.02695584169123 19.40244663087651,254.07473974575987 25.99366370914504,260.9682331568911 38.18741530366242,265.70748166774865 39.94507319107652,261.3990748806391 36.97902550594881,254.79281424556393 49.28263071831316,252.0641283405712 61.69608954852447,241.8673925199546 61.91579678514972,228.94179981801426 58.07092015584931,220.18102310138056 51.69941031327471,213.4308628742583 47.085558359045535,222.90979804226663 37.418439977802336,218.02672171220183 30.82722289953381,223.62789544457337 24.78527391096577,225.35132705623982 18.63347130501643,232.67587749427184 16.765959799755365,239.85675599618116 20.06156833888963,254.21835468779318 31.706051843240857,263.12243987538386 38.51697615720332,264.41496162622934 39.72536595445126,260.82461920694914 36.539611033629626,255.08004389726557 51.919117549434304,250.48435933393193 61.256675077136606,241.4365421847324 62.57491849223152,232.24502310581738 57.63150568353012,219.7501632036292 51.369849459733814,213.14362097909907 46.09687579702586,222.1917001128313 40.16478042677045,218.31396217172733 34.5622459105216,218.45758237014525 32.9144416404888,221.47360165487044 22.917762405704707,226.64389877021313 18.85317854071036,233.6812036615447 17.20537427160889,243.1599423866719 20.171421956736594,254.36196960898815 28.410443304572254,261.6863025908824 39.17609786475077,264.41496162622934 39.61551233706996,259.10125016013626 36.21005018008873,254.07473974575987 51.58955669589341,251.34605183557142 60.81726060481742,242.72909262083704 62.35521125653759,232.24502310581738 60.26799251511693,224.92046943842433 51.58955669589341,213.0 46.536290269345045,222.1917001128313 38.18741530366242,217.59586086438503 24.895127529278398,224.63323092082283 21.269958136603236,228.2237063209177 17.315227889455855,238.70781898207497 19.40244663087651,252.4949739901349 27.202053506392986,261.2554609940853 38.07756168581545,265.4202551394119 39.83521957276389,265.2766418438987 40.274634045083076,262.4043714966974 36.75931826978922,254.36196960898815 50.60087413387373,252.35135879454901 60.26799251511693,244.16525776742492 62.46506487438455,238.56420176039683 61.03696784097701,226.93113669677405 56.972383975982666,218.31396217172733 51.69941031327471,213.4308628742583 47.74468006659299,222.90979804226663 37.85785444965586,218.31396217172733 22.368494316004217,228.94179981801426 18.413764069322497,239.2822876579594 19.951714720577,253.21304964995943 26.872492652386427,261.3990748806391 39.2859514830634,266.425547619001 40.93375575309619,266.13832130195806 40.823902134783566,261.1118470860529 38.07756168581545,254.79281424556393 51.80926393158734,252.4949739901349 59.93843166111037,245.6014208025299 63.234040200244635,237.41526322666323 62.79462572839111,229.3726556627662 60.1581388968043,222.47893934766762 52.1388247855939,214.14896724256687 48.40380177414045,222.04808046325343 46.31658303271979,223.05341756501002 37.63814721349627,218.88844283780782 21.7093726079911,229.51627423526952 17.75464236130938,239.85675599618116 19.18273939471692,252.4949739901349 28.52029692195356,262.83521258685505 37.748000831343234,266.425547619001 40.604194899089634,263.840507725894 38.18741530366242,254.6491993876989 49.612191572319716,252.92581944941776 61.5862359306775,243.87802490690956 63.12418658239767,232.96311364730354 59.059602717868984,221.47360165487044 52.02897116728127,214.72345035750186 47.415119213052094,222.7661784986267 35.88048932608217,219.46292316610925 33.134148876182735,222.7661784986267 23.1374696418643,227.50561229645973 19.951714720577,231.67055029282346 17.425081507768482,239.2822876579594 20.28127557504922,254.21835468779318 27.86117521394044,262.5479852143908 39.50565871875733,266.425547619001 40.604194899089634,262.2607577579329 38.297268921509385,255.79811765812337 52.248678403906524,251.34605183557142 61.91579678514972,242.58547599002486 63.234040200244635,233.8248216008069 61.36652869498357,226.069422664179 51.80926393158734,214.57982961059315 46.536290269345045,222.7661784986267 36.869171888101846,219.03206295147538 22.58820155169815,227.50561229645973 17.425081507768482,236.55355843965663 18.5236176867038,250.7715902524069 22.80790878785774,258.09595014550723 30.607515663839877,264.70218844979536 39.72536595445126,267.0 40.604194899089634,262.2607577579329 37.30858635995537,256.22896166099235 50.93043498788029,252.63858916424215 60.26799251511693,245.02695584169123 62.90447934670374,239.42590477422345" stroke="#4dd2ff" stroke-linecap="round" stroke-linejoin="round" stroke-width="0.5"><title>2021-06-27 10.2km</title></polyline><polyline fill="none" points="91.36486297473311,267.0 111.2256781347096,260.7910566650098 120.43649096228182,252.1361157093197 123.17095102090389,244.23372721136548 122.88311311975121,231.8155895828968 110.07432653103024,213.0 102.87837900873274,224.66569812013768 89.92567346990108,218.832862348645 76.82904898002744,227.4880284682149 80.42702274117619,231.8155895828968 77.54864373244345,238.4009806009708 78.98783323634416,246.11525270692073 90.78918717242777,249.69014352979138 97.12162099126726,244.04557450918946 97.84121574368328,240.28251466865186 92.0844577262178,233.32082480192184 84.74459125380963,233.13267049659044 80.57094169128686,241.97589296638034 84.8885102039203,248.56123171653599 94.24324198346585,247.99677543714643 97.6972967935726,240.65882115100976 92.0844577262178,233.13267049659044 83.30540174990892,234.82605825166684 80.71486064232886,244.04557450918946 85.32026705611497,250.44275085197296 94.24324198346585,248.74938375491183 97.12162099126726,239.7180547392927 91.65270087495446,232.94451616355218 82.7297259485349,234.44975005520973 80.57094169128686,244.61003253166564 85.1763481060043,251.0072060537059 94.81891778390855,248.56123171653599 97.55337784346193,241.59958687168546 93.8114851322025,234.26159591553733 84.60067230369896,234.26159591553733 80.71486064232886,244.7981851506047 84.60067230369896,250.2545990627259 94.09932303242385,248.93753576511517 97.55337784346193,240.47066792368423 92.0844577262178,233.5089790802449 85.60810495726764,233.13267049659044 80.42702274117619,240.65882115100976 83.01756384875625,249.69014352979138 92.66013352852315,249.31383970275056 97.55337784346193,241.59958687168546 90.93310612253845,232.56820741388947 83.30540174990892,233.13267049659044 80.13918484002352,241.78773993311916 83.01756384875625,249.31383970275056 91.22094402369112,250.44275085197296 97.55337784346193,242.72850482340436 94.5310798836872,234.26159591553733 85.75202390737832,232.56820741388947 80.71486064232886,241.41143378254492 82.7297259485349,249.12568774749525 91.50878192484379,249.87829540215898 97.55337784346193,240.65882115100976 91.07702507358044,232.56820741388947 84.16891545243561,233.32082480192184 80.57094169128686,244.98633774148766 85.46418600622565,250.81905434746295 93.23580932989717,249.69014352979138 97.98513469379395,240.0943613863783 90.21351137105376,231.4392805014504 83.01756384875625,233.8852875533048 80.42702274117619,242.91665771836415 85.60810495726764,250.2545990627259 95.68243148736656,249.31383970275056 97.84121574368328,238.4009806009708 93.95540408231318,234.07344174815807 84.31283440254629,234.63790416752454 81.72229329496622,246.30340510443784 86.32769970875233,251.94796416931786 93.52364723011851,251.7598126012599 98.5608104960993,242.16404597193468 92.9479714287445,234.26159591553733 83.59323965013027,235.76682825863827 82.01013119611889,246.11525270692073 86.615537609905,251.38350938260555 95.10675568599254,249.87829540215898 98.27297259494662,239.52990137354936 91.65270087495446,233.32082480192184 84.16891545243561,235.20236633706372 82.01013119611889,247.62047111219727 88.77432186622173,252.3242672223132 96.40202623978257,248.37307965138461 98.4168915450573,239.90620807674713 92.37229562737048,234.44975005520973 82.44188804738224,236.1431360684801 80.57094169128686,247.24416667735204 87.19121341127902,252.3242672223132 95.39459358621389,249.87829540215898 96.83378309104592,239.15359455987345 92.0844577262178,233.8852875533048 82.15405014622957,236.51944376621395 81.0026985425502,246.49155747401528 87.62297026254237,252.3242672223132 95.68243148736656,249.50199163041543 96.40202623978257,237.83651984063908 87.4790513124317,233.8852875533048 81.8662122450769,237.64836619852576 79.41959008853883,244.4218798854854 86.47161865979433,251.57166100549512 96.1141883386299,248.74938375491183 97.84121574368328,240.28251466865186 90.78918717242777,234.07344174815807 84.02499650232494,235.01421230856795 79.70742798876017,244.4218798854854 84.8885102039203,251.0072060537059 93.52364723011851,250.81905434746295 97.98513469379395,242.35219895048067 92.0844577262178,234.63790416752454 82.15405014622957,236.33128993143328 79.85134693980217,244.7981851506047 86.615537609905,251.57166100549512 94.96283673495054,249.87829540215898 97.98513469379395,241.78773993311916 92.66013352852315,234.82605825166684 84.31283440254629,234.26159591553733 79.99526588991284,243.48111623898149 85.1763481060043,250.44275085197296 92.51621457748115,251.0072060537059 97.84121574368328,242.54035190085415 93.66756618116051,235.39052033866756 85.46418600622565,234.07344174815807 79.85134693980217,242.35219895048067 84.45675335358828,250.44275085197296 91.50878192484379,251.57166100549512 97.84121574368328,244.4218798854854 96.2581072896719,237.2720588321099 86.03986180759966,233.5089790802449 79.5635090386495,241.97589296638034 83.73715860024095,250.44275085197296 94.5310798836872,249.50199163041543 97.6972967935726,240.47066792368423 96.83378309104592,237.08390510710888 91.07702507358044,234.26159591553733 83.01756384875625,235.01421230856795 79.99526588991284,245.1744903047802 85.75202390737832,250.6309026136296 95.97026938851923,248.18492755817715 97.55337784346193,239.15359455987345 90.78918717242777,233.6971333308611 81.8662122450769,235.76682825863827 80.28310379106551,245.7389478291152 83.73715860024095,250.2545990627259 94.81891778390855,249.69014352979138 97.55337784346193,240.8469743503956 93.09189037978649,235.01421230856795 83.30540174990892,235.01421230856795 79.70742798876017,242.91665771836415 84.8885102039203,250.6309026136296 95.39459358621389,249.12568774749525 97.40945889241993,240.65882115100976 93.8114851322025,235.20236633706372 84.8885102039203,233.8852875533048 79.5635090386495,241.59958687168546 80.71486064232886,247.05601441778708 85.60810495726764,250.81905434746295 95.97026938851923,248.37307965138461 97.84121574368328,240.65882115100976 93.52364723011851,235.39052033866756 83.16148279979825,235.01421230856795 79.5635090386495,243.10481058678124 83.73715860024095,250.06644724623766 95.10675568599254,249.12568774749525 97.84121574368328,241.2232806662796 95.10675568599254,235.95498217723798 84.31283440254629,234.26159591553733 80.13918484002352,241.78773993311916 83.4493207000196,249.69014352979138 89.63783556874841,251.19535773200914 97.55337784346193,244.98633774148766 94.96283673495054,235.76682825863827 84.60067230369896,234.26159591553733 80.28310379106551,242.72850482340436 84.74459125380963,250.2545990627259 94.96283673495054,249.50199163041543 97.98513469379395,241.78773993311916 91.50878192484379,234.26159591553733 82.87364489864558,235.39052033866756 79.41959008853883,241.78773993311916 84.74459125380963,250.6309026136296 94.38716093357652,249.69014352979138 97.55337784346193,243.29296342644375 94.24324198346585,235.57867431268096 83.30540174990892,234.63790416752454 79.13175218738616,244.4218798854854 83.59323965013027,250.06644724623766 89.78175451979041,250.81905434746295 95.97026938851923,247.99677543714643 97.55337784346193,239.90620807674713 94.09932303242385,235.01421230856795 83.73715860024095,234.82605825166684 79.99526588991284,244.98633774148766 85.46418600622565,251.0072060537059 96.68986414093524,247.62047111219727 97.6972967935726,239.15359455987345 89.92567346990108,234.44975005520973 81.29053644370288,237.2720588321099 81.43445539381355,248.18492755817715 87.91080816369504,251.7598126012599 97.26553994137794,246.67970981635153 96.2581072896719,238.0246734553948 92.66013352852315,234.44975005520973 87.33513236232102,233.8852875533048 80.57094169128686,238.4009806009708 82.58580699749291,249.50199163041543 89.0621597673744,251.57166100549512 97.6972967935726,245.55079534905963 97.40945889241993,238.96544111112598 88.77432186622173,234.44975005520973 81.14661749266088,237.46021252975333 79.85134693980217,245.55079534905963 86.615537609905,251.7598126012599 96.2581072896719,247.80862328829244 96.97770204115659,240.8469743503956 91.50878192484379,234.26159591553733 83.16148279979825,235.39052033866756 81.0026985425502,245.7389478291152 87.19121341127902,251.57166100549512 95.39459358621389,248.56123171653599 97.6972967935726,238.77728763548657 90.35743032116443,233.32082480192184 82.44188804738224,236.7075975742191 81.14661749266088,245.7389478291152 86.75945656001568,251.38350938260555" stroke="#4dd2ff" stroke-linecap="round" stroke-linejoin="round" stroke-width="0.5"><title>2021-06-26 12.2km</title></polyline><polyline fill="none" points="171.65152950957417,251.5511052708025 179.82416632212698,242.59929808659945 181.92254604399204,232.92547926062252 178.38843282777816,221.66330151329748 170.76800120575354,213.0 166.5712417610921,222.09646458324278 155.19581484608352,217.90921357122716 140.8384799058549,228.30511426605517 136.5312794232741,238.26774919609306 137.74613084131852,250.829188360658 144.37259312160313,258.48148061701795 157.84639975847676,264.4011375097907 159.94477948080748,262.3797952645109 157.51507664471865,253.13932060601655 168.55918044503778,251.40672193135833 179.4928432079032,244.9094496848993 182.47475123452023,237.83459325658623 182.69563331035897,229.74898066121386 178.38843282777816,220.21942323329858 171.98285262379795,213.57755581120728 166.68168279947713,222.5296274626744 159.06125117652118,218.34237829694757 155.0853738086298,218.19799007615075 151.33037851611152,223.39595264801756 145.69788557849824,224.69543899287237 141.39068509545177,228.30511426605517 137.4148077275604,238.55651971622137 137.4148077275604,248.95220191095723 138.7401001835242,252.9949374999851 147.24406010983512,261.3691225818475 158.3986049485393,265.4118070729892 160.49698467087,262.95732204441447 157.9568407968618,254.15000175550813 168.89050355972722,252.70617122389376 180.70769462594762,244.043143472285 183.02695642458275,236.8238953218097 182.47475123452023,228.16072750958847 178.71975594200194,220.50819905952085 172.20373469917104,214.15511128277285 166.90256487531587,222.67401504638838 159.06125117652118,218.6311546745128 155.5271379603073,219.35309524694458 152.76611201046035,223.2515651700087 144.15171104529873,227.15001962170936 137.96701291715726,237.54582252411637 137.5252487650141,249.5297365852166 139.18186433520168,253.8612358190585 146.58141388185322,261.2247406852548 158.72992806276307,265.5561883545015 160.2761025945656,262.09103174711345 157.40463560679927,255.0162990555982 165.35639034304768,254.29438469168963 173.5290271556005,249.96288736833958 182.80607434827834,239.42283076775493 182.3643101961352,229.31582096550846 172.8663809276186,214.5882776636281 167.01300591323525,223.97350234666374 160.82830778462812,219.78625933558214 156.07934315083548,219.93064732296625 141.72200820967555,229.31582096550846 137.96701291715726,239.13406050181948 138.51921810721979,250.829188360658 142.71597755188122,257.4708039246034 158.72992806276307,266.1337132670451 160.82830778462812,264.11237458657706 158.17772287270054,255.160681864887 170.2157960147597,253.13932060601655 179.27196113206446,246.78644385898951 183.24783849995583,238.70090494467877 182.80607434827834,231.04845860239584 178.05710971402004,220.65258694032673 172.53505781339481,214.4438888914301 167.45477006491274,223.39595264801756 157.84639975847676,219.06431908148807 143.7099468940869,227.58318027242785 137.96701291715726,237.2570517063723 138.40877706976607,250.829188360658 146.13964972971007,260.93597682833206 158.61948702437803,266.1337132670451 160.93874882301316,261.6578863118775 157.84639975847676,255.5938301643473 169.88447290146723,252.41740486305207 180.81813566433266,244.18752789439168 183.13739746250212,231.19284493441228 177.3944634855725,219.6418713273015 171.7619705479592,214.5882776636281 166.68168279947713,223.10717767081223 156.52110730251297,218.91993096697843 143.48906481731683,227.58318027242785 137.5252487650141,239.71160094829975 138.7401001835242,251.11795518849976 147.7962653003633,261.8022681446746 160.05522051872686,266.1337132670451 161.1596308988519,261.6578863118775 157.29419456841424,255.5938301643473 167.34432902745903,253.8612358190585 181.25989981601015,244.62068103259662 183.13739746250212,238.55651971622137 182.47475123452023,229.31582096550846 178.49887386569753,220.79697480000323 171.5410884716548,214.4438888914301 167.12344695115462,222.5296274626744 159.83433844242245,218.05360183451558 156.4106662645936,218.19799007615075 153.98096342850477,221.95207691472024 146.25009076762944,224.11788971861824 142.71597755188122,227.2944065266638 137.8565718792379,238.70090494467877 138.62965914560482,249.09658561157994 143.37862377986312,258.62586291716434 147.5753832240589,262.3797952645109 160.38654363295063,267.0 160.82830778462812,261.0803587672417 157.7359587205574,255.5938301643473 172.09329366171733,251.5511052708025 180.92857670178637,244.3319122948451 183.46872057626024,233.503023357247 181.81210500607267,228.16072750958847 178.71975594200194,221.23013825243106 171.98285262379795,214.29950009757886 166.90256487531587,222.5296274626744 160.49698467087,219.06431908148807 155.19581484608352,219.06431908148807 141.16980301961303,228.73827440739842 137.4148077275604,238.26774919609306 138.187894992996,250.39603795995936 147.46494218567386,262.23541351611493 158.84036910068244,266.56685672921594 160.82830778462812,263.2460853072116 157.62551768263802,255.44944741914514 169.66359082516283,253.5724697971018 181.48078189231455,243.46560557285557 183.02695642458275,230.18214016623097 180.48681255010888,223.8291149539873 171.98285262379795,214.5882776636281 166.12947760894895,222.81840260932222 156.30022522667423,218.91993096697843 142.05333132343367,227.87195393349975 137.4148077275604,239.71160094829975 139.51318744942546,254.15000175550813" stroke="#4dd2ff" stroke-linecap="round" stroke-linejoin="round" stroke-width="0.5"><title>2021-06-14 10.8km</title></polyline></svg>