<?xml version="1.0" encoding="utf-8" ?>
<svg baseProfile="full" height="200mm" version="1.1" viewBox="0,0,200,200" width="200mm" xmlns="http://www.w3.org/2000/svg" xmlns:ev="http://www.w3.org/2001/xml-events" xmlns:xlink="http://www.w3.org/1999/xlink"><defs /><rect fill="#1a1a1a" height="200" width="200" x="0" y="0" /><text alignment-baseline="middle" fill="#e1ed5e" style="dominant-baseline: central; font-size:9.0px; font-family:Arial;" text-anchor="middle" x="100.0" y="100.0">2019</text><line stroke="#e1ed5e" stroke-width="0.3" x1="100.0" x2="100.0" y1="15.0" y2="10.0" /><path d="M 100.0 14.0 a86.0,86.0 0 0,1 42.46469731375804,11.215312516191453" fill="none" id="id13" stroke="none" /><text fill="#e1ed5e" style="font-size:6.75px; font-family:Arial;" text-anchor="middle"><textPath startOffset="22.20632615414155" xlink:href="#id13">January</textPath></text><path d="M 100.0 79.0 l 0.0 -36.06981365912672 a57.06981365912672,57.06981365912672 0 0,0 0.9823630282616673,0.008455508727324777 l -0.620882548989139 36.06446952700796" fill="#7aff26" stroke="none" /><line stroke="#e1ed5e" stroke-width="0.3" x1="143.23703022742887" x2="145.7803849466894" y1="26.81831364943548" y2="22.513508569990506" /><path d="M 143.74570117128098 25.957352633546492 a86.0,86.0 0 0,1 28.547481713284135,27.462654790039103" fill="none" id="id14" stroke="none" /><text fill="#e1ed5e" style="font-size:6.75px; font-family:Arial;" text-anchor="middle"><textPath startOffset="19.985693538727396" xlink:href="#id14">February</textPath></text><path d="M 110.99172775467656 82.1063720568725 l 7.25357285196892 -11.808219487266712 a34.85815162921397,34.85815162921397 0 0,0 0.5085652401378452,0.3184635067184539 l -7.455757244479029 11.681611639225313" fill="#ff4706" stroke="none" /><path d="M 114.94478906791727 85.2469230424477 l 26.256607633473312 -25.919787244937734 a57.895051365203514,57.895051365203514 0 0,0 0.6940120658745632,0.7152404392666203 l -26.69888396305098 25.463982610121" fill="#70ff27" stroke="none" /><line stroke="#e1ed5e" stroke-width="0.3" x1="172.23445277983987" x2="176.4835382374775" y1="55.19839476539836" y2="52.563006222186495" /><path d="M 173.08426987136738 54.67131705675599 a86.0,86.0 0 0,1 12.851231095245387,41.99856678651699" fill="none" id="id15" stroke="none" /><text fill="#e1ed5e" style="font-size:6.75px; font-family:Arial;" text-anchor="middle"><textPath startOffset="22.20632615414155" xlink:href="#id15">March</textPath></text><line stroke="#e1ed5e" stroke-width="0.3" x1="184.98032266829074" x2="189.97916517819016" y1="98.17113171792111" y2="98.06355123074" /><path d="M 185.9800911702706 98.14961562048488 a86.0,86.0 0 0,1 -9.607161424134198,41.387399972396054" fill="none" id="id16" stroke="none" /><text fill="#e1ed5e" style="font-size:6.75px; font-family:Arial;" text-anchor="middle"><textPath startOffset="21.466115282336823" xlink:href="#id16">April</textPath></text><path d="M 120.70491114924044 103.5080841355445 l 13.853289159716802 2.347196931975047 a35.050727880796785,35.050727880796785 0 0,0 -0.10590920869702594,0.5939950869489512 l -13.810833508680586 -2.5853107696572164" fill="#ff4a06" stroke="none" /><path d="M 120.5718875245553 104.21870165774334 l 14.738631176389907 3.022468779419784 a36.04535032746728,36.04535032746728 0 0,0 -0.12987648009723915,0.6067396769077406 l -14.684420657568225 -3.2757222757436937" fill="#ff5a08" stroke="none" /><path d="M 120.49622156327973 104.57218783832717 l 11.044272134991262 2.463697349430018 a32.31573027344382,32.31573027344382 0 0,0 -0.12578426209962854,0.5418753090452095 l -11.00022730696108 -2.6534413158237924" fill="#ff1d03" stroke="none" /><path d="M 120.41448212921028 104.9243191809786 l 24.072189030621054 5.806620095545648 a45.76261540427318,45.76261540427318 0 0,0 -0.19130666003627353,0.764175010411547 l -23.96867105628972 -6.220122945354591" fill="#ffed16" stroke="none" /><path d="M 120.32669344350535 105.2749913415812 l 14.17277726468585 3.6779851855966306 a35.64223993861132,35.64223993861132 0 0,0 -0.15922224248233638,0.5925251964048477 l -14.107366945861736 -3.921401315177026" fill="#ff5407" stroke="none" /><path d="M 120.23288151984713 105.62410040840565 l 14.013317845380374 3.8952586432146297 a35.544625018651885,35.544625018651885 0 0,0 -0.16893406171352496,0.5880816308915907 l -13.944191146780751 -4.135897749610802" fill="#ff5207" stroke="none" /><path d="M 120.13307415673323 105.97154293290107 l 13.759669723278254 4.081168025083529 a35.352158142337494,35.352158142337494 0 0,0 -0.1780624697899351,0.5819184538990593 l -13.687380480982187 -4.3174134515346445" fill="#ff4f07" stroke="none" /><path d="M 119.79798401119884 107.00284435728193 l 25.194225408793233 8.911576003913192 a47.72386912149145,47.72386912149145 0 0,0 -0.28060666702219034,0.7721090318770377 l -25.037094480765816 -9.34393283279636" fill="#f5ff19" stroke="none" /><path d="M 119.67450827220406 107.3425965602758 l 26.706125889875295 9.966821299128872 a49.5053448822258,49.5053448822258 0 0,0 -0.3048249659032433,0.7958017975255648 l -26.530606644378544 -10.425046663487581" fill="#dcff1b" stroke="none" /><path d="M 119.54520255179757 107.68017299344265 l 26.07931361439445 10.24771370764702 a49.02046100319972,49.02046100319972 0 0,0 -0.3153588633061773,0.7826948363337892 l -25.89905213683088 -10.695107911823621" fill="#e3ff1b" stroke="none" /><path d="M 119.41010516605496 108.01547362559984 l 23.064129076412094 9.524416108405125 a45.95332747870401,45.95332747870401 0 0,0 -0.30821338506304613,0.728525397526936 l -22.896764710156738 -9.920016031598225" fill="#fff016" stroke="none" /><path d="M 119.26925614724726 108.34839909993367 l 13.266250187581207 5.747598676315247 a35.45781050448093,35.45781050448093 0 0,0 -0.24745991644480014,0.5579567840729893 l -13.165349186405134 -5.975103796880925" fill="#ff5107" stroke="none" /><path d="M 118.64920377521936 109.65438752849418 l 14.763016356752482 7.642571914355649 a37.62394530235946,37.62394530235946 0 0,0 -0.3026891042627356,0.5725737138978407 l -14.629274744264853 -7.895560643339624" fill="#ff730a" stroke="none" /><line stroke="#e1ed5e" stroke-width="0.3" x1="174.80103733775053" x2="179.2010983576182" y1="140.37084112569926" y2="142.7455964860345" /><path d="M 175.68104954172406 140.8457921977663 a86.0,86.0 0 0,1 -30.038265399797805,32.042727171017184" fill="none" id="id17" stroke="none" /><text fill="#e1ed5e" style="font-size:6.75px; font-family:Arial;" text-anchor="middle"><textPath startOffset="22.206326154141568" xlink:href="#id17">May</textPath></text><path d="M 118.12598468904814 110.60418214915192 l 9.36637725430531 5.479579299343588 a31.85148893782612,31.85148893782612 0 0,0 -0.2809288042272265,0.4708528348794599 l -9.270667574379855 -5.639994228109153" fill="#ff1502" stroke="none" /><path d="M 117.55443506779139 111.5257021239791 l 21.019866780330798 13.80099799624583 a46.14562278320494,46.14562278320494 0 0,0 -0.4416727084910701,0.6602407722541228 l -20.779190966429006 -14.160775682705758" fill="#fff316" stroke="none" /><path d="M 117.35343817320211 111.8261652097733 l 12.315740967281833 8.393033467267815 a35.903707134664906,35.903707134664906 0 0,0 -0.3524360770598172,0.5077104549293805 l -12.16944398305988 -8.603785184384215" fill="#ff5808" stroke="none" /><path d="M 117.14729908036423 112.12312394758627 l 11.530382699997553 8.151969472279452 a35.12105985701424,35.12105985701424 0 0,0 -0.3532513121422585,0.49063517633272746 l -11.38835159547969 -8.34923825406331" fill="#ff4b07" stroke="none" /><path d="M 116.93607887273984 112.41649034213515 l 12.322541212162088 9.034128566656866 a36.279414284726975,36.279414284726975 0 0,0 -0.373572123332064,0.5004609074871992 l -12.165207822134931 -9.24490235365338" fill="#ff5e08" stroke="none" /><path d="M 116.71984013943494 112.70617746262583 l 22.26158625435726 16.917605861569836 a48.96039360680765,48.96039360680765 0 0,0 -0.5157002520069485,0.6666120928125296 l -21.96707918513224 -17.298295948495618" fill="#e4ff1a" stroke="none" /><path d="M 116.0416608686014 113.55231037782055 l 22.240482532688425 18.789196748663635 a50.11482402053653,50.11482402053653 0 0,0 -0.5623777934276998,0.6541724255009053 l -21.913762229689944 -19.169246273326067" fill="#d4ff1c" stroke="none" /><path d="M 115.80600337817218 113.82643327865902 l 10.52483276067785 9.206685235530118 a34.983388633173504,34.983388633173504 0 0,0 -0.40037846987124603,0.4498294552833624 l -10.364795441158265 -9.386488860554346" fill="#ff4906" stroke="none" /><path d="M 115.56566222782051 114.09645910891815 l 19.989768375083028 18.102985171582926 a47.968665369499114,47.968665369499114 0 0,0 -0.5595284231385727,0.6072575951112383 l -19.67519354394873 -18.444394021495498" fill="#f1ff19" stroke="none" /><path d="M 115.32070863581623 114.36230785411682 l 10.914565712401272 10.231795185310851 a35.960527310374985,35.960527310374985 0 0,0 -0.42723409394744694,0.4479532394444996 l -10.736825067074859 -10.418155541337859" fill="#ff5908" stroke="none" /><path d="M 115.07121518719521 114.62390073753431 l 9.959042703793603 9.663457799002275 a34.87677729910956,34.87677729910956 0 0,0 -0.4217754553790072,0.4272563095007283 l -9.79122662335906 -9.833454602483668" fill="#ff4706" stroke="none" /><path d="M 114.29624159901734 115.38237550388516 l 19.8647850421906 21.373980056684296 a50.17973112000824,50.17973112000824 0 0,0 -0.6377615639791346,0.5825800675142074 l -19.493923928744604 -21.712752890785087" fill="#d3ff1c" stroke="none" /><path d="M 114.0293411484842 115.62618273729858 l 9.950716963274878 11.083323157486271 a35.894858854533595,35.894858854533595 0 0,0 -0.46331314208857205,0.4088199793978326 l -9.75846146827972 -11.252966278656393" fill="#ff5808" stroke="none" /><path d="M 113.75828350139079 115.86535959552629 l 9.509765110338453 10.966182164312691 a35.51526037364471,35.51526037364471 0 0,0 -0.46530829700689597,0.3965458253571979 l -9.31959133675451 -11.128252379892837" fill="#ff5207" stroke="none" /><path d="M 113.48314897796784 116.09983520530334 l 9.542046923538303 11.39388011222528 a35.86173487526842,35.86173487526842 0 0,0 -0.47667054504276385,0.39226740700471013 l -9.344506249950847 -11.55644263808717" fill="#ff5708" stroke="none" /><path d="M 113.20401910651253 116.32954008644616 l 8.965445912688477 11.087654996795838 a35.25886789830505,35.25886789830505 0 0,0 -0.4752265892325696,0.3775487438524841 l -8.773261830738557 -11.240337654653448" fill="#ff4d07" stroke="none" /><path d="M 112.34349029814194 116.9893568818739 l 18.06434790779554 24.863441865391042 a51.73290430023751,51.73290430023751 0 0,0 -0.7249323803128009,0.5172200052047013 l -17.633688199633852 -25.170706132439964" fill="#beff1e" stroke="none" /><path d="M 112.04921762599082 117.19931262002967 l 5.775978400634318 8.244755907201863 a31.066674051241264,31.066674051241264 0 0,0 -0.4406188087536729,0.3030616344375809 l -5.633202707257762 -8.342958331004539" fill="#ff0801" stroke="none" /><path d="M 111.7513745106137 117.40417183066458 l 8.599305070945302 12.735853405392085 a36.36717311891887,36.36717311891887 0 0,0 -0.5218261617159099,0.3458379256744147 l -8.378804210489427 -12.881989352157818" fill="#ff5f08" stroke="none" /><path d="M 111.45004920935366 117.60387380957326 l 5.669991627048049 8.71732647422614 a31.399066588354884,31.399066588354884 0 0,0 -0.4556127137243779,0.2907935904683552 l -5.51909711127674 -8.813634493518304" fill="#ff0e01" stroke="none" /><path d="M 111.1453310114006 117.79835938074945 l 13.875502711136313 22.1582637239531 a47.144181508454366,47.144181508454366 0 0,0 -0.6914946907985986,0.42477251730170834 l -13.492028820405407 -22.39382470808319" fill="#fdff18" stroke="none" /><line stroke="#e1ed5e" stroke-width="0.3" x1="143.8653032363475" x2="146.44561519142675" y1="172.8068346515853" y2="177.08958963109032" /><path d="M 144.38136562736335 173.6633856474863 a86.0,86.0 0 0,1 -40.68145358897372,12.25698825130547" fill="none" id="id18" stroke="none" /><text fill="#e1ed5e" style="font-size:6.75px; font-family:Arial;" text-anchor="middle"><textPath startOffset="21.466115282336833" xlink:href="#id18">June</textPath></text><path d="M 110.21172684928248 118.3499491758327 l 13.19276954523691 23.706729940644717 a48.130392786548285,48.130392786548285 0 0,0 -0.7274042250596271,0.39663878124696617 l -12.782742508308635 -23.930309373651454" fill="#efff19" stroke="none" /><path d="M 109.89434966115114 118.52300852407294 l 12.575631857816461 23.542581784080244 a47.6908162798262,47.6908162798262 0 0,0 -0.7274191581126591,0.38055132357196364 l -12.168521797177307 -23.755562526596925" fill="#f5ff19" stroke="none" /><path d="M 107.93186726928326 119.44442032107085 l 10.470512726214228 25.667732894883386 a48.721185918226745,48.721185918226745 0 0,0 -0.779258071437056,0.31008286867855256 l -10.027133578735306 -25.844162607968006" fill="#e7ff1a" stroke="none" /><path d="M 107.59598834532513 119.57807347666477 l 5.041491828201249 12.994055935495822 a34.937795001671326,34.937795001671326 0 0,0 -0.5625480433827571,0.21270753468473733 l -4.817073564058217 -13.078911720287191" fill="#ff4806" stroke="none" /><path d="M 107.2578585660854 119.70592522655815 l 5.482552408185853 14.885763730811922 a36.86330176092166,36.86330176092166 0 0,0 -0.5973266914211949,0.2141800996779057 l -5.225506156134924 -14.977931371529788" fill="#ff6709" stroke="none" /><path d="M 106.91757812671514 119.82793768551818 l 5.0087054514361515 14.356512894687091 a36.20515020624798,36.20515020624798 0 0,0 -0.5901961304358421,0.2002265716123069 l -4.7608395880630825 -14.44060245319752" fill="#ff5d08" stroke="none" /><path d="M 106.57524785965236 119.94407469862006 l 9.555199889904435 28.98288010310469 a51.51735873248161,51.51735873248161 0 0,0 -0.8445869985183936,0.2704100857472455 l -9.054891546295101 -29.143063035511645" fill="#c1ff1e" stroke="none" /><path d="M 105.53697534728816 120.25689768951611 l 6.588437793841206 24.10364900557989 a45.98786521388947,45.98786521388947 0 0,0 -0.7653904003310024,0.20214656125251357 l -6.172556950698706 -24.213486916135984" fill="#fff116" stroke="none" /><path d="M 105.18746579009965 120.34920634021253 l 3.6773114123181134 14.425226446658089 a35.8865636484895,35.8865636484895 0 0,0 -0.5998981090788535,0.1474403597631023 l -3.4284600184960485 -14.486388064735221" fill="#ff5808" stroke="none" /><path d="M 104.83641907484287 120.43548508189849 l 3.3842266618680763 14.29948736702788 a35.69449995946404,35.69449995946404 0 0,0 -0.5991234292003988,0.13635854190759125 l -3.1375830832748153 -14.355622642513154" fill="#ff5407" stroke="none" /><path d="M 104.48393922423573 120.51570834832081 l 3.174673673341435 14.525326041738776 a35.86820935926791,35.86820935926791 0 0,0 -0.6043085111689374,0.12663872409704838 l -2.9241737007431197 -14.577820746562365" fill="#ff5708" stroke="none" /><path d="M 104.13013068566511 120.58985236759428 l 2.937939668211835 14.646447930409527 a35.938203589195396,35.938203589195396 0 0,0 -0.6075821975371323,0.1164445742158092 l -2.685389856102998 -14.694849702973805" fill="#ff5808" stroke="none" /><path d="M 103.41894727170886 120.7198165907248 l 2.2786743057407253 13.80943019379957 a34.99616800660331,34.99616800660331 0 0,0 -0.595208386813796,0.0929593089415903 l -2.0406300553184122 -13.846607810088264" fill="#ff4906" stroke="none" /><path d="M 103.06178313531738 120.77559828337769 l 4.076246971986413 27.659199182650813 a48.95795215680469,48.95795215680469 0 0,0 -0.8347829953045146,0.11569331658922893 l -3.5995353854950687 -27.725267064732645" fill="#e4ff1a" stroke="none" /><path d="M 102.70371172650421 120.8252237178851 l 3.8092141703708657 29.340308920388843 a50.58654829715023,50.58654829715023 0 0,0 -0.8644821403016244,0.10467674808867442 l -3.303604607017861 -29.401531197202868" fill="#ceff1d" stroke="none" /><path d="M 102.34483914955558 120.86867818915974 l 3.368225138914204 29.97664317655237 a51.1652793244279,51.1652793244279 0 0,0 -0.8760650776492183,0.09080772731233118 l -2.851727464659383 -30.030180272320457" fill="#c6ff1e" stroke="none" /><path d="M 101.62511606390274 120.93702456842531 l 2.1283866452577302 27.42086209882951 a48.50333994180954,48.50333994180954 0 0,0 -0.8329576480769157,0.057445636230580584 l -1.6560662364018839 -27.453436079576377" fill="#eaff1a" stroke="none" /><line stroke="#e1ed5e" stroke-width="0.3" x1="102.19456741930631" x2="102.32365962044197" y1="184.97166512339345" y2="189.96999836594603" /><path d="M 102.22038585953345 185.97133177190398 a86.0,86.0 0 0,1 -42.740103519485714,-10.115201625700543" fill="none" id="id19" stroke="none" /><text fill="#e1ed5e" style="font-size:6.75px; font-family:Arial;" text-anchor="middle"><textPath startOffset="22.20632615414155" xlink:href="#id19">July</textPath></text><path d="M 100.54218724476979 120.99299961872073 l 0.6600070122370838 25.55487442742955 a46.5633960235704,46.5633960235704 0 0,0 -0.8014232523052284,0.013797228081721596 l -0.22002407003918745 -25.56244913279043" fill="#fff917" stroke="none" /><path d="M 100.18074693466247 120.99922214144158 l 0.12286749897852428 14.274775446851406 a35.27530421673517,35.27530421673517 0 0,0 -0.6072288672819496,0.0 l 0.12286749897851444 -14.274775446851406" fill="#ff4e07" stroke="none" /><path d="M 99.81925306533755 120.99922214144158 l -0.13248884168886998 15.392585346372048 a36.39315552245606,36.39315552245606 0 0,0 -0.6263787341819468,-0.010783677958169473 l 0.3974272657634847 -15.38802419113472" fill="#ff6008" stroke="none" /><path d="M 99.45781275523022 120.99299961872073 l -0.38474115626317706 14.896829507984084 a35.901797044224836,35.901797044224836 0 0,0 -0.6176470766850423,-0.021273014166036188 l 0.6411085846228624 -14.887999695391954" fill="#ff5808" stroke="none" /><path d="M 99.09653310690486 120.98055641714683 l -1.1389602384910622 26.44924758524874 a47.47375923911544,47.47375923911544 0 0,0 -0.8161235010755258,-0.042184262910790346 l 1.5940718079800769 -26.42572351557575" fill="#f8ff18" stroke="none" /><path d="M 98.01472825383883 120.90594882070398 l -2.4844474244254875 26.16252953944587 a47.2802288975403,47.2802288975403 0 0,0 -0.8095442445991312,-0.08391257097940563 l 2.934424265630212 -26.1158876000107" fill="#fbff18" stroke="none" /><path d="M 97.65516085044442 120.86867818915974 l -3.292937067523608 29.306591871058572 a50.49101153957706,50.49101153957706 0 0,0 -0.8628494963785741,-0.10447905764641162 l 3.7969139869535713 -29.24556728468681" fill="#cfff1d" stroke="none" /><path d="M 97.2962882734958 120.8252237178851 l -1.7614671713860253 13.567625407777479 a34.681492089740786,34.681492089740786 0 0,0 -0.5913547967769647,-0.08195638639610345 l 1.994750559349821 -13.53529445588877" fill="#ff4406" stroke="none" /><path d="M 96.93821686468263 120.77559828337769 l -3.462948449224768 23.497688333070737 a44.751491931247536,44.751491931247536 0 0,0 -0.7611251413264019,-0.11887209374606315 l 3.866909454159687 -23.434597931977567" fill="#ffdf14" stroke="none" /><path d="M 96.58105272829116 120.7198165907248 l -4.284794467142738 25.96710286315008 a47.31824262239168,47.31824262239168 0 0,0 -0.8024971799095182,-0.13952442119363834 l 4.7311406185243055 -25.889499863435436" fill="#fbff18" stroke="none" /><path d="M 96.22490169976321 120.6578951692458 l -1.9062781847357386 10.431435626781152 a31.604185294178826,31.604185294178826 0 0,0 -0.5343099664052602,-0.10240177673000335 l 2.085555765712694 -10.397076651702681" fill="#ff1101" stroke="none" /><path d="M 95.86986931433489 120.58985236759428 l -2.771563453119689 13.817016135886384 a35.09224960302696,35.09224960302696 0 0,0 -0.5912351212953405,-0.12389906813885039 l 3.008990035844416 -13.767261087020993" fill="#ff4b07" stroke="none" /><path d="M 95.51606077576429 120.51570834832081 l -5.151084952661307 23.568150967576088 a45.12449825840926,45.12449825840926 0 0,0 -0.757403638326006,-0.17238260218845602 l 5.556008740380176 -23.475991631809947" fill="#ffe415" stroke="none" /><path d="M 95.16358092515715 120.4354850818985 l -5.458249709815323 23.062927093809 a44.700023122964424,44.700023122964424 0 0,0 -0.7472283947247237,-0.183650559446816 l 5.854431389283257 -22.965555276048157" fill="#ffde14" stroke="none" /><path d="M 94.81253420990036 120.34920634021253 l -6.971375920188431 27.347065564432093 a49.22165971742149,49.22165971742149 0 0,0 -0.8192114519961686,-0.2163611901692108 l 7.441077814996089 -27.2230130249593" fill="#e0ff1b" stroke="none" /><path d="M 94.46302465271185 120.25689768951611 l -2.672364621664269 9.776784857214272 a31.13543560067238,31.13543560067238 0 0,0 -0.5157641720457105,-0.1457601068491839 l 2.8402599618145934 -9.729335957026567" fill="#ff0901" stroke="none" /><path d="M 94.11515582081647 120.15858648285463 l -7.635586463736892 26.155769870853156 a48.247504072524364,48.247504072524364 0 0,0 -0.7952223133474685,-0.23959395970348596 l 8.084683751524606 -26.020460542043946" fill="#eeff19" stroke="none" /><path d="M 93.76903079525671 120.05430185196036 l -4.061814054108802 13.07290125035832 a34.6893783829572,34.6893783829572 0 0,0 -0.5687053585388531,-0.18208149668084206 l 4.286240757738596 -13.001046907017772" fill="#ff4406" stroke="none" /><path d="M 93.42475214034765 119.94407469862007 l -19.725743578957054 59.832224095860205 a84.0,84.0 0 0,0 -1.3693210682510968,-0.46454805240750785 l 20.752734380145377 -59.483813056554574" fill="#4dd2ff" stroke="none" /><path d="M 93.08242187328487 119.8279376855182 l -9.002493091474738 25.803954615664292 a48.32926921213432,48.32926921213432 0 0,0 -0.7831192839023472,-0.2807987131578271 l 9.445331936006811 -25.645168361466506" fill="#ecff1a" stroke="none" /><path d="M 92.7421414339146 119.70592522655815 l -9.237509629501421 25.080906768998616 a47.72795294275886,47.72795294275886 0 0,0 -0.7684877234332694,-0.29057630012190405 l 9.667867573694974 -24.918182218770077" fill="#f5ff19" stroke="none" /><path d="M 92.40401165467489 119.57807347666478 l -9.950028873076626 25.64543118235821 a48.508020923071314,48.508020923071314 0 0,0 -0.7758486605228679,-0.3087261937135728 l 10.389998609641351 -25.470358144238567" fill="#eaff1a" stroke="none" /><path d="M 92.06813273071674 119.44442032107085 l -9.127108918877457 22.37447200133047 a45.16445974060611,45.16445974060611 0 0,0 -0.7173160161842848,-0.2998381529410835 l 9.510896394559206 -22.214048805369416" fill="#ffe515" stroke="none" /><path d="M 91.7346041902142 119.30500536409082 l -11.637474809626648 27.18097460720838 a50.5674855295881,50.5674855295881 0 0,0 -0.7972309044471598,-0.3494826000530044 l 12.10362638873155 -26.97662745386092" fill="#ceff1d" stroke="none" /><path d="M 91.40352486487194 119.15986991738527 l -3.9723691919023545 8.853637774122898 a30.703948620646692,30.703948620646692 0 0,0 -0.48034427515215405,-0.22050249732341828 l 4.124181462821928 -8.783948206465405" fill="#ff0200" stroke="none" /><path d="M 91.07499286063937 119.00905698771935 l -10.745530917837687 22.886526183228316 a46.2835819345638,46.2835819345638 0 0,0 -0.7182491920022472,-0.3448032600926008 l 11.137892777840175 -22.69816864663615" fill="#fff517" stroke="none" /><path d="M 90.7491055286396 118.85261126421891 l -11.69077278720091 23.824895572827415 a47.53864761848442,47.53864761848442 0 0,0 -0.7315203910456897,-0.3667995101845188 l 12.09914708592936 -23.620128221733594" fill="#f7ff18" stroke="none" /><path d="M 90.42595943632237 118.69057910512821 l -12.825301886793955 25.03773802376632 a49.13141826915512,49.13141826915512 0 0,0 -0.7493923925422058,-0.3920466813063086 l 13.254385181862657 -24.813261923515295" fill="#e1ff1b" stroke="none" /><path d="M 90.10565033884886 118.52300852407294 l -13.314955385290144 24.926654155730148 a49.259973890852166,49.259973890852166 0 0,0 -0.744475809566802,-0.40594757028008704 l 13.742054006725587 -24.693765933690294" fill="#e0ff1b" stroke="none" /><line stroke="#e1ed5e" stroke-width="0.3" x1="58.666819895761336" x2="56.23545636021788" y1="174.27360380694188" y2="178.64263932499728" /><path d="M 58.180547188652646 175.14741091055294 a86.0,86.0 0 0,1 -31.652253787137756,-30.449443065178592" fill="none" id="id20" stroke="none" /><text fill="#e1ed5e" style="font-size:6.75px; font-family:Arial;" text-anchor="middle"><textPath startOffset="22.20632615414155" xlink:href="#id20">August</textPath></text><path d="M 89.7882731507175 118.34994917583269 l -7.140338044710257 12.830821089569586 a35.6838141239012,35.6838141239012 0 0,0 -0.5341548081334658,-0.30330704064233915 l 7.36014161976493 -12.706010883132615" fill="#ff5407" stroke="none" /><path d="M 89.4739219176387 118.17145234162733 l -12.52399013715869 21.620501778886442 a45.98592456016947,45.98592456016947 0 0,0 -0.6815379620757027,-0.4026646410721853 l 12.894295970262773 -21.40171856552051" fill="#fff116" stroke="none" /><path d="M 89.1626897886671 117.98757091392108 l -11.750223756535323 19.502808257172134 a43.768998402316,43.768998402316 0 0,0 -0.6419886621925179,-0.39436187109945137 l 12.08419161866015 -19.297657919244305" fill="#ffd113" stroke="none" /><path d="M 88.8546689885994 117.79835938074946 l -13.251031635554169 21.161024555845408 a45.967554939552045,45.967554939552045 0 0,0 -0.6670071669280638,-0.4257155322853305 l 13.613320604529155 -20.929794594736272" fill="#fff016" stroke="none" /><path d="M 88.54995079064634 117.60387380957326 l -14.327229761443498 22.027393956977644 a47.27690235117312,47.27690235117312 0 0,0 -0.6783679449337452,-0.44958528362865585 l 14.704272405117205 -21.777510652257668" fill="#fbff18" stroke="none" /><path d="M 88.24862548938628 117.40417183066458 l -13.56272320280218 20.08683876938095 a45.23692539128951,45.23692539128951 0 0,0 -0.641595561363026,-0.4412952774861611 l 13.906475648788097 -19.85040270252969" fill="#ffe615" stroke="none" /><path d="M 87.95078237400918 117.19931262002967 l -17.58169136442978 25.096484730545967 a51.64228152511806,51.64228152511806 0 0,0 -0.7236624847798357,-0.5163139684597523 l 18.011081177058504 -24.790126500241996" fill="#c0ff1e" stroke="none" /><path d="M 87.65650970185807 116.9893568818739 l -15.931879250362888 21.92835055932932 a48.10493192577657,48.10493192577657 0 0,0 -0.6657150578391671,-0.4924800847901304 l 16.30697927862062 -21.650860525799423" fill="#f0ff19" stroke="none" /><path d="M 87.36589467227662 116.77436683061367 l -16.26764939142459 21.598642031642566 a48.03955906321983,48.03955906321983 0 0,0 -0.6562461614799103,-0.503181572850901 l 16.637024281397988 -21.3154211169643" fill="#f0ff19" stroke="none" /><path d="M 87.07902340077011 116.55440617244103 l -9.229169734421621 11.82444865871218 a35.999838668108545,35.999838668108545 0 0,0 -0.4852135523043832,-0.38548299132115804 l 9.431340779443362 -11.66383175338589" fill="#ff5908" stroke="none" /><path d="M 86.79598089348748 116.32954008644616 l -10.014860018651598 12.38547572640648 a36.92788216187546,36.92788216187546 0 0,0 -0.490841666712437,-0.4039292753737923 l 10.226571813908725 -12.211251332175507" fill="#ff6809" stroke="none" /><path d="M 86.51685102203217 116.09983520530335 l -17.34185837389324 20.70740762633565 a48.00993858681272,48.00993858681272 0 0,0 -0.6290091225070238,-0.5360552202619793 l 17.695732972977318 -20.405828015850723" fill="#f1ff19" stroke="none" /><path d="M 86.24171649860922 115.8653595955263 l -18.741077717927862 21.611266926762656 a49.6055038796592,49.6055038796592 0 0,0 -0.6402833887858838,-0.5649756461304488 l 19.110303459620336 -21.28546813885992" fill="#dbff1b" stroke="none" /><path d="M 85.97065885151581 115.62618273729859 l -19.732205461161932 21.978156000529797 a50.536405900940835,50.536405900940835 0 0,0 -0.6422947382517626,-0.5867210147317249 l 20.10759974888055 -21.635242219211495" fill="#ceff1d" stroke="none" /><path d="M 85.70375840098266 115.38237550388516 l -19.206454799517783 20.665634235286515 a49.21269828131591,49.21269828131591 0 0,0 -0.6155434443542057,-0.5820347469215207 l 19.559334078262804 -20.331964851619063" fill="#e0ff1b" stroke="none" /><path d="M 85.44109423537348 115.13401014063109 l -18.70536753288681 19.444265008895922 a47.98092319170251,47.98092319170251 0 0,0 -0.5902797043633191,-0.5777129281286699 l 19.037297189625924 -19.11940197784468" fill="#f1ff19" stroke="none" /><path d="M 85.18274418774928 114.88116024355367 l -20.30239841326221 20.389959378742233 a49.773908750769166,49.773908750769166 0 0,0 -0.6019309883280124,-0.6097529132321118 l 20.650370026645756 -20.037465971529457" fill="#d9ff1c" stroke="none" /><path d="M 84.9287848128048 114.62390073753433 l -18.25426014332177 17.712472754013326 a46.43520600352453,46.43520600352453 0 0,0 -0.5516799849165653,-0.5784342585975039 l 18.556446679617295 -17.395631378833322" fill="#fff717" stroke="none" /><path d="M 84.67929136418377 114.36230785411682 l -20.116602466123062 18.858190209421238 a48.57370183262921,48.57370183262921 0 0,0 -0.5665858448022365,-0.6149170324694346 l 20.438234718921027 -18.50912192215046" fill="#e9ff1a" stroke="none" /><path d="M 84.43433777217949 114.09645910891817 l -19.73745181751105 17.87448412972176 a47.628259183661356,47.628259183661356 0 0,0 -0.5450966953070603,-0.6124219157078795 l 20.04220736246645 -17.53208804427302" fill="#f6ff19" stroke="none" /><path d="M 84.19399662182784 113.82643327865904 l -20.887100832780902 18.271165653924168 a48.750792340974606,48.750792340974606 0 0,0 -0.5470709228338179,-0.6363670768896099 l 21.198514265185498 -17.908921477873026" fill="#e7ff1a" stroke="none" /><path d="M 83.95833913139862 113.55231037782056 l -21.519356033582415 18.179974909503322 a49.1708035350476,49.1708035350476 0 0,0 -0.5406540583186443,-0.6512526419973509 l 21.829106091794596 -17.80686101039221" fill="#e1ff1b" stroke="none" /><path d="M 83.72743513129214 113.27417163493432 l -21.277549813365905 17.356934845386274 a48.45901151329471,48.45901151329471 0 0,0 -0.521700690603962,-0.650901826676719 l 21.573168416024725 -16.988105185131293" fill="#ebff1a" stroke="none" /><path d="M 83.50135304334701 112.99209946851258 l -9.902334058775077 7.797736953827445 a33.60400418171396,33.60400418171396 0 0,0 -0.35395126853193565,-0.457529727688681 l 10.03509214452508 -7.626129232025511" fill="#ff3304" stroke="none" /><path d="M 83.28015986056508 112.70617746262583 l -24.879250424247363 18.906889563017078 a52.24816113982608,52.24816113982608 0 0,0 -0.5380036277327177,-0.7207437786442805 l 25.201015318675168 -18.47583290486349" fill="#b8ff1f" stroke="none" /><path d="M 83.06392112726016 112.41649034213515 l -24.468995849983585 17.939161297960805 a51.34048888829527,51.34048888829527 0 0,0 -0.5163880344058831,-0.7172178152159565 l 24.774163676765077 -17.51530987729371" fill="#c4ff1e" stroke="none" /><path d="M 82.85270091963577 112.12312394758628 l -23.209276532096315 16.40893617203022 a49.42399872363279,49.42399872363279 0 0,0 -0.48515325053854846,-0.6988994418400332 l 23.488290689796997 -16.006995468003176" fill="#ddff1b" stroke="none" /><path d="M 82.6465618267979 111.8261652097733 l -23.033727058970342 15.697215668584992 a48.87391544030391,48.87391544030391 0 0,0 -0.4677859633295067,-0.6992765451446424 l 23.30051612771058 -15.298402209234528" fill="#e5ff1a" stroke="none" /><path d="M 82.44556493220864 111.52570212397912 l -12.199701197612912 8.00994856640116 a35.59424493927075,35.59424493927075 0 0,0 -0.33186571670835324,-0.5150629621023658 l 12.33577177769831 -7.798764004377347" fill="#ff5307" stroke="none" /><path d="M 82.24976979558568 111.22182372390057 l -23.603888977572247 14.922549074262845 a48.92536563304659,48.92536563304659 0 0,0 -0.4439053414414066,-0.7157167529413208 l 23.85725895868161 -14.514035989956259" fill="#e4ff1a" stroke="none" /><line stroke="#e1ed5e" stroke-width="0.3" x1="26.63291911575756" x2="22.317208475507996" y1="142.92168965132927" y2="145.44649492493687" /><path d="M 25.769776987707644 143.4266507060508 a86.0,86.0 0 0,1 -11.730757126820373,-40.83630448921669" fill="none" id="id21" stroke="none" /><text fill="#e1ed5e" style="font-size:6.75px; font-family:Arial;" text-anchor="middle"><textPath startOffset="21.46611528233685" xlink:href="#id21">September</textPath></text><path d="M 81.87401531095188 110.60418214915194 l -27.253369498462543 15.943944524815494 a52.57460238910575,52.57460238910575 0 0,0 -0.4502589187030061,-0.7850643771959049 l 27.523780413317926 -15.472460301761283" fill="#b3ff20" stroke="none" /><path d="M 81.69416730710424 110.29060199501025 l -24.68306660005213 13.875556422846723 a49.315805530237206,49.315805530237206 0 0,0 -0.4096114224464157,-0.7435637114206097 l 24.91825443195006 -13.44862219302829" fill="#dfff1b" stroke="none" /><path d="M 81.51974371655577 109.97397251340807 l -23.525541303902827 12.696961488482218 a47.73319892346665,47.73319892346665 0 0,0 -0.3840192491677266,-0.7264196979927157 l 23.74061306129544 -12.290126775403378" fill="#f5ff19" stroke="none" /><path d="M 81.35079622478065 109.6543875284942 l -24.633418411027936 12.752317490766984 a48.73854545570282,48.73854545570282 0 0,0 -0.37928180624064095,-0.748358986187077 l 24.849278887054844 -12.326404292877221" fill="#e7ff1a" stroke="none" /><path d="M 81.18737489456691 109.33194174019688 l -24.1277752716603 11.968504761766129 a47.93315142704546,47.93315142704546 0 0,0 -0.3602900882358411,-0.7423042961649311 l 24.330218616510862 -11.551411509635914" fill="#f2ff19" stroke="none" /><path d="M 81.02952815118164 109.00673069616217 l -28.803836533579343 13.675379333824297 a52.88537280599286,52.88537280599286 0 0,0 -0.3833569589981368,-0.8257167846458612 l 29.034968109417306 -13.177542481899609" fill="#afff20" stroke="none" /><path d="M 80.87730276802145 108.67885076344099 l -22.5350577607039 10.227553199117208 a45.74735688349432,45.74735688349432 0 0,0 -0.3192706191074259,-0.7198709611053818 l 22.707769464542604 -9.83813390151913" fill="#ffed16" stroke="none" /><path d="M 80.58989483394504 108.01547362559985 l -27.218728797805678 11.240073195621385 a50.44823327147866,50.44823327147866 0 0,0 -0.3245440204909636,-0.8054916431971625 l 27.40817543255403 -10.769882184581418" fill="#d0ff1d" stroke="none" /><path d="M 80.45479744820244 107.68017299344265 l -29.68701001025114 11.665336899556626 a52.896687105856444,52.896687105856444 0 0,0 -0.3257068682542622,-0.8503178552160718 l 29.88341115809891 -11.152595477507397" fill="#afff20" stroke="none" /><path d="M 80.32549172779594 107.34259656027581 l -26.18593344953661 9.772683627667572 a48.95010654559374,48.95010654559374 0 0,0 -0.2878166942661995,-0.7919479302690837 l 26.350274404808033 -9.320487900392372" fill="#e4ff1a" stroke="none" /><path d="M 80.20201598880116 107.00284435728193 l -35.32051356840624 12.493396246754315 a58.46496534783376,58.46496534783376 0 0,0 -0.3274293330234129,-0.9516629080394258 l 35.53033373237289 -11.883560635625592" fill="#69ff28" stroke="none" /><path d="M 80.0844068197444 106.66101706037122 l -24.83379330840098 8.305970070978757 a47.18599680944715,47.18599680944715 0 0,0 -0.25100197557798964,-0.7725046480348471 l 24.97308753499522 -7.877266522966107" fill="#fcff18" stroke="none" /><path d="M 79.97269907076064 106.31721596034903 l -26.87943718234944 8.478586813744261 a49.184935295261326,49.184935295261326 0 0,0 -0.2477356833455683,-0.8096145470640296 l 27.02139963820114 -8.014645294128185" fill="#e1ff1b" stroke="none" /><path d="M 79.86692584326677 105.97154293290107 l -30.41484255035442 9.02115278933329 a52.7244991294007,52.7244991294007 0 0,0 -0.25058539188601836,-0.8723206228702243 l 30.565620579126545 -8.496274690958469" fill="#b1ff20" stroke="none" /><path d="M 79.76711848015287 105.62410040840567 l -27.4616134742885 7.633459001117686 a49.50280531689764,49.50280531689764 0 0,0 -0.22114063777413245,-0.8229465794940527 l 27.58894218840441 -7.159621488448094" fill="#dcff1b" stroke="none" /><path d="M 79.67330655649465 105.27499134158121 l -27.09455720047949 7.031323369624201 a48.99204419506154,48.99204419506154 0 0,0 -0.20480700808966,-0.8181021900105093 l 27.211575522864205 -6.5638933402163" fill="#e3ff1b" stroke="none" /><path d="M 79.58551787078972 104.9243191809786 l -27.57303514306233 6.651083528516203 a49.363871017614116,49.363871017614116 0 0,0 -0.19214166097413563,-0.8277412466621077 l 27.683437369967024 -6.175473624505521" fill="#deff1b" stroke="none" /><path d="M 79.50377843672027 104.57218783832718 l -13.71458506056216 3.0593765210826476 a35.05167705582314,35.05167705582314 0 0,0 -0.12629613517853916,-0.5900134974057623 l 13.765215234465138 -2.8228492042607214" fill="#ff4a06" stroke="none" /><path d="M 79.4281124754447 104.21870165774334 l -14.230778954506865 2.918322914934125 a35.526929417046986,35.526929417046986 0 0,0 -0.11769575527203457,-0.6001281204820516 l 14.278904642754567 -2.6729310673841185" fill="#ff5207" stroke="none" /><path d="M 79.35854240842038 103.8639653848113 l -13.237764007157795 2.478035364945573 a34.467704153979746,34.467704153979746 0 0,0 -0.10414754537953994,-0.5841147435083959 l 13.278457994876522 -2.2498018707039638" fill="#ff4106" stroke="none" /><path d="M 79.29508885075956 103.50808413554451 l -9.445840575255986 1.6004320535398084 a30.580463816076442,30.580463816076442 0 0,0 -0.08346754936931092,-0.5197525095987052 l 9.471989878986587 -1.4376003142478895" fill="#ff0000" stroke="none" /><path d="M 79.23777060512086 103.15116336523772 l -23.72223683151126 3.600415072159278 a44.993905663358376,44.993905663358376 0 0,0 -0.10962647055882627,-0.7667272797580711 l 23.780697353086687 -3.1915423204208064" fill="#ffe215" stroke="none" /><path d="M 79.18660465613746 102.79330883721812 l -27.332365669752026 3.6682020067383676 a48.577416830937565,48.577416830937565 0 0,0 -0.10409097343233087,-0.8297074742779676 l 27.391458152431206 -3.1971767781729916" fill="#e9ff1a" stroke="none" /><path d="M 79.1416061653843 102.43462659150553 l -24.06377643554008 2.8087642062248706 a45.22714371744684,45.22714371744684 0 0,0 -0.08360064899011653,-0.7740381810807603 l 24.10855938603125 -2.394129703259328" fill="#ffe615" stroke="none" /><path d="M 79.10278846688536 102.07522291339032 l -13.827878960978271 1.3731942760849751 a34.895895044196976,34.895895044196976 0 0,0 -0.05421393638522535,-0.5982462704365127 l 13.849467493640573 -1.1349666170998964" fill="#ff4806" stroke="none" /><path d="M 79.07016306316243 101.71520430193888 l -18.355417947886387 1.5042301534938711 a39.41695078986394,39.41695078986394 0 0,0 -0.049596737467940494,-0.6767080779586275 l 18.378591244018665 -1.188048939038483" fill="#ff8f0d" stroke="none" /><line stroke="#e1ed5e" stroke-width="0.3" x1="15.007084014347285" x2="10.007500721073583" y1="101.09737516637583" y2="101.16192664675087" /><path d="M 14.007167355692545 101.11028546245083 a86.0,86.0 0 0,1 10.666146001902534,-42.60595125391555" fill="none" id="id22" stroke="none" /><text fill="#e1ed5e" style="font-size:6.75px; font-family:Arial;" text-anchor="middle"><textPath startOffset="22.20632615414155" xlink:href="#id22">October</textPath></text><path d="M 79.00019446554 99.90962569577889 l -14.55068853289349 -0.06262002521597623 a35.55082327735569,35.55082327735569 0 0,0 0.007900735199751015,-0.6119206481363745 l 14.547454790576024 0.3130769314128226" fill="#ff5207" stroke="none" /><path d="M 79.12142395522702 97.74499172005258 l -27.76112460471156 -2.998363763411404 a48.92257553622266,48.92257553622266 0 0,0 0.0976346605180166,-0.8364741468359848 l 27.705399591189956 3.4757816485722506" fill="#e4ff1a" stroke="none" /><path d="M 79.16333360222342 97.38593545837743 l -31.316056453364176 -3.928756702028161 a52.56153546667245,52.56153546667245 0 0,0 0.12035090099529415,-0.896754003363172 l 31.243789553311046 4.467229047455992" fill="#b3ff20" stroke="none" /><path d="M 79.21141760316559 97.0276538004421 l -13.852351871005403 -1.980605731201349 a34.99322877039515,34.99322877039515 0 0,0 0.09038935382496142,-0.5955529058478956 l 13.81620662374114 2.2187577494413366" fill="#ff4906" stroke="none" /><path d="M 79.26566170972629 96.67025291283419 l -28.647805838434746 -4.6005783598585515 a50.014859996247694,50.014859996247694 0 0,0 0.1438240138809554,-0.8488574713360406 l 28.564369963033567 5.09302161951042" fill="#d5ff1c" stroke="none" /><path d="M 79.46518482838121 95.60439243477599 l -13.15211018473631 -2.815292689197809 a34.45005112396586,34.45005112396586 0 0,0 0.12911487578680367,-0.5787966712692914 l 13.101700921947469 3.0412675300170595" fill="#ff4006" stroke="none" /><path d="M 79.54389044137918 95.25157060432595 l -13.753848752935284 -3.19264909756848 a35.119538369891,35.119538369891 0 0,0 0.1417611868451681,-0.5876916400230559 l 13.6968547658293 3.428925969250933" fill="#ff4b07" stroke="none" /><path d="M 79.62865764111835 94.90015583598534 l -13.75404247137276 -3.4432425705446144 a35.17849088245771,35.17849088245771 0 0,0 0.1521112386378147,-0.5861466525508884 l 13.692734900864638 3.6794856486443663" fill="#ff4c07" stroke="none" /><path d="M 79.71946130924805 94.55025226153421 l -10.269634035721793 -2.7596365024843927 a31.633953961415283,31.633953961415283 0 0,0 0.14583739251236566,-0.5246546949012623 l 10.220609872643069 2.9360025008045976" fill="#ff1202" stroke="none" /><path d="M 79.81627453868168 94.20196356495316 l -14.130621467654926 -4.059203950050512 a35.70209508098271,35.70209508098271 0 0,0 0.1747602302420075,-0.589204618411883 l 14.058655340301213 4.301837955208934" fill="#ff5507" stroke="none" /><path d="M 80.14247586403 93.16781622104843 l -13.796927915752912 -4.746973815059979 a35.590715551793444,35.590715551793444 0 0,0 0.2043024338830047,-0.5775904922488825 l 13.713172401060097 4.983761933735473" fill="#ff5307" stroke="none" /><line stroke="#e1ed5e" stroke-width="0.3" x1="26.266209847984243" x2="21.928928074336255" y1="57.711370442889674" y2="55.22380399835377" /><path d="M 25.398753493254645 57.213857153982495 a86.0,86.0 0 0,1 29.58750427330803,-30.492523968695096" fill="none" id="id23" stroke="none" /><text fill="#e1ed5e" style="font-size:6.75px; font-family:Arial;" text-anchor="middle"><textPath startOffset="21.46611528233685" xlink:href="#id23">November</textPath></text><line stroke="#e1ed5e" stroke-width="0.3" x1="56.762969772571076" x2="54.21961505331055" y1="26.818313649435495" y2="22.513508569990535" /><path d="M 56.25429882871897 25.957352633546506 a86.0,86.0 0 0,1 42.265352541879196,-11.944610805530505" fill="none" id="id24" stroke="none" /><text fill="#e1ed5e" style="font-size:6.75px; font-family:Arial;" text-anchor="middle"><textPath startOffset="22.20632615414155" xlink:href="#id24">December</textPath></text></svg>