<?xml version="1.0" encoding="utf-8" ?>
<svg baseProfile="full" height="200mm" version="1.1" viewBox="0,0,200,200" width="200mm" xmlns="http://www.w3.org/2000/svg" xmlns:ev="http://www.w3.org/2001/xml-events" xmlns:xlink="http://www.w3.org/1999/xlink"><defs /><rect fill="#1a1a1a" height="200" width="200" x="0" y="0" /><text alignment-baseline="middle" fill="#e1ed5e" style="dominant-baseline: central; font-size:9.0px; font-family:Arial;" text-anchor="middle" x="100.0" y="100.0">2023</text><line stroke="#e1ed5e" stroke-width="0.3" x1="100.0" x2="100.0" y1="15.0" y2="10.0" /><path d="M 100.0 14.0 a86.0,86.0 0 0,1 42.46469731375804,11.215312516191453" fill="none" id="id61" stroke="none" /><text fill="#e1ed5e" style="font-size:6.75px; font-family:Arial;" text-anchor="middle"><textPath startOffset="22.20632615414155" xlink:href="#id61">January</textPath></text><line stroke="#e1ed5e" stroke-width="0.3" x1="143.23703022742887" x2="145.7803849466894" y1="26.81831364943548" y2="22.513508569990506" /><path d="M 143.74570117128098 25.957352633546492 a86.0,86.0 0 0,1 28.547481713284135,27.462654790039103" fill="none" id="id62" stroke="none" /><text fill="#e1ed5e" style="font-size:6.75px; font-family:Arial;" text-anchor="middle"><textPath startOffset="19.985693538727396" xlink:href="#id62">February</textPath></text><path d="M 110.68208982089419 81.91981866633111 l 10.767726564147894 -18.22512748866406 a42.16835391187313,42.16835391187313 0 0,0 0.6217581893464666,0.3746023521813822 l -11.079846819711998 18.037078527024065" fill="#ff1e03" stroke="none" /><path d="M 111.60114157652 82.49532879139004 l 17.80971084845305 -26.872625479681556 a53.238545263034695,53.238545263034695 0 0,0 0.7595246779728587,0.5128344530123802 l -18.269640220832454 26.562079114370505" fill="#fff116" stroke="none" /><path d="M 112.48926042617603 83.11751280151076 l 18.69954133620183 -25.277298771381897 a52.442243548481486,52.442243548481486 0 0,0 0.721090453817317,0.5431103800423204 l -19.13187794377753 24.95167180183373" fill="#ffe315" stroke="none" /><path d="M 113.6212207817346 84.01681056812373 l 20.871019694501133 -24.490129538238875 a53.17710222950436,53.17710222950436 0 0,0 0.691571256612982,0.5997237788784514 l -21.289484749760877 24.12724076594075" fill="#fff016" stroke="none" /><path d="M 114.42810811169701 84.74124197986012 l 21.476680911188055 -22.713128745819425 a52.259143308561065,52.259143308561065 0 0,0 0.6483039288733393,0.6236678659256227 l -21.864468083673813 22.3400777931315" fill="#ffe015" stroke="none" /><path d="M 115.68641384162765 86.03803664274999 l 24.348409524026835 -21.671722103852503 a53.596143718181295,53.596143718181295 0 0,0 0.6074437278941975,0.6944131882489634 l -24.717845115498882 21.249393359400592" fill="#fff717" stroke="none" /><path d="M 116.15771136456269 86.58626213691792 l 26.863176103591375 -22.301153566443695 a55.91377494294576,55.91377494294576 0 0,0 0.608399137531591,0.7458254046899531 l -27.243073733199374 21.83544399214564" fill="#dfff1b" stroke="none" /><path d="M 116.60985879189232 87.15038557335679 l 26.564207719106626 -20.5504351973417 a54.58537655801978,54.58537655801978 0 0,0 0.5685302459602662,0.7481191613173638 l -26.914013905291004 20.090131260143302" fill="#f5ff19" stroke="none" /><path d="M 117.04232023915458 87.72973835380427 l 26.440577944918104 -19.03689197879265 a53.580782959798704,53.580782959798704 0 0,0 0.532458724987483,0.7531251057717335 l -26.764349289709468 18.578940372689125" fill="#fff717" stroke="none" /><path d="M 117.65298651832404 88.62581576622439 l 29.202475415750566 -18.815758745199815 a55.739276727719584,55.739276727719584 0 0,0 0.5127280985240692,0.811012719945882 l -29.52203111052059 18.310298377539727" fill="#e2ff1b" stroke="none" /><line stroke="#e1ed5e" stroke-width="0.3" x1="172.23445277983987" x2="176.4835382374775" y1="55.19839476539836" y2="52.563006222186495" /><path d="M 173.08426987136738 54.67131705675599 a86.0,86.0 0 0,1 12.851231095245387,41.99856678651699" fill="none" id="id63" stroke="none" /><text fill="#e1ed5e" style="font-size:6.75px; font-family:Arial;" text-anchor="middle"><textPath startOffset="22.20632615414155" xlink:href="#id63">March</textPath></text><path d="M 118.03404312379186 89.2402003453031 l 27.78027785196669 -16.574775938326905 a53.34914272338931,53.34914272338931 0 0,0 0.46373189902173595,0.7926681363318021 l -28.061469425458757 16.09412838964121" fill="#fff316" stroke="none" /><path d="M 118.3937258080291 89.86733742301442 l 28.19226772934649 -15.530444411474924 a53.18693311486921,53.18693311486921 0 0,0 0.4348459830110606,0.8057035648602134 l -28.455421811576016 15.042859863282253" fill="#fff016" stroke="none" /><path d="M 118.56541770881063 90.18545643968196 l 33.74291013674316 -17.838072193323093 a59.16779799871262,59.16779799871262 0 0,0 0.4682442803844659,0.9044989105417396 l -34.04496385028774 17.25460056052101" fill="#a9ff21" stroke="none" /><path d="M 118.89224826269711 90.83032412892265 l 36.733146060309956 -17.829060809192274 a61.83135350225291,61.83135350225291 0 0,0 0.4564973678189593,0.9614998779700726 l -37.03460162197067 17.194118515581664" fill="#7fff26" stroke="none" /><path d="M 119.196687751892 91.48605970444005 l 34.83520893733087 -15.449794928636063 a59.10758382585289,59.10758382585289 0 0,0 0.4044909006917888,0.9336207674502136 l -35.095990547865334 14.847875016599247" fill="#aaff21" stroke="none" /><path d="M 119.47837535516314 92.15188598940014 l 35.379997134078266 -14.255103217802057 a59.14383521563579,59.14383521563579 0 0,0 0.37234269048766105,0.9475715339324006 l -35.62013337444763 13.643982678973872" fill="#aaff21" stroke="none" /><path d="M 119.61058180528143 92.48833698450437 l 35.32922796818402 -13.532553890020269 a58.832319035636964,58.832319035636964 0 0,0 0.3541016749482381,0.9488164405847128 l -35.55693423163389 12.922414312406223" fill="#afff20" stroke="none" /><path d="M 119.97218684219823 93.5106431181261 l 35.797769499475194 -11.63140039158508 a58.64000234068699,58.64000234068699 0 0,0 0.3036561279223459,0.9626729070336301 l -35.992681111165744 11.013477318125032" fill="#b2ff20" stroke="none" /><path d="M 120.08093135843002 93.85539295169968 l 36.42687293847805 -11.146336602129184 a59.09406635847621,59.09406635847621 0 0,0 0.289262930349576,0.9752508008332551 l -36.613341765939325 10.5176564145494" fill="#aaff21" stroke="none" /><path d="M 120.28053869075195 94.5502522615342 l 30.465311529656116 -8.186580501735355 a52.546082275147754,52.546082275147754 0 0,0 0.22720842935372795,0.8755267624513521 l -30.601716290880145 7.660957313735152" fill="#ffe515" stroke="none" /><path d="M 120.37134235888165 94.90015583598534 l 37.13845078821337 -9.297389841874558 a59.284539762420266,59.284539762420266 0 0,0 0.23930402016602242,0.9920696574661735 l -37.29298760864021 8.656734952748979" fill="#a7ff21" stroke="none" /><path d="M 120.53481517161879 95.60439243477599 l 37.71945978331757 -8.074089851505759 a59.57393645034818,59.57393645034818 0 0,0 0.2060143433399769,1.0045991026305787 l -37.852853422572544 7.423615092711769" fill="#a3ff22" stroke="none" /><path d="M 120.67395015179393 96.31383870115 l 37.67077048403274 -6.716691064675551 a59.26487799169056,59.26487799169056 0 0,0 0.17042360281663316,1.0058497509507829 l -37.7808059483696 6.06725552540893" fill="#a8ff21" stroke="none" /><path d="M 120.78858239683441 97.02765380044208 l 43.40858914842535 -6.2065489854248215 a64.85004973959857,64.85004973959857 0 0,0 0.14848808822753465,1.1064087303758265 l -43.508993235710726 5.45842191298433" fill="#53ff2b" stroke="none" /><path d="M 120.83666639777658 97.38593545837742 l 37.80631380786819 -4.742992112459503 a59.10266838317047,59.10266838317047 0 0,0 0.11795104611831528,1.010532531651767 l -37.8823552069901 4.091515842482883" fill="#aaff21" stroke="none" /><line stroke="#e1ed5e" stroke-width="0.3" x1="184.98032266829074" x2="189.97916517819016" y1="98.17113171792111" y2="98.06355123074" /><path d="M 185.9800911702706 98.14961562048488 a86.0,86.0 0 0,1 -9.607161424134198,41.387399972396054" fill="none" id="id64" stroke="none" /><text fill="#e1ed5e" style="font-size:6.75px; font-family:Arial;" text-anchor="middle"><textPath startOffset="21.466115282336823" xlink:href="#id64">April</textPath></text><path d="M 120.9764740272857 100.99374915477107 l 38.02929545768343 1.8016173818561487 a59.07194686640529,59.07194686640529 0 0,0 -0.056859981254668075,1.0152731616769872 l -37.992649125541234 -2.455962259868559" fill="#abff21" stroke="none" /><path d="M 120.95626037817324 101.35467743843564 l 38.03924856929865 2.4589745919336625 a59.11864357188835,59.11864357188835 0 0,0 -0.07438657191741535,1.0149456734065847 l -37.9912854387169 -3.1133934018370177" fill="#aaff21" stroke="none" /><path d="M 120.8583938346157 102.4346265915055 l 36.96509200546179 4.314627323058361 a58.21604540932764,58.21604540932764 0 0,0 -0.12474448481127141,0.9943362811392682 l -36.88534601140367 -4.950281358485024" fill="#b9ff1f" stroke="none" /><path d="M 120.49622156327973 104.57218783832717 l 37.27316270829447 8.314698428912948 a59.18930306044824,59.18930306044824 0 0,0 -0.23038572072028746,0.9924956551084921 l -37.124516421643634 -8.955062741370005" fill="#a9ff21" stroke="none" /><path d="M 120.41448212921028 104.9243191809786 l 31.37252792306867 7.567585600729126 a53.27233893147638,53.27233893147638 0 0,0 -0.22270041043916064,0.8895774377835735 l -31.237616198334447 -8.106490877910096" fill="#fff216" stroke="none" /><path d="M 120.23288151984713 105.62410040840565 l 36.93930522432385 10.267957205924999 a59.33983849259757,59.33983849259757 0 0,0 -0.28202632416909057,0.9817706328104039 l -36.75708626326866 -10.902285314239984" fill="#a6ff21" stroke="none" /><path d="M 120.02730092923936 106.31721596034902 l 30.662080160463095 9.671746724711307 a53.15129615542161,53.15129615542161 0 0,0 -0.2827338880519502,0.8701654326590444 l -30.4910540213949 -10.198111057348147" fill="#fff016" stroke="none" /><path d="M 119.79798401119884 107.00284435728193 l 35.85857575719037 12.68371692589327 a59.03569547662239,59.03569547662239 0 0,0 -0.3471179107641115,0.9551194092122683 l -35.63493358542104 -13.299084132111668" fill="#abff21" stroke="none" /><path d="M 119.67450827220406 107.3425965602758 l 59.02352481661219 22.027789680827375 a84.0,84.0 0 0,0 -0.517222881625973,1.3503057326674246 l -58.635607655392704 -23.040518980327946" fill="#4dd2ff" stroke="none" /><path d="M 119.41010516605496 108.01547362559984 l 35.34913060904456 14.597552236872728 a59.244601790625545,59.244601790625545 0 0,0 -0.3973592396124755,0.9392398644220604 l -35.09262038823977 -15.20386662696095" fill="#a8ff21" stroke="none" /><path d="M 119.26925614724726 108.34839909993367 l 35.04131538767218 15.181638751775338 a59.18868863011294,59.18868863011294 0 0,0 -0.4130776191337045,0.931380981839865 l -34.7747966838072 -15.782568070107892" fill="#a9ff21" stroke="none" /><path d="M 119.12269723197855 108.67885076344098 l 34.68695469582018 15.742700916679949 a59.09222306747031,59.09222306747031 0 0,0 -0.42834934753484877,0.9226263868431666 l -34.41083073144549 -16.337447370801947" fill="#aaff21" stroke="none" /><line stroke="#e1ed5e" stroke-width="0.3" x1="174.80103733775053" x2="179.2010983576182" y1="140.37084112569926" y2="142.7455964860345" /><path d="M 175.68104954172406 140.8457921977663 a86.0,86.0 0 0,1 -30.038265399797805,32.042727171017184" fill="none" id="id65" stroke="none" /><text fill="#e1ed5e" style="font-size:6.75px; font-family:Arial;" text-anchor="middle"><textPath startOffset="22.206326154141568" xlink:href="#id65">May</textPath></text><path d="M 117.35343817320211 111.8261652097733 l 31.419786442568096 21.412217084416607 a59.022178009245714,59.022178009245714 0 0,0 -0.5793703920067059,0.8346262611713646 l -31.046555143399257 -21.94988460777499" fill="#acff21" stroke="none" /><path d="M 116.93607887273984 112.41649034213515 l 30.627455174858216 22.454164522988144 a58.976710164433264,58.976710164433264 0 0,0 -0.6072880524022732,0.8135615877880185 l -30.23640585576085 -22.97803899028548" fill="#acff20" stroke="none" /><path d="M 116.498646956653 112.99209946851258 l 29.92956316810354 23.56846975092891 a59.09529521914683,59.09529521914683 0 0,0 -0.6362089395656916,0.7937684737046482 l -29.519436316483 -24.080166058211805" fill="#aaff21" stroke="none" /><path d="M 116.0416608686014 113.55231037782055 l 29.036260400700943 24.53040345290803 a59.01111826321025,59.01111826321025 0 0,0 -0.6622100970157196,0.7702999485730156 l -28.609707794114446 -25.02658050064257" fill="#acff21" stroke="none" /><path d="M 115.80600337817218 113.82643327865902 l 28.628668708694146 25.043166718807036 a59.03630990695769,59.03630990695769 0 0,0 -0.6756597445502578,0.7591108856219886 l -28.19335011449555 -25.53225177416989" fill="#abff21" stroke="none" /><path d="M 115.32070863581623 114.36230785411682 l 27.805261746475665 26.065878456405063 a59.11249926853531,59.11249926853531 0 0,0 -0.7022943475769197,0.7363528156985996 l -27.35246084751978 -26.54063838868617" fill="#aaff21" stroke="none" /><path d="M 115.07121518719521 114.62390073753431 l 28.15016194979716 27.31466368080975 a60.22400374509919,60.22400374509919 0 0,0 -0.7283071594170701,0.7377713073319437 l -27.675814165324553 -27.79517548212236" fill="#98ff23" stroke="none" /><path d="M 114.81725581225074 114.88116024355365 l 22.60869245154415 22.706200090740328 a53.04254198607291,53.04254198607291 0 0,0 -0.6525496784862319,0.6386572039001757 l -22.214492820682125 -23.092007397563076" fill="#ffee16" stroke="none" /><path d="M 114.29624159901734 115.38237550388516 l 21.771463484909983 23.42551531984664 a52.98048452220726,52.98048452220726 0 0,0 -0.6733578661162362,0.6150964455362721 l -21.36500606932688 -23.796804531969496" fill="#ffed16" stroke="none" /><path d="M 114.0293411484842 115.62618273729858 l 21.47994010647287 23.924820541286707 a53.15252501609222,53.15252501609222 0 0,0 -0.6860665889493187,0.6053739971532743 l -21.064931164616965 -24.29101768021227" fill="#fff016" stroke="none" /><path d="M 113.48314897796784 116.09983520530334 l 25.24549814781654 30.144913515366074 a60.31985487740651,60.31985487740651 0 0,0 -0.8017653970539698,0.659798337865091 l -24.72286262221788 -30.575006972088346" fill="#97ff23" stroke="none" /><path d="M 112.92097659922987 116.55440617244103 l 23.863241994750673 30.573679747698023 a59.784071625021944,59.784071625021944 0 0,0 -0.8166825068050518,0.626197321089495 l -23.333430759452128 -30.979916410614887" fill="#9fff22" stroke="none" /><path d="M 112.34349029814194 116.9893568818739 l 22.216693463061024 30.578655215207288 a58.797296506524674,58.797296506524674 0 0,0 -0.82392559801126,0.5878490375996045 l -21.68704053720088 -30.956548514651114" fill="#afff20" stroke="none" /><path d="M 112.04921762599082 117.19931262002967 l 22.558174505069776 32.200023893084406 a60.31555386505939,60.31555386505939 0 0,0 -0.855455831850742,0.5883903216096767 l -22.000561788596148 -32.58355500405917" fill="#97ff23" stroke="none" /><path d="M 111.45004920935366 117.60387380957326 l 20.847478268151136 32.05194754801142 a59.23538533559599,59.23538533559599 0 0,0 -0.8595285654532615,0.5485917976588173 l -20.29266790065094 -32.40605377449405" fill="#a8ff21" stroke="none" /><path d="M 111.1453310114006 117.79835938074945 l 20.8532280272996 33.30123136755124 a60.29159108198257,60.29159108198257 0 0,0 -0.8843363867822072,0.5432316374275431 l -20.276912440585082 -33.65525147180716" fill="#97ff23" stroke="none" /><line stroke="#e1ed5e" stroke-width="0.3" x1="143.8653032363475" x2="146.44561519142675" y1="172.8068346515853" y2="177.08958963109032" /><path d="M 144.38136562736335 173.6633856474863 a86.0,86.0 0 0,1 -40.68145358897372,12.25698825130547" fill="none" id="id66" stroke="none" /><text fill="#e1ed5e" style="font-size:6.75px; font-family:Arial;" text-anchor="middle"><textPath startOffset="21.466115282336833" xlink:href="#id66">June</textPath></text><path d="M 110.21172684928248 118.3499491758327 l 21.389710490377833 38.43621222710115 a64.98706770437124,64.98706770437124 0 0,0 -0.9821625149007188,0.5355533133791502 l -20.724925163608468 -38.79870619224007" fill="#51ff2b" stroke="none" /><path d="M 109.89434966115114 118.52300852407294 l 20.679763991300558 38.714160890298594 a64.8912165720639,64.8912165720639 0 0,0 -0.989773667340738,0.5178028031602367 l -20.010299421433324 -39.06439311240355" fill="#52ff2b" stroke="none" /><path d="M 109.2508944713604 118.85261126421891 l 14.164061901992204 28.865268519415284 a53.15313944642753,53.15313944642753 0 0,0 -0.8248540381718026,0.39598006461981566 l -13.665095195820168 -29.10480286053466" fill="#fff016" stroke="none" /><path d="M 108.59647513512805 119.15986991738527 l 16.387832448629762 36.52528891296265 a61.03320849669378,61.03320849669378 0 0,0 -0.962230166312287,0.4218134275733497 l -15.75668160765972 -36.80196689383046" fill="#8cff24" stroke="none" /><path d="M 107.93186726928326 119.44442032107085 l 19.314925309281943 47.349194512896126 a72.13719351629705,72.13719351629705 0 0,0 -1.1537791874101673,0.4591125499591984 l -18.49702504582991 -47.67465390726139" fill="#38ff80" stroke="none" /><path d="M 107.59598834532513 119.57807347666477 l 13.343318751144892 34.391373848440516 a57.889168470946224,57.889168470946224 0 0,0 -0.9320977026405861,0.3524395947086917 l -12.749350827744031 -34.61596169325584" fill="#beff1f" stroke="none" /><path d="M 106.91757812671514 119.82793768551818 l 12.567534045939583 36.02247453645271 a59.151822809994734,59.151822809994734 0 0,0 -0.9642599666569203,0.3271293343182982 l -11.945604346345437 -36.23346685766913" fill="#a9ff21" stroke="none" /><path d="M 106.57524785965236 119.94407469862006 l 10.498695833487883 31.84469671873995 a54.53069225817777,54.53069225817777 0 0,0 -0.8939882562812055,0.28622680844259585 l -9.948986232115736 -32.02069637384225" fill="#f6ff19" stroke="none" /><path d="M 106.2309692047433 120.05430185196036 l 10.157001208492709 32.69019015384948 a55.23175727075897,55.23175727075897 0 0,0 -0.9103377808119802,0.2742773057439646 l -9.592788453240482 -32.860182828699166" fill="#eaff1a" stroke="none" /><path d="M 105.53697534728816 120.25689768951611 l 10.015902067004808 36.642948670323996 a58.98715548013342,58.98715548013342 0 0,0 -0.9817416472224183,0.2592868919424199 l -9.383669976970891 -36.80992691157" fill="#acff20" stroke="none" /><path d="M 105.18746579009965 120.34920634021253 l 9.389437537975743 36.83255169479103 a59.01050383287495,59.01050383287495 0 0,0 -0.9864496921989954,0.24244533414074113 l -8.754034561033537 -36.988718287245796" fill="#acff21" stroke="none" /><path d="M 104.48393922423573 120.51570834832081 l 8.13820931469924 37.23536837331139 a59.11434255954122,59.11434255954122 0 0,0 -0.9959599595025905,0.20871309305107005 l -7.496057893767272 -37.369937447089" fill="#aaff21" stroke="none" /><path d="M 103.7750983002368 120.6578951692458 l 7.854718398523621 42.98217857014972 a64.69398443443151,64.69398443443151 0 0,0 -1.097182337899713,0.1907592132057095 l -7.113687089151859 -43.11101636187644" fill="#55ff2b" stroke="none" /><path d="M 103.41894727170886 120.7198165907248 l 5.2052466874413525 31.54531149565115 a52.97188249751302,52.97188249751302 0 0,0 -0.900936031678826,0.1407076794629285 l -4.661474792154009 -31.630237482461183" fill="#ffec16" stroke="none" /><path d="M 103.06178313531738 120.77559828337769 l 6.389987449300386 43.3589860598435 a64.82731581719236,64.82731581719236 0 0,0 -1.1053718240113493,0.15319446263697373 l -5.642687034102206 -43.46255508797308" fill="#53ff2b" stroke="none" /><path d="M 101.98527174616119 120.90594882070398 l 3.1792926372048282 33.479612696834565 a54.63022997249693,54.63022997249693 0 0,0 -0.9369232260800529,0.08084167831351977 l -2.6025250933832336 -33.529378627426745" fill="#f5ff19" stroke="none" /><path d="M 101.62511606390274 120.93702456842531 l 2.9602807626676904 38.13848895725389 a59.2532038153198,59.2532038153198 0 0,0 -1.0175672304266803,0.07017739388576055 l -2.30335077146208 -38.18379469565594" fill="#a8ff21" stroke="none" /><line stroke="#e1ed5e" stroke-width="0.3" x1="102.19456741930631" x2="102.32365962044197" y1="184.97166512339345" y2="189.96999836594603" /><path d="M 102.22038585953345 185.97133177190398 a86.0,86.0 0 0,1 -42.740103519485714,-10.115201625700543" fill="none" id="id67" stroke="none" /><text fill="#e1ed5e" style="font-size:6.75px; font-family:Arial;" text-anchor="middle"><textPath startOffset="22.20632615414155" xlink:href="#id67">July</textPath></text><path d="M 100.54218724476979 120.99299961872073 l 0.8256386371727059 31.96798110351512 a52.978641231201365,52.978641231201365 0 0,0 -0.9118388816985957,0.015698133275257112 l -0.27524006558144226 -31.977456714069532" fill="#ffed16" stroke="none" /><path d="M 99.45781275523022 120.99299961872073 l -0.9947132364691993 38.51439663211027 a59.52723974486511,59.52723974486511 0 0,0 -1.0240942971811466,-0.035271878251599914 l 1.657527885324989 -38.49156795543258" fill="#a3ff21" stroke="none" /><path d="M 98.01472825383883 120.90594882070398 l -3.1172565255277 32.826340026095735 a53.97401837439289,53.97401837439289 0 0,0 -0.924157030363926,-0.09579265484733321 l 3.681846152497219 -32.767818002792644" fill="#fffe18" stroke="none" /><path d="M 97.65516085044442 120.86867818915974 l -3.627441054317174 32.28362168340579 a53.486775118497285,53.486775118497285 0 0,0 -0.9140446104498072,-0.11067807299811809 l 4.18261308781837 -32.21639808168233" fill="#fff517" stroke="none" /><line stroke="#e1ed5e" stroke-width="0.3" x1="58.666819895761336" x2="56.23545636021788" y1="174.27360380694188" y2="178.64263932499728" /><path d="M 58.180547188652646 175.14741091055294 a86.0,86.0 0 0,1 -31.652253787137756,-30.449443065178592" fill="none" id="id68" stroke="none" /><text fill="#e1ed5e" style="font-size:6.75px; font-family:Arial;" text-anchor="middle"><textPath startOffset="22.20632615414155" xlink:href="#id68">August</textPath></text><path d="M 88.54995079064634 117.60387380957326 l -18.253813308855218 28.064318341102997 a54.47846567967699,54.47846567967699 0 0,0 -0.7817019087196819,-0.5180694001971518 l 18.73418991631486 -27.74595091981453" fill="#f7ff18" stroke="none" /><path d="M 88.24862548938628 117.40417183066458 l -17.924817349225368 26.54724354988696 a53.03209667037276,53.03209667037276 0 0,0 -0.752154518442089,-0.517338736295534 l 18.37912875229035 -26.234764024226326" fill="#ffed16" stroke="none" /><path d="M 87.65650970185807 116.9893568818739 l -19.748934401465718 27.182076258748623 a54.598894025396454,54.598894025396454 0 0,0 -0.7555837715382983,-0.5589628107272395 l 20.21390314342258 -26.838103499281615" fill="#f5ff19" stroke="none" /><path d="M 87.07902340077011 116.55440617244103 l -20.63016247352024 26.431445515539448 a54.52946339750717,54.52946339750717 0 0,0 -0.7349598114670228,-0.5838965240760918 l 21.08207977770462 -26.072415077458224" fill="#f6ff19" stroke="none" /><path d="M 86.51685102203217 116.09983520530335 l -21.397960199951825 25.550680594852206 a54.32731581719235,54.32731581719235 0 0,0 -0.7117771498195692,-0.6065919287517366 l 21.83460282634845 -25.17856427587752" fill="#faff18" stroke="none" /><path d="M 86.24171649860922 115.8653595955263 l -21.861976086284503 25.210129740576907 a54.369097079992976,54.369097079992976 0 0,0 -0.7017695013855337,-0.6192299916319117 l 22.292687940576624 -24.830076607172707" fill="#f9ff18" stroke="none" /><path d="M 84.67929136418377 114.36230785411682 l -24.19495724203234 22.68141981467481 a54.16387734800164,54.16387734800164 0 0,0 -0.6317922053938939,-0.6856856584790542 l 24.581795855421962 -22.261582901394412" fill="#fdff18" stroke="none" /><path d="M 84.43433777217949 114.09645910891817 l -24.867805448700423 22.520596779339307 a54.54973959857218,54.54973959857218 0 0,0 -0.6243117698335443,-0.7014208916916245 l 25.251776068182306 -22.089201717906818" fill="#f6ff19" stroke="none" /><path d="M 83.95833913139862 113.55231037782056 l -25.608551075304597 21.634607248062142 a54.52393352448944,54.52393352448944 0 0,0 -0.5995140167782631,-0.7221532537006833 l 25.977161091976395 -21.190592737247698" fill="#f6ff19" stroke="none" /><path d="M 83.72743513129214 113.27417163493432 l -26.055243502839172 21.254287633032387 a54.6247000994792,54.6247000994792 0 0,0 -0.5880793453270144,-0.7337194046284741 l 26.41724076022105 -20.802640394825655" fill="#f5ff19" stroke="none" /><path d="M 83.06392112726016 112.41649034213515 l -27.30792821691789 20.020491727565265 a54.8606413482357,54.8606413482357 0 0,0 -0.5517940979038894,-0.7663937407128627 l 27.648502107197388 -19.547464381401266" fill="#f1ff19" stroke="none" /><path d="M 82.85270091963577 112.12312394758628 l -27.378584414376398 19.356632832340427 a54.530077827842476,54.530077827842476 0 0,0 -0.5352752750385564,-0.7711039564095272 l 27.70772059657709 -18.882487613743887" fill="#f6ff19" stroke="none" /><path d="M 82.44556493220864 111.52570212397912 l -28.062031551402924 18.424666781137663 a54.5700157996372,54.5700157996372 0 0,0 -0.5087877951907972,-0.7896499568311924 l 28.375024209970768 -17.938895224385025" fill="#f6ff19" stroke="none" /><path d="M 82.05923443525364 110.91462005526583 l -28.71530339557274 17.469523538628998 a54.61179706243782,54.61179706243782 0 0,0 -0.4816737727833622,-0.8073129490085631 l 29.011758044054332 -16.972648495734322" fill="#f5ff19" stroke="none" /><line stroke="#e1ed5e" stroke-width="0.3" x1="26.63291911575756" x2="22.317208475507996" y1="142.92168965132927" y2="145.44649492493687" /><path d="M 25.769776987707644 143.4266507060508 a86.0,86.0 0 0,1 -11.730757126820373,-40.83630448921669" fill="none" id="id69" stroke="none" /><text fill="#e1ed5e" style="font-size:6.75px; font-family:Arial;" text-anchor="middle"><textPath startOffset="21.46611528233685" xlink:href="#id69">September</textPath></text><path d="M 81.51974371655577 109.97397251340807 l -29.54148288507157 15.943823168999062 a54.56940136930189,54.56940136930189 0 0,0 -0.4390173090006201,-0.8304553006365463 l 29.811552702297075 -15.43295285327639" fill="#f6ff19" stroke="none" /><path d="M 81.18737489456691 109.33194174019688 l -28.731388766264743 14.252112322394431 a53.07203464216748,53.07203464216748 0 0,0 -0.39891656348080745,-0.8218862759536124 l 28.97245858636027 -13.755437090475533" fill="#ffee16" stroke="none" /><path d="M 81.02952815118164 109.00673069616217 l -29.27329525737845 13.89826721620904 a53.40505588390192,53.40505588390192 0 0,0 -0.3871240521246399,-0.8338307681040115 l 29.508193926342916 -13.392316380826202" fill="#fff417" stroke="none" /><path d="M 80.87730276802145 108.67885076344099 l -30.536001136101962 13.858787469024492 a54.53376440985429,54.53376440985429 0 0,0 -0.38059092178229426,-0.8581320555500843 l 30.770033142615535 -13.331107076981711" fill="#f6ff19" stroke="none" /><path d="M 80.45479744820244 107.68017299344265 l -31.185514973292083 12.254165657774248 a54.50672947510095,54.50672947510095 0 0,0 -0.3356205677037924,-0.8761993961806933 l 31.391829820589386 -11.715542694760398" fill="#f7ff19" stroke="none" /><path d="M 80.20201598880116 107.00284435728193 l -31.21232291168081 11.04026749673539 a54.10734975715373,54.10734975715373 0 0,0 -0.30302478308585523,-0.8807318624042785 l 31.397738525709897 -10.501362931241815" fill="#feff18" stroke="none" /><path d="M 80.0844068197444 106.66101706037122 l -31.57604537553019 10.56099986788157 a54.295365439756566,54.295365439756566 0 0,0 -0.2888196692154923,-0.8888955411569268 l 31.75315729576193 -10.015905426746839" fill="#faff18" stroke="none" /><path d="M 79.97269907076064 106.31721596034903 l -31.02655383294208 9.78671273581019 a53.533471823980335,53.533471823980335 0 0,0 -0.2696384806559301,-0.8811941559616633 l 31.190419086104143 -9.251191607296478" fill="#fff617" stroke="none" /><path d="M 79.76711848015287 105.62410040840567 l -32.26617143306418 8.968973982098168 a54.48952542571245,54.48952542571245 0 0,0 -0.24341748568618343,-0.9058470177656295 l 32.41577699509214 -8.412236031157" fill="#f7ff18" stroke="none" /><path d="M 79.67330655649465 105.27499134158121 l -36.61219424997463 9.501250569930393 a58.82494587161332,58.82494587161332 0 0,0 -0.24591260403491697,-0.9822986126728628 l 36.7703181683046 -8.869624117860138" fill="#afff20" stroke="none" /><path d="M 79.50377843672027 104.57218783832718 l -32.82825679726897 7.323152514649959 a54.63514541517935,54.63514541517935 0 0,0 -0.19685813320330997,-0.9196556608787733 l 32.94944896919672 -6.756983034355022" fill="#f5ff19" stroke="none" /><path d="M 79.4281124754447 104.21870165774334 l -32.897083289091505 6.746244341505129 a54.58168997600796,54.58168997600796 0 0,0 -0.1808215157110604,-0.9220050129724492 l 33.00833473777823 -6.178975601464725" fill="#f5ff19" stroke="none" /><path d="M 79.04373962182676 101.35467743843564 l -19.68703868635925 1.2726310256097952 a40.728129205921945,40.728129205921945 0 0,0 -0.03920305298932291,-0.6999968462458068 l 19.706028090236106 -0.9335624630285508" fill="#ff0000" stroke="none" /><line stroke="#e1ed5e" stroke-width="0.3" x1="15.007084014347285" x2="10.007500721073583" y1="101.09737516637583" y2="101.16192664675087" /><path d="M 14.007167355692545 101.11028546245083 a86.0,86.0 0 0,1 10.666146001902534,-42.60595125391555" fill="none" id="id70" stroke="none" /><text fill="#e1ed5e" style="font-size:6.75px; font-family:Arial;" text-anchor="middle"><textPath startOffset="22.20632615414155" xlink:href="#id70">October</textPath></text><path d="M 79.46518482838121 95.60439243477599 l -30.2638883202531 -6.478177443615732 a51.949470419568144,51.949470419568144 0 0,0 0.19470071020436316,-0.8728051068734419 l 30.147893223046697 6.998160720039134" fill="#ffda14" stroke="none" /><path d="M 79.54389044137918 95.25157060432595 l -21.134229171527306 -4.9058397328880075 a42.696149569898765,42.696149569898765 0 0,0 0.17234443041360648,-0.7144789290543676 l 21.046651940852882 5.268903893601772" fill="#ff2904" stroke="none" /><path d="M 80.14247586403 93.16781622104843 l -30.900069156984852 -10.631484056988713 a53.677862952776636,53.677862952776636 0 0,0 0.3081286194128801,-0.8711211001263504 l 30.71248745676216 11.161802783541674" fill="#fff917" stroke="none" /><path d="M 80.2630227832202 92.82701384747504 l -29.876879579394256 -10.858118806635373 a52.7887822575926,52.7887822575926 0 0,0 0.3177266598069713,-0.8513494845258391 l 29.685548331085656 11.370791428190552" fill="#ffe915" stroke="none" /><path d="M 81.10775173730289 90.83032412892265 l -34.224718925424376 -16.611552789327188 a59.043068640646034,59.043068640646034 0 0,0 0.4516513229344828,-0.910501506898613 l 33.93370758953648 17.198213884724762" fill="#abff21" stroke="none" /><path d="M 81.26839172434947 90.50648371742162 l -33.832864476343204 -17.14710477956956 a58.9300134589502,58.9300134589502 0 0,0 0.46636249241071637,-0.900863895137551 l 33.532692550772374 17.726941396967447" fill="#adff20" stroke="none" /><line stroke="#e1ed5e" stroke-width="0.3" x1="26.266209847984243" x2="21.928928074336255" y1="57.711370442889674" y2="55.22380399835377" /><path d="M 25.398753493254645 57.213857153982495 a86.0,86.0 0 0,1 29.58750427330803,-30.492523968695096" fill="none" id="id71" stroke="none" /><text fill="#e1ed5e" style="font-size:6.75px; font-family:Arial;" text-anchor="middle"><textPath startOffset="21.46611528233685" xlink:href="#id71">November</textPath></text><path d="M 82.95767976084542 87.72973835380427 l -27.112736868271732 -19.520838163445692 a54.4090350517877,54.4090350517877 0 0,0 0.5537735717915834,-0.755346529580469 l 26.772700683966516 19.98464713669766" fill="#f8ff18" stroke="none" /><path d="M 83.39014120810768 87.1503855733568 l -26.539422687847154 -20.53126115744004 a54.55404061091931,54.55404061091931 0 0,0 0.5809899318925186,-0.7377982130521623 l 26.182078675360664 20.98505176444525" fill="#f6ff19" stroke="none" /><path d="M 84.5562425177563 85.77008943001954 l -24.676212654494957 -22.736714150232114 a54.55404061091931,54.55404061091931 0 0,0 0.6422638836938136,-0.6851223305702991 l 24.281181448830687 23.158105897680464" fill="#f6ff19" stroke="none" /><path d="M 84.80347519578584 85.50635884689758 l -24.202926771390757 -23.083470727601867 a54.4459008719059,54.4459008719059 0 0,0 0.6526656640160124,-0.6726293377000538 l 23.801996843671628 23.496664260852043" fill="#f8ff18" stroke="none" /><path d="M 85.57189188830299 84.74124197986013 l -26.116066134066823 -27.619611004621476 a59.011732693545554,59.011732693545554 0 0,0 0.7440876943264858,-0.6915484182700167 l 25.636770555945482 28.06506400896614" fill="#acff21" stroke="none" /><path d="M 85.83668400450813 84.49514656593479 l -25.570052378308574 -27.992026341376327 a58.9128094095617,58.9128094095617 0 0,0 0.7546142105249889,-0.6775000889807482 l 25.084427180187614 28.428025439126355" fill="#adff20" stroke="none" /><line stroke="#e1ed5e" stroke-width="0.3" x1="56.762969772571076" x2="54.21961505331055" y1="26.818313649435495" y2="22.513508569990535" /><path d="M 56.25429882871897 25.957352633546506 a86.0,86.0 0 0,1 42.265352541879196,-11.944610805530505" fill="none" id="id72" stroke="none" /><text fill="#e1ed5e" style="font-size:6.75px; font-family:Arial;" text-anchor="middle"><textPath startOffset="22.20632615414155" xlink:href="#id72">December</textPath></text></svg>