<?xml version="1.0" encoding="utf-8" ?>
<svg baseProfile="full" height="200mm" version="1.1" viewBox="0,0,200,200" width="200mm" xmlns="http://www.w3.org/2000/svg" xmlns:ev="http://www.w3.org/2001/xml-events" xmlns:xlink="http://www.w3.org/1999/xlink"><defs /><rect fill="#1a1a1a" height="200" width="200" x="0" y="0" /><text alignment-baseline="middle" fill="#e1ed5e" style="dominant-baseline: central; font-size:9.0px; font-family:Arial;" text-anchor="middle" x="100.0" y="100.0">2026</text><line stroke="#e1ed5e" stroke-width="0.3" x1="100.0" x2="100.0" y1="15.0" y2="10.0" /><path d="M 100.0 14.0 a86.0,86.0 0 0,1 42.46469731375804,11.215312516191453" fill="none" id="id97" stroke="none" /><text fill="#e1ed5e" style="font-size:6.75px; font-family:Arial;" text-anchor="middle"><textPath startOffset="22.20632615414155" xlink:href="#id97">January</textPath></text><path d="M 101.80526077348638 79.07773832637324 l 5.083940810044321 -58.920872553806724 a80.13979773944081,80.13979773944081 0 0,0 1.3733475964997521,0.13041590240043532 l -6.097413533634318 58.82463110689111" fill="#dfff1b" stroke="none" /><path d="M 104.307194497241 79.44645832069477 l 12.247470632763758 -58.44381958553831 a80.71331999351034,80.71331999351034 0 0,0 1.3573569625444142,0.2966656584460808 l -13.2516703194617 58.224340428996356" fill="#9bff22" stroke="none" /><path d="M 105.01212808612495 79.60689891045804 l 13.617939270289197 -55.40800382556854 a78.0569466226813,78.0569466226813 0 0,0 1.3020311703958434,0.33191673626724044 l -14.569679329370064 55.16538409313243" fill="#ff0000" stroke="none" /><path d="M 105.71112130821622 79.79150937346287 l 15.79970853506033 -55.90640517011013 a79.09610080579742,79.09610080579742 0 0,0 1.3070057485497915,0.381550818459141 l -16.759704501333548 55.62615602273229" fill="#ff970d" stroke="none" /><path d="M 106.0581310904928 79.89281104454417 l 18.174393271478365 -60.321566866367476 a84.0,84.0 0 0,0 1.380858509157127,0.4290394604699177 l -19.21003715334621 59.99978727101504" fill="#4dd2ff" stroke="none" /><path d="M 107.4271985657038 80.35727306442388 l 20.88379941737266 -55.231426183624954 a80.04780704126333,80.04780704126333 0 0,0 1.2846408846554254,0.4984207051527067 l -21.831423467027754 54.8637627745817" fill="#eaff1a" stroke="none" /><path d="M 107.76421540070413 80.48803036053334 l 21.658008240134084 -54.42795922360556 a79.5787680493213,79.5787680493213 0 0,0 1.2683951097329567,0.5174102127646106 l -22.59168721945543 54.04708812465737" fill="#ffd814" stroke="none" /><path d="M 109.08828744355905 81.06846463323043 l 25.582465060691625 -53.29005547781926 a80.11254123627711,80.11254123627711 0 0,0 1.2380391192373117,0.6075004190648866 l -26.49597544693937 52.84179989861954" fill="#e2ff1b" stroke="none" /><path d="M 109.73455568895987 81.39251694778311 l 26.939939336495772 -51.495361539727185 a79.1165431831702,79.1165431831702 0 0,0 1.2012715093100284,0.6416776376065005 l -27.822355892334112 51.024005175618925" fill="#ff9a0e" stroke="none" /><line stroke="#e1ed5e" stroke-width="0.3" x1="143.23703022742887" x2="145.7803849466894" y1="26.81831364943548" y2="22.513508569990506" /><path d="M 143.74570117128098 25.957352633546492 a86.0,86.0 0 0,1 28.547481713284135,27.462654790039103" fill="none" id="id98" stroke="none" /><text fill="#e1ed5e" style="font-size:6.75px; font-family:Arial;" text-anchor="middle"><textPath startOffset="19.985693538727396" xlink:href="#id98">February</textPath></text><path d="M 111.2981086023043 82.29822771554956 l 31.63177125851999 -49.56036726872528 a79.79454869936725,79.79454869936725 0 0,0 1.1514466389795408,0.7489329235642962 l -32.480184923283815 49.008535421001454" fill="#fff417" stroke="none" /><path d="M 111.90073688211348 82.69761687909136 l 33.34471785529711 -48.47961005323003 a79.8399762046401,79.8399762046401 0 0,0 1.1256252747893438,0.7885724389623365 l -34.17427426967011 47.89845277150376" fill="#fff917" stroke="none" /><path d="M 112.77801427241765 83.33499621200491 l 37.81299891690126 -49.31546927020191 a83.14369152560704,83.14369152560704 0 0,0 1.128249777555465,0.880616847383471 l -38.65628124961615 48.65727403359521" fill="#42ffd6" stroke="none" /><path d="M 113.34407831869373 83.78471172551755 l 37.49706935478481 -45.56521436061371 a80.01032934941323,80.01032934941323 0 0,0 1.0559171306956476,0.8843002304065779 l -38.27584402243958 44.913012972813306" fill="#efff19" stroke="none" /><path d="M 113.6212207817346 84.01681056812373 l 38.27584402243958 -44.913012972813306 a80.01032934941323,80.01032934941323 0 0,0 1.0405389103637888,0.9023450894267881 l -39.043276731450135 44.247502889966846" fill="#efff19" stroke="none" /><line stroke="#e1ed5e" stroke-width="0.3" x1="172.23445277983987" x2="176.4835382374775" y1="55.19839476539836" y2="52.563006222186495" /><path d="M 173.08426987136738 54.67131705675599 a86.0,86.0 0 0,1 12.851231095245387,41.99856678651699" fill="none" id="id99" stroke="none" /><text fill="#e1ed5e" style="font-size:6.75px; font-family:Arial;" text-anchor="middle"><textPath startOffset="22.20632615414155" xlink:href="#id99">March</textPath></text><path d="M 118.89224826269711 90.83032412892265 l 51.554964433275444 -25.023083903226578 a78.3067979016819,78.3067979016819 0 0,0 0.5781346371973971,1.2176989886522689 l -51.9780572643146 24.13194249893377" fill="#ff2603" stroke="none" /><path d="M 119.47837535516314 92.15188598940014 l 54.74402081187996 -22.05714331387505 a80.0205505380996,80.0205505380996 0 0,0 0.5037729963406731,1.2820473265395613 l -55.11558735810234 21.1115469824397" fill="#eeff19" stroke="none" /><path d="M 119.61058180528143 92.48833698450437 l 55.10604243158418 -21.107890881247805 a80.01032934941323,80.01032934941323 0 0,0 0.4815685001066464,1.2903641594909114 l -55.46121552019245 20.15620358472756" fill="#efff19" stroke="none" /><line stroke="#e1ed5e" stroke-width="0.3" x1="184.98032266829074" x2="189.97916517819016" y1="98.17113171792111" y2="98.06355123074" /><path d="M 185.9800911702706 98.14961562048488 a86.0,86.0 0 0,1 -9.607161424134198,41.387399972396054" fill="none" id="id100" stroke="none" /><text fill="#e1ed5e" style="font-size:6.75px; font-family:Arial;" text-anchor="middle"><textPath startOffset="21.466115282336823" xlink:href="#id100">April</textPath></text><line stroke="#e1ed5e" stroke-width="0.3" x1="174.80103733775053" x2="179.2010983576182" y1="140.37084112569926" y2="142.7455964860345" /><path d="M 175.68104954172406 140.8457921977663 a86.0,86.0 0 0,1 -30.038265399797805,32.042727171017184" fill="none" id="id101" stroke="none" /><text fill="#e1ed5e" style="font-size:6.75px; font-family:Arial;" text-anchor="middle"><textPath startOffset="22.206326154141568" xlink:href="#id101">May</textPath></text><line stroke="#e1ed5e" stroke-width="0.3" x1="143.8653032363475" x2="146.44561519142675" y1="172.8068346515853" y2="177.08958963109032" /><path d="M 144.38136562736335 173.6633856474863 a86.0,86.0 0 0,1 -40.68145358897372,12.25698825130547" fill="none" id="id102" stroke="none" /><text fill="#e1ed5e" style="font-size:6.75px; font-family:Arial;" text-anchor="middle"><textPath startOffset="21.466115282336833" xlink:href="#id102">June</textPath></text><line stroke="#e1ed5e" stroke-width="0.3" x1="102.19456741930631" x2="102.32365962044197" y1="184.97166512339345" y2="189.96999836594603" /><path d="M 102.22038585953345 185.97133177190398 a86.0,86.0 0 0,1 -42.740103519485714,-10.115201625700543" fill="none" id="id103" stroke="none" /><text fill="#e1ed5e" style="font-size:6.75px; font-family:Arial;" text-anchor="middle"><textPath startOffset="22.20632615414155" xlink:href="#id103">July</textPath></text><line stroke="#e1ed5e" stroke-width="0.3" x1="58.666819895761336" x2="56.23545636021788" y1="174.27360380694188" y2="178.64263932499728" /><path d="M 58.180547188652646 175.14741091055294 a86.0,86.0 0 0,1 -31.652253787137756,-30.449443065178592" fill="none" id="id104" stroke="none" /><text fill="#e1ed5e" style="font-size:6.75px; font-family:Arial;" text-anchor="middle"><textPath startOffset="22.20632615414155" xlink:href="#id104">August</textPath></text><line stroke="#e1ed5e" stroke-width="0.3" x1="26.63291911575756" x2="22.317208475507996" y1="142.92168965132927" y2="145.44649492493687" /><path d="M 25.769776987707644 143.4266507060508 a86.0,86.0 0 0,1 -11.730757126820373,-40.83630448921669" fill="none" id="id105" stroke="none" /><text fill="#e1ed5e" style="font-size:6.75px; font-family:Arial;" text-anchor="middle"><textPath startOffset="21.46611528233685" xlink:href="#id105">September</textPath></text><line stroke="#e1ed5e" stroke-width="0.3" x1="15.007084014347285" x2="10.007500721073583" y1="101.09737516637583" y2="101.16192664675087" /><path d="M 14.007167355692545 101.11028546245083 a86.0,86.0 0 0,1 10.666146001902534,-42.60595125391555" fill="none" id="id106" stroke="none" /><text fill="#e1ed5e" style="font-size:6.75px; font-family:Arial;" text-anchor="middle"><textPath startOffset="22.20632615414155" xlink:href="#id106">October</textPath></text><line stroke="#e1ed5e" stroke-width="0.3" x1="26.266209847984243" x2="21.928928074336255" y1="57.711370442889674" y2="55.22380399835377" /><path d="M 25.398753493254645 57.213857153982495 a86.0,86.0 0 0,1 29.58750427330803,-30.492523968695096" fill="none" id="id107" stroke="none" /><text fill="#e1ed5e" style="font-size:6.75px; font-family:Arial;" text-anchor="middle"><textPath startOffset="21.46611528233685" xlink:href="#id107">November</textPath></text><line stroke="#e1ed5e" stroke-width="0.3" x1="56.762969772571076" x2="54.21961505331055" y1="26.818313649435495" y2="22.513508569990535" /><path d="M 56.25429882871897 25.957352633546506 a86.0,86.0 0 0,1 42.265352541879196,-11.944610805530505" fill="none" id="id108" stroke="none" /><text fill="#e1ed5e" style="font-size:6.75px; font-family:Arial;" text-anchor="middle"><textPath startOffset="22.20632615414155" xlink:href="#id108">December</textPath></text></svg>