<?xml version="1.0" encoding="utf-8" ?>
<svg baseProfile="full" height="200mm" version="1.1" viewBox="0,0,200,200" width="200mm" xmlns="http://www.w3.org/2000/svg" xmlns:ev="http://www.w3.org/2001/xml-events" xmlns:xlink="http://www.w3.org/1999/xlink"><defs /><rect fill="#1a1a1a" height="200" width="200" x="0" y="0" /><text alignment-baseline="middle" fill="#e1ed5e" style="dominant-baseline: central; font-size:9.0px; font-family:Arial;" text-anchor="middle" x="100.0" y="100.0">2019</text><line stroke="#e1ed5e" stroke-width="0.3" x1="100.0" x2="100.0" y1="15.0" y2="10.0" /><path d="M 100.0 14.0 a86.0,86.0 0 0,1 42.46469731375804,11.215312516191453" fill="none" id="id13" stroke="none" /><text fill="#e1ed5e" style="font-size:6.75px; font-family:Arial;" text-anchor="middle"><textPath startOffset="22.20632615414155" xlink:href="#id13">January</textPath></text><path d="M 100.0 79.0 l 0.0 -35.05531386840491 a56.05531386840491,56.05531386840491 0 0,0 0.9649000820439531,0.008305199635980028 l -0.6034196027714246 35.05012004537749" fill="#83ff25" stroke="none" /><line stroke="#e1ed5e" stroke-width="0.3" x1="143.23703022742887" x2="145.7803849466894" y1="26.81831364943548" y2="22.513508569990506" /><path d="M 143.74570117128098 25.957352633546492 a86.0,86.0 0 0,1 28.547481713284135,27.462654790039103" fill="none" id="id14" stroke="none" /><text fill="#e1ed5e" style="font-size:6.75px; font-family:Arial;" text-anchor="middle"><textPath startOffset="19.985693538727396" xlink:href="#id14">February</textPath></text><path d="M 110.99172775467656 82.1063720568725 l 7.038192562480423 -11.457598106133014 a34.44666162689526,34.44666162689526 0 0,0 0.5025617803425716,0.31470414074541203 l -7.234373495195258 11.334749624064658" fill="#ff4806" stroke="none" /><path d="M 114.94478906791727 85.2469230424477 l 25.75886563732363 -25.4284302949781 a57.19563822048524,57.19563822048524 0 0,0 0.6856279095430691,0.7065998291788674 l -26.19275781056981 24.98126627024912" fill="#76ff27" stroke="none" /><line stroke="#e1ed5e" stroke-width="0.3" x1="172.23445277983987" x2="176.4835382374775" y1="55.19839476539836" y2="52.563006222186495" /><path d="M 173.08426987136738 54.67131705675599 a86.0,86.0 0 0,1 12.851231095245387,41.99856678651699" fill="none" id="id15" stroke="none" /><text fill="#e1ed5e" style="font-size:6.75px; font-family:Arial;" text-anchor="middle"><textPath startOffset="22.20632615414155" xlink:href="#id15">March</textPath></text><line stroke="#e1ed5e" stroke-width="0.3" x1="184.98032266829074" x2="189.97916517819016" y1="98.17113171792111" y2="98.06355123074" /><path d="M 185.9800911702706 98.14961562048488 a86.0,86.0 0 0,1 -9.607161424134198,41.387399972396054" fill="none" id="id16" stroke="none" /><text fill="#e1ed5e" style="font-size:6.75px; font-family:Arial;" text-anchor="middle"><textPath startOffset="21.466115282336823" xlink:href="#id16">April</textPath></text><path d="M 120.70491114924044 103.5080841355445 l 13.510213672200464 2.289068806412218 a34.70276284071945,34.70276284071945 0 0,0 -0.10485779823347863,0.5880982187030518 l -13.468809431627797 -2.5212857758484883" fill="#ff4c07" stroke="none" /><path d="M 120.5718875245553 104.21870165774334 l 14.889963234870821 3.0535026262275258 a36.19983169065313,36.19983169065313 0 0,0 -0.13043309823269703,0.6093400115288808 l -14.83519609791368 -3.309356457172576" fill="#ff6409" stroke="none" /><path d="M 120.49622156327973 104.57218783832717 l 10.688532949764943 2.3843409484813582 a31.951247343422384,31.951247343422384 0 0,0 -0.12436556550782253,0.5357636012584487 l -10.645906818326566 -2.567973207088372" fill="#ff1f03" stroke="none" /><path d="M 120.41448212921028 104.9243191809786 l 23.457334519777085 5.658306763760078 a45.13012594674008,45.13012594674008 0 0,0 -0.18866259250298495,0.7536132749529041 l -23.356460612979042 -6.061247878110377" fill="#ffe915" stroke="none" /><path d="M 120.32669344350535 105.2749913415812 l 13.784425866550913 3.5772039016978816 a35.24102469012537,35.24102469012537 0 0,0 -0.15742991989845645,0.5858552973098634 l -13.72080787031068 -3.8139501321832934" fill="#ff5407" stroke="none" /><path d="M 120.23288151984713 105.62410040840565 l 13.624706805595608 3.7872370791373355 a35.14128000684648,35.14128000684648 0 0,0 -0.1670170711395515,0.5814083352180525 l -13.557497097569957 -4.02120288985997" fill="#ff5307" stroke="none" /><path d="M 120.13307415673323 105.97154293290107 l 13.455839560713297 3.9910508951339443 a35.035245118315764,35.035245118315764 0 0,0 -0.1764662358191913,0.5767018689251892 l -13.385146552387974 -4.222079736611191" fill="#ff5107" stroke="none" /><path d="M 119.79798401119884 107.00284435728193 l 24.866012638750007 8.795482216617224 a47.37572922164058,47.37572922164058 0 0,0 -0.2785596750503974,0.7664765891187332 l -24.710928702694382 -9.222206602742087" fill="#f5ff19" stroke="none" /><path d="M 119.67450827220406 107.3425965602758 l 26.18169704705277 9.771102587172127 a48.94558473234535,48.94558473234535 0 0,0 -0.3013782902158558,0.7868036149148226 l -26.009624477243406 -10.220329768920093" fill="#e0ff1b" stroke="none" /><path d="M 119.54520255179757 107.68017299344265 l 25.5329054202953 10.033005804539098 a48.43338230469696,48.43338230469696 0 0,0 -0.31158206343032513,0.7733211287750277 l -25.356420742607582 -10.47102630115694" fill="#e7ff1a" stroke="none" /><path d="M 119.41010516605496 108.01547362559984 l 22.875513121716995 9.446526462919337 a45.749261863669425,45.749261863669425 0 0,0 -0.30684469736542663,0.7252902241135734 l -22.70951744315926 -9.838891212699075" fill="#fff216" stroke="none" /><path d="M 119.26925614724726 108.34839909993367 l 12.927983588384798 5.601044779751246 a35.08916116333138,35.08916116333138 0 0,0 -0.2448871141803521,0.5521557941666206 l -12.829655389473173 -5.822748910410554" fill="#ff5207" stroke="none" /><path d="M 118.64920377521936 109.65438752849418 l 15.129452183359506 7.832269743658642 a38.0365716241852,38.0365716241852 0 0,0 -0.306008731982395,0.5788531985090666 l -14.992390943152218 -8.091537957253843" fill="#ff800b" stroke="none" /><line stroke="#e1ed5e" stroke-width="0.3" x1="174.80103733775053" x2="179.2010983576182" y1="140.37084112569926" y2="142.7455964860345" /><path d="M 175.68104954172406 140.8457921977663 a86.0,86.0 0 0,1 -30.038265399797805,32.042727171017184" fill="none" id="id17" stroke="none" /><text fill="#e1ed5e" style="font-size:6.75px; font-family:Arial;" text-anchor="middle"><textPath startOffset="22.206326154141568" xlink:href="#id17">May</textPath></text><path d="M 118.12598468904814 110.60418214915192 l 9.491263944994882 5.552641328182066 a31.9961773809354,31.9961773809354 0 0,0 -0.2822049502619545,0.4729917290374468 l -9.3942781190347 -5.7151951511056165" fill="#ff2003" stroke="none" /><path d="M 117.55443506779139 111.5257021239791 l 20.424880283343736 13.410348162994007 a45.43385300032806,45.43385300032806 0 0,0 -0.43486016010913014,0.6500569367618251 l -20.191017017823885 -13.75994201396164" fill="#ffee16" stroke="none" /><path d="M 117.35343817320211 111.8261652097733 l 11.955256297560387 8.147367379823557 a35.46747207919097,35.46747207919097 0 0,0 -0.3481539295074614,0.501541702002556 l -11.81324146089079 -8.351950344013133" fill="#ff5808" stroke="none" /><path d="M 117.14729908036423 112.12312394758627 l 11.25192905607207 7.955103014002574 a34.78004250524184,34.78004250524184 0 0,0 -0.3498213237686924,0.48587122247710496 l -11.113327939927775 -8.14760784193081" fill="#ff4d07" stroke="none" /><path d="M 116.93607887273984 112.41649034213515 l 12.190237318390942 8.937131497171057 a36.11536322012866,36.11536322012866 0 0,0 -0.3718828759793944,0.4981978846054411 l -12.034593175716456 -9.145642261285813" fill="#ff6209" stroke="none" /><path d="M 116.71984013943494 112.70617746262583 l 21.689597926105467 16.482925556931256 a48.24198034489152,48.24198034489152 0 0,0 -0.5081331988661877,0.6568306565790677 l -21.402657910021208 -16.853834207623578" fill="#e9ff1a" stroke="none" /><path d="M 116.0416608686014 113.55231037782055 l 21.782511133092537 18.402293509508606 a49.515297608010385,49.515297608010385 0 0,0 -0.5556500367695119,0.6463465245803839 l -21.462518586752246 -18.774517133250516" fill="#d8ff1c" stroke="none" /><path d="M 115.80600337817218 113.82643327865902 l 10.427241327701744 9.121316315612242 a34.853727766763186,34.853727766763186 0 0,0 -0.3988945250241675,0.44816222751647833 l -10.268687953029238 -9.299452712869586" fill="#ff4e07" stroke="none" /><path d="M 115.56566222782051 114.09645910891815 l 20.041159228040254 18.1495253731292 a48.03799797458243,48.03799797458243 0 0,0 -0.5603371503127714,0.6081353087332743 l -19.72577566973176 -18.491811936663808" fill="#ecff1a" stroke="none" /><path d="M 115.32070863581623 114.36230785411682 l 10.682036251208396 10.013811814816053 a35.64180062474148,35.64180062474148 0 0,0 -0.42344741680619663,0.4439829236008344 l -10.508082283023237 -10.196201854999396" fill="#ff5b08" stroke="none" /><path d="M 115.07121518719521 114.62390073753431 l 9.674865006131983 9.387714510169442 a34.48080845540515,34.48080845540515 0 0,0 -0.41698688394830935,0.4224055119230881 l -9.511837497128138 -9.552860516073194" fill="#ff4806" stroke="none" /><path d="M 114.29624159901734 115.38237550388516 l 19.495653490382836 20.976804330399062 a49.63750731004578,49.63750731004578 0 0,0 -0.6308701459234787,0.5762849205143107 l -19.131683794992494 -21.309282017499957" fill="#d6ff1c" stroke="none" /><path d="M 114.0293411484842 115.62618273729858 l 9.73063047579257 10.838186081196675 a35.565419560969346,35.565419560969346 0 0,0 -0.459060902099351,0.405067872006811 l -9.542627220786631 -11.004077094975775" fill="#ff5a08" stroke="none" /><path d="M 113.75828350139079 115.86535959552629 l 9.282411215382988 10.704009103367454 a35.16823802935429,35.16823802935429 0 0,0 -0.46076173380149316,0.39267114555797134 l -9.096784005004446 -10.862204639148374" fill="#ff5307" stroke="none" /><path d="M 113.48314897796784 116.09983520530334 l 9.378912969198469 11.19908661216439 a35.60765379623158,35.60765379623158 0 0,0 -0.47329332509367916,0.38948818490657694 l -9.1847495155601 -11.358869915928144" fill="#ff5a08" stroke="none" /><path d="M 113.20401910651253 116.32954008644616 l 8.757039415702877 10.829916635517366 a34.927413028284526,34.927413028284526 0 0,0 -0.4707591693534433,0.3739995553141291 l -8.569322753632083 -10.979050104836622" fill="#ff4f07" stroke="none" /><path d="M 112.34349029814194 116.9893568818739 l 17.609135334254688 24.236895509198263 a50.958450412928435,50.958450412928435 0 0,0 -0.7140799700805982,0.5094770986533875 l -17.189328036325207 -24.53641686969587" fill="#c5ff1e" stroke="none" /><path d="M 112.04921762599082 117.19931262002967 l 5.630782311548264 8.03749988403817 a30.81361879359283,30.81361879359283 0 0,0 -0.437029724644122,0.3005930296600156 l -5.491595702281258 -8.13323370306328" fill="#ff0c01" stroke="none" /><path d="M 111.7513745106137 117.40417183066458 l 8.46191488673098 12.532374027575214 a36.12165342538048,36.12165342538048 0 0,0 -0.5183032428768276,0.34350312716676373 l -8.244936945114189 -12.676175175833297" fill="#ff6209" stroke="none" /><path d="M 111.45004920935366 117.60387380957326 l 5.50805687764284 8.468359955236386 a31.102069634426392,31.102069634426392 0 0,0 -0.4513031719815854,0.28804303702919465 l -5.361471903614324 -8.56191742108939" fill="#ff1101" stroke="none" /><path d="M 111.1453310114006 117.79835938074945 l 13.640229311089957 21.78254760368063 a46.7008800581951,46.7008800581951 0 0,0 -0.6849924971138354,0.42077833887024363 l -13.263257614043813 -22.014114409379253" fill="#feff18" stroke="none" /><line stroke="#e1ed5e" stroke-width="0.3" x1="143.8653032363475" x2="146.44561519142675" y1="172.8068346515853" y2="177.08958963109032" /><path d="M 144.38136562736335 173.6633856474863 a86.0,86.0 0 0,1 -40.68145358897372,12.25698825130547" fill="none" id="id18" stroke="none" /><text fill="#e1ed5e" style="font-size:6.75px; font-family:Arial;" text-anchor="middle"><textPath startOffset="21.466115282336833" xlink:href="#id18">June</textPath></text><path d="M 110.21172684928248 118.3499491758327 l 12.845023711428265 23.08184852042297 a47.41526765465204,47.41526765465204 0 0,0 -0.7165963963204227,0.39074549128333896 l -12.445804503239193 -23.299534663466076" fill="#f5ff19" stroke="none" /><path d="M 109.89434966115114 118.52300852407294 l 12.276027404116899 22.9816984476527 a47.054928753797654,47.054928753797654 0 0,0 -0.7177200838480465,0.37547722632327746 l -11.878616417742357 -23.189605092920697" fill="#faff18" stroke="none" /><path d="M 107.93186726928326 119.44442032107085 l 10.178186923416387 24.951116543736433 a47.947239298806146,47.947239298806146 0 0,0 -0.766879387735531,0.3051571349667993 l -9.74718645963899 -25.1226205231093" fill="#edff1a" stroke="none" /><path d="M 107.59598834532513 119.57807347666477 l 4.916498012154839 12.671894025361851 a34.59223494843743,34.59223494843743 0 0,0 -0.5569840365011359,0.21060370337525164 l -4.697643754893428 -12.754645978843733" fill="#ff4a06" stroke="none" /><path d="M 107.2578585660854 119.70592522655815 l 5.359152494674137 14.550718697006973 a36.50625454649189,36.50625454649189 0 0,0 -0.5915411588972858,0.21210561355421956 l -5.107891775147117 -14.640811851601153" fill="#ff6809" stroke="none" /><path d="M 106.91757812671514 119.82793768551818 l 4.884998723067506 14.001930805921065 a35.82960818154588,35.82960818154588 0 0,0 -0.5840742541687199,0.19814969880072913 l -4.643254735961559 -14.083943491619916" fill="#ff5e08" stroke="none" /><path d="M 106.57524785965236 119.94407469862006 l 9.45785662905822 28.687618037375234 a51.206464220000285,51.206464220000285 0 0,0 -0.8394901249671708,0.26877822779010574 l -8.96264515900011 -28.846169111825045" fill="#c1ff1e" stroke="none" /><path d="M 105.53697534728816 120.25689768951611 l 6.499464022884739 23.778140499171545 a45.650415781140794,45.650415781140794 0 0,0 -0.759774124054169,0.20066325164226112 l -6.089199456019073 -23.88649510011739" fill="#fff116" stroke="none" /><path d="M 105.18746579009965 120.34920634021253 l 3.581555600133702 14.049598951603748 a35.49892310545008,35.49892310545008 0 0,0 -0.5934181119676942,0.14584773413072577 l -3.339184203422797 -14.109167944048504" fill="#ff5808" stroke="none" /><path d="M 104.83641907484287 120.43548508189849 l 3.3071065119737395 13.973628989519371 a35.35963998915973,35.35963998915973 0 0,0 -0.5935028867095811,0.13507932473559645 l -3.0660834758712965 -14.028485047832651" fill="#ff5608" stroke="none" /><path d="M 104.48393922423573 120.51570834832081 l 3.0883404022293113 14.130318856690515 a35.46387767618993,35.46387767618993 0 0,0 -0.5974963206028602,0.12521116333023868 l -2.844652620197073 -14.181386000747295" fill="#ff5808" stroke="none" /><path d="M 104.13013068566511 120.58985236759428 l 2.848894149948859 14.202531208501892 a35.48544409419618,35.48544409419618 0 0,0 -0.599927707844995,0.11497757304847209 l -2.6039988275321595 -14.249465979898833" fill="#ff5808" stroke="none" /><path d="M 103.41894727170886 120.7198165907248 l 2.207937021978495 13.380741644605623 a34.56168252292858,34.56168252292858 0 0,0 -0.5878187376446854,0.0918051977171861 l -1.9772824207252924 -13.416765149669915" fill="#ff4a06" stroke="none" /><path d="M 103.06178313531738 120.77559828337769 l 3.9681904292955 26.92598614187666 a48.21681952388424,48.21681952388424 0 0,0 -0.8221459283527414,0.11394193425892947 l -3.504115909755928 -26.990302641628194" fill="#eaff1a" stroke="none" /><path d="M 102.70371172650421 120.8252237178851 l 3.777614655485688 29.09691501104211 a50.3411116974996,50.3411116974996 0 0,0 -0.8602878324447611,0.10416887581870937 l -3.2761993999895465 -29.157629415586168" fill="#cdff1d" stroke="none" /><path d="M 102.34483914955558 120.86867818915974 l 3.2887415084361566 29.269252093429746 a50.453436791282144,50.453436791282144 0 0,0 -0.8638767266364131,0.08954435489469331 l -2.784432185194141 -29.3215258167802" fill="#cbff1d" stroke="none" /><path d="M 101.62511606390274 120.93702456842531 l 2.0736693302819673 26.715916899275825 a47.79627437276241,47.79627437276241 0 0,0 -0.8208150683259904,0.056608212838307394 l -1.6134915011770465 -26.747653456630417" fill="#efff19" stroke="none" /><line stroke="#e1ed5e" stroke-width="0.3" x1="102.19456741930631" x2="102.32365962044197" y1="184.97166512339345" y2="189.96999836594603" /><path d="M 102.22038585953345 185.97133177190398 a86.0,86.0 0 0,1 -42.740103519485714,-10.115201625700543" fill="none" id="id19" stroke="none" /><text fill="#e1ed5e" style="font-size:6.75px; font-family:Arial;" text-anchor="middle"><textPath startOffset="22.20632615414155" xlink:href="#id19">July</textPath></text><path d="M 100.54218724476979 120.99299961872073 l 0.6429082174820258 24.89282456322456 a45.90112539046342,45.90112539046342 0 0,0 -0.7900246188287919,0.013600990269252383 l -0.21432390876056578 -24.900203030772975" fill="#fff417" stroke="none" /><path d="M 100.18074693466247 120.99922214144158 l 0.11972624977855575 13.90982436275723 a34.91033961402958,34.91033961402958 0 0,0 -0.6009463688820128,0.0 l 0.11972624977854616 -13.90982436275723" fill="#ff4f07" stroke="none" /><path d="M 99.81925306533755 120.99922214144158 l -0.12923938202839186 15.015062345069333 a36.01561853684976,36.01561853684976 0 0,0 -0.6198807777460168,-0.010671809745269815 l 0.3876798496670766 -15.010613058044903" fill="#ff6108" stroke="none" /><path d="M 99.45781275523022 120.99299961872073 l -0.37605641431799197 14.560564156663668 a35.565419560969346,35.565419560969346 0 0,0 -0.6118601081681322,-0.021073699269413746 l 0.6266368741607672 -14.55193365896816" fill="#ff5a08" stroke="none" /><path d="M 99.09653310690486 120.98055641714683 l -1.1082607978016359 25.736336738949984 a46.76018770771228,46.76018770771228 0 0,0 -0.80385646122424,-0.041550197069601086 l 1.551105327439365 -25.713446735118183" fill="#feff18" stroke="none" /><path d="M 98.01472825383883 120.90594882070398 l -2.4324810443557507 25.615296404115202 a46.73053388295368,46.73053388295368 0 0,0 -0.8001322251203807,-0.08293697667700739 l 2.873045866081725 -25.569630058982437" fill="#feff18" stroke="none" /><path d="M 97.65516085044442 120.86867818915974 l -3.2641589758807945 29.050471644856344 a50.23327960746836,50.23327960746836 0 0,0 -0.8584450714910602,-0.10394574313020315 l 3.763731470423244 -28.989980373000794" fill="#ceff1d" stroke="none" /><path d="M 97.2962882734958 120.8252237178851 l -1.7187383107281362 13.238508189514935 a34.34961274586715,34.34961274586715 0 0,0 -0.5856959156237826,-0.08117211703211495 l 1.9463628175387497 -13.206961506990215" fill="#ff4606" stroke="none" /><path d="M 96.93821686468263 120.77559828337769 l -3.371284869474092 22.87570903997524 a44.122794505698266,44.122794505698266 0 0,0 -0.750432371181266,-0.11720210295731767 l 3.764553104263875 -22.81428862967082" fill="#ffdb14" stroke="none" /><path d="M 96.58105272829116 120.7198165907248 l -4.188233571773132 25.38191570380135 a46.725142278452125,46.725142278452125 0 0,0 -0.7924384514564538,-0.13777558231857084 l 4.624520994701635 -25.30606154296177" fill="#feff18" stroke="none" /><path d="M 96.22490169976321 120.6578951692458 l -1.860599162252809 10.181473272734161 a31.350083441498235,31.350083441498235 0 0,0 -0.5300140432195963,-0.10157845282708752 l 2.0355808200441006 -10.147937621558606" fill="#ff1502" stroke="none" /><path d="M 95.86986931433489 120.58985236759428 l -2.7767881441685116 13.843062676673803 a35.11881498808997,35.11881498808997 0 0,0 -0.5916826955841838,-0.12399286168276083 l 3.014662301182082 -13.7932138342645" fill="#ff5207" stroke="none" /><path d="M 95.51606077576429 120.51570834832081 l -5.079184090942722 23.239177483493496 a44.78775906089089,44.78775906089089 0 0,0 -0.751751553467204,-0.17109620607620116 l 5.478455793802789 -23.148304543839608" fill="#ffe515" stroke="none" /><path d="M 95.16358092515715 120.4354850818985 l -5.5003927956969845 23.24099569984018 a44.88301074041849,44.88301074041849 0 0,0 -0.7502873091075768,-0.1844023661791041 l 5.899633389547772 -23.142872075347046" fill="#ffe615" stroke="none" /><path d="M 94.81253420990036 120.34920634021253 l -6.807730319212906 26.7051224200022 a48.559186409733414,48.559186409733414 0 0,0 -0.8081857018809654,-0.21344918935230225 l 7.26640646390536 -26.58398188134632" fill="#e5ff1a" stroke="none" /><path d="M 94.46302465271185 120.25689768951611 l -2.58632798460957 9.462021788019706 a30.80912578984153,30.80912578984153 0 0,0 -0.5103587904871518,-0.1442324920278382 l 2.748817943201336 -9.416100502653347" fill="#ff0c01" stroke="none" /><path d="M 94.11515582081647 120.15858648285463 l -3.6208550023169668 12.403271264900374 a33.92098018799298,33.92098018799298 0 0,0 -0.5590904825990946,-0.16844937611794492 l 3.8338204593563074 -12.339106519676704" fill="#ff3f05" stroke="none" /><path d="M 93.76903079525671 120.05430185196036 l -6.652327732174689 21.41043936754529 a43.420088718994705,43.420088718994705 0 0,0 -0.7118385590575015,-0.22790822748941783 l 7.019887636323132 -21.292758293396165" fill="#ffd113" stroke="none" /><path d="M 93.42475214034765 119.94407469862007 l -19.725743578957054 59.832224095860205 a84.0,84.0 0 0,0 -1.3693210682510968,-0.46454805240750785 l 20.752734380145377 -59.483813056554574" fill="#4dd2ff" stroke="none" /><path d="M 93.08242187328487 119.8279376855182 l -8.746998258901078 25.071626693023536 a47.55365217019212,47.55365217019212 0 0,0 -0.77055131686353,-0.2762922873245566 l 9.177269136394335 -24.917346864659024" fill="#f3ff19" stroke="none" /><path d="M 92.7421414339146 119.70592522655815 l -9.009252127839705 24.461161258778127 a47.0675091643013,47.0675091643013 0 0,0 -0.757853642051836,-0.286555400465619 l 9.428975990651825 -24.302457608205877" fill="#f9ff18" stroke="none" /><path d="M 92.40401165467489 119.57807347666478 l -9.768963887036456 25.17875016079932 a48.00744554907358,48.00744554907358 0 0,0 -0.7678423406191391,-0.30554031379226754 l 10.200927303697455 -25.006863002600987" fill="#ecff1a" stroke="none" /><path d="M 92.06813273071674 119.44442032107085 l -8.974643811823924 22.00071440741225 a44.76080103838308,44.76080103838308 0 0,0 -0.7109049829550659,-0.29715834053131984 l 9.352020254276452 -21.842971023860958" fill="#ffe415" stroke="none" /><path d="M 91.7346041902142 119.30500536409082 l -11.297263102719104 26.38636186537202 a49.70310516481479,49.70310516481479 0 0,0 -0.7836033583515293,-0.3435086843213435 l 11.749787135728376 -26.187988627756223" fill="#d5ff1c" stroke="none" /><path d="M 91.40352486487194 119.15986991738527 l -3.916840943623935 8.729876116346762 a30.56830078877177,30.56830078877177 0 0,0 -0.4782221487675982,-0.21952833318399503 l 4.0665310881589525 -8.661160712828693" fill="#ff0801" stroke="none" /><path d="M 91.07499286063937 119.00905698771935 l -10.524937101669101 22.416691217585083 a45.764538076423854,45.764538076423854 0 0,0 -0.7101944387584336,-0.3409364890490217 l 10.909244208427777 -22.232200452036498" fill="#fff216" stroke="none" /><path d="M 90.7491055286396 118.85261126421891 l -11.399702990467837 23.231717718993686 a46.877904405996375,46.877904405996375 0 0,0 -0.7213529345151826,-0.36170133640718727 l 11.797909832665779 -23.0320485416772" fill="#fcff18" stroke="none" /><path d="M 90.42595943632237 118.69057910512821 l -12.529594913613801 24.460454635691903 a48.48280534596129,48.48280534596129 0 0,0 -0.7394992201594502,-0.3868710410958536 l 12.948785036299746 -24.241154175651335" fill="#e6ff1a" stroke="none" /><path d="M 90.10565033884886 118.52300852407294 l -12.993663770731072 24.32517073145237 a48.578057025488874,48.578057025488874 0 0,0 -0.7341698639825948,-0.40032794702895397 l 13.410456446582307 -24.09790213266365" fill="#e5ff1a" stroke="none" /><line stroke="#e1ed5e" stroke-width="0.3" x1="58.666819895761336" x2="56.23545636021788" y1="174.27360380694188" y2="178.64263932499728" /><path d="M 58.180547188652646 175.14741091055294 a86.0,86.0 0 0,1 -31.652253787137756,-30.449443065178592" fill="none" id="id20" stroke="none" /><text fill="#e1ed5e" style="font-size:6.75px; font-family:Arial;" text-anchor="middle"><textPath startOffset="22.20632615414155" xlink:href="#id20">August</textPath></text><path d="M 89.7882731507175 118.34994917583269 l -6.956920074488006 12.50122840841114 a35.306622544894374,35.306622544894374 0 0,0 -0.5285085872778595,-0.3001009690832133 l 7.171077428687073 -12.379624273533295" fill="#ff5507" stroke="none" /><path d="M 89.4739219176387 118.17145234162733 l -12.304471653594218 21.241541103221074 a45.547975295611124,45.547975295611124 0 0,0 -0.6750473010285575,-0.39882984411838096 l 12.668286825651158 -21.026592686808943" fill="#ffef16" stroke="none" /><path d="M 89.1626897886671 117.98757091392108 l -11.769106499311835 19.53414949112395 a43.80558844085638,43.80558844085638 0 0,0 -0.6425253523327901,-0.39469155001807205 l 12.103611051576934 -19.328669474277504" fill="#ffd614" stroke="none" /><path d="M 88.8546689885994 117.79835938074946 l -13.191929756793785 21.066642749044085 a45.8561953529504,45.8561953529504 0 0,0 -0.6653912958540613,-0.4246842069136083 l 13.55260285469477 -20.836444113306673" fill="#fff417" stroke="none" /><path d="M 88.54995079064634 117.60387380957326 l -13.936236419469218 21.426261391811394 a46.55979974040422,46.55979974040422 0 0,0 -0.6680783658754453,-0.44276591170241153 l 14.302989484084625 -21.183197459017666" fill="#fffe18" stroke="none" /><path d="M 88.24862548938628 117.40417183066458 l -13.192702577149635 19.538826062958357 a44.57568928382946,44.57568928382946 0 0,0 -0.632217246017991,-0.4348447866758011 l 13.527076707790517 -19.308840486917454" fill="#ffe215" stroke="none" /><path d="M 87.95078237400918 117.19931262002967 l -17.427531628298038 24.876433804630928 a51.3736039595487,51.3736039595487 0 0,0 -0.7198975102480667,-0.5136277590976089 l 17.853156466394992 -24.5727617836891" fill="#bfff1e" stroke="none" /><path d="M 87.65650970185807 116.9893568818739 l -15.548688502048336 21.40093374125735 a47.453008886162976,47.453008886162976 0 0,0 -0.6566932181514469,-0.4858059434708802 l 15.914766690618347 -21.130117849046705" fill="#f4ff19" stroke="none" /><path d="M 87.36589467227662 116.77436683061367 l -15.89746685591151 21.10714876924612 a47.42425366215464,47.42425366215464 0 0,0 -0.64784075944332,-0.4967366689939736 l 16.258436343848317 -20.83037275842478" fill="#f4ff19" stroke="none" /><path d="M 87.07902340077011 116.55440617244103 l -9.071904493296033 11.622959811611024 a35.74424111027115,35.74424111027115 0 0,0 -0.4817685535603062,-0.3827460759677893 l 9.270630539573698 -11.465079821638104" fill="#ff5c08" stroke="none" /><path d="M 86.79598089348748 116.32954008644616 l -9.752016279439424 12.060414293117608 a36.509848949492934,36.509848949492934 0 0,0 -0.48528521162499005,-0.39935669111836 l 9.958171619609104 -11.890762483142067" fill="#ff6809" stroke="none" /><path d="M 86.51685102203217 116.09983520530335 l -16.9398538194289 20.22738570495563 a47.38381662839293,47.38381662839293 0 0,0 -0.62080589552443,-0.5290642522622039 l 17.285525191530386 -19.932797062470474" fill="#f5ff19" stroke="none" /><path d="M 86.24171649860922 115.8653595955263 l -18.291654497491542 21.09301470423207 a48.9195253105878,48.9195253105878 0 0,0 -0.6314291156006933,-0.5571627795132089 l 18.652025965998824 -20.77502878294657" fill="#e0ff1b" stroke="none" /><path d="M 85.97065885151581 115.62618273729859 l -19.242143169879636 21.432314051489747 a49.802849848093686,49.802849848093686 0 0,0 -0.6329715743947998,-0.5782045255984708 l 19.60821429374129 -21.097916759304702" fill="#d4ff1c" stroke="none" /><path d="M 85.70375840098266 115.38237550388516 l -19.12554867499228 20.57858139839959 a49.093853856138296,49.093853856138296 0 0,0 -0.6140569599838923,-0.5806291831677131 l 19.47694146936699 -20.246317578485943" fill="#deff1b" stroke="none" /><path d="M 85.44109423537348 115.13401014063109 l -18.300749507552606 19.023663804554854 a47.39729563964683,47.39729563964683 0 0,0 -0.5830996945600628,-0.5706857773444399 l 18.625499154488462 -18.705827924287846" fill="#f5ff19" stroke="none" /><path d="M 85.18274418774928 114.88116024355367 l -20.299359372620597 20.38690723120914 a49.76960162033404,49.76960162033404 0 0,0 -0.6018789008921501,-0.6097001489345832 l 20.647278898568278 -20.034466588293892" fill="#d4ff1c" stroke="none" /><path d="M 84.9287848128048 114.62390073753433 l -17.932873698540984 17.400625075608705 a45.987391062488406,45.987391062488406 0 0,0 -0.5463596566316543,-0.5728559156611669 l 18.229739906551597 -17.08936204336504" fill="#fff617" stroke="none" /><path d="M 84.67929136418377 114.36230785411682 l -19.513367436922657 18.292691092917625 a47.74685133149809,47.74685133149809 0 0,0 -0.5569410828830652,-0.6044495482697876 l 19.82535492780145 -17.954090289846494" fill="#f0ff19" stroke="none" /><path d="M 84.43433777217949 114.09645910891817 l -19.366437758466486 17.53848914051996 a47.12771541456874,47.12771541456874 0 0,0 -0.539368063627771,-0.6059857372873904 l 19.665464671742598 -17.202529233491706" fill="#f9ff18" stroke="none" /><path d="M 84.19399662182784 113.82643327865904 l -20.333019136972 17.786478069420184 a48.01463435507567,48.01463435507567 0 0,0 -0.5388099159997048,-0.6267576596243709 l 20.636171562542483 -17.433843310634284" fill="#ecff1a" stroke="none" /><path d="M 83.95833913139862 113.55231037782056 l -20.984192018990903 17.727857832088944 a48.470224935457644,48.470224935457644 0 0,0 -0.5329508963646299,-0.6419736871886389 l 21.286238915249072 -17.364022887786547" fill="#e6ff1a" stroke="none" /><path d="M 83.72743513129214 113.27417163493432 l -20.708300469071226 16.89257575017245 a47.724386312741586,47.724386312741586 0 0,0 -0.5137918525469064,-0.6410343351610988 l 20.99601023367299 -16.533613581433094" fill="#f0ff19" stroke="none" /><path d="M 83.50135304334701 112.99209946851258 l -9.626112963555185 7.580222635603235 a33.25242122979931,33.25242122979931 0 0,0 -0.35024804223927525,-0.45274280850548954 l 9.75516782301253 -7.413401832984492" fill="#ff3405" stroke="none" /><path d="M 83.28015986056508 112.70617746262583 l -24.802523133140834 18.848580956661046 a52.15179220927412,52.15179220927412 0 0,0 -0.5370113089006937,-0.7194144054063584 l 25.123295708736613 -18.418853671745378" fill="#b5ff20" stroke="none" /><path d="M 83.06392112726016 112.41649034213515 l -23.815930622096282 17.46037407951564 a50.53071645580454,50.53071645580454 0 0,0 -0.5082432581525878,-0.7059054333623913 l 24.112953672624474 -17.04783504070211" fill="#caff1d" stroke="none" /><path d="M 82.85270091963577 112.12312394758628 l -22.58897214999899 15.970381570856436 a48.66432269751387,48.66432269751387 0 0,0 -0.47769615878260413,-0.6881569449894112 l 22.860529215943732 -15.579183363680011" fill="#e3ff1b" stroke="none" /><path d="M 82.6465618267979 111.8261652097733 l -22.426130151715604 15.28314548062431 a48.138641258611585,48.138641258611585 0 0,0 -0.4607484477489437,-0.6887564142143535 l 22.68588170487528 -14.894852152204136" fill="#ebff1a" stroke="none" /><path d="M 82.44556493220864 111.52570212397912 l -11.982556370854294 7.8673779521194795 a35.33447916815245,35.33447916815245 0 0,0 -0.32944377029663535,-0.5113040474870039 l 12.116205004527973 -7.659952304711028" fill="#ff5607" stroke="none" /><path d="M 82.24976979558568 111.22182372390057 l -22.986002510784235 14.531916787704981 a48.194354505127734,48.194354505127734 0 0,0 -0.43727279531451363,-0.705022976736107 l 23.232739945766706 -14.13409747960361" fill="#eaff1a" stroke="none" /><line stroke="#e1ed5e" stroke-width="0.3" x1="26.63291911575756" x2="22.317208475507996" y1="142.92168965132927" y2="145.44649492493687" /><path d="M 25.769776987707644 143.4266507060508 a86.0,86.0 0 0,1 -11.730757126820373,-40.83630448921669" fill="none" id="id21" stroke="none" /><text fill="#e1ed5e" style="font-size:6.75px; font-family:Arial;" text-anchor="middle"><textPath startOffset="21.46611528233685" xlink:href="#id21">September</textPath></text><path d="M 81.87401531095188 110.60418214915194 l -27.24908759627033 15.941439498381342 a52.569641558145165,52.569641558145165 0 0,0 -0.4502164332008306,-0.7849903001417482 l 27.519456025623537 -15.470029352381287" fill="#b0ff20" stroke="none" /><path d="M 81.69416730710424 110.29060199501025 l -24.112814950380553 13.554990138743975 a48.66162689526309,48.66162689526309 0 0,0 -0.4041778897620209,-0.7337002713221775 l 24.34256924959409 -13.137919349023974" fill="#e3ff1b" stroke="none" /><path d="M 81.51974371655577 109.97397251340807 l -22.97372971572645 12.399143453459521 a47.10614899656249,47.10614899656249 0 0,0 -0.37897455810257297,-0.7168770436389102 l 23.18375678205391 -12.001851394734484" fill="#f9ff18" stroke="none" /><path d="M 81.35079622478065 109.6543875284942 l -24.10465914080685 12.478587471752371 a48.14313426236289,48.14313426236289 0 0,0 -0.37464833532446207,-0.7392167084919561 l 24.315886145917577 -12.061816551557731" fill="#ebff1a" stroke="none" /><path d="M 81.18737489456691 109.33194174019688 l -23.50766427971545 11.660900713056636 a47.24093910910153,47.24093910910153 0 0,0 -0.3550870663254303,-0.7315845299453009 l 23.704904602655596 -11.25452722714605" fill="#f7ff18" stroke="none" /><path d="M 81.02952815118164 109.00673069616217 l -28.15982263770026 13.369616790277947 a52.17246002653012,52.17246002653012 0 0,0 -0.378189177045113,-0.8145858420665132 l 28.3857864315852 -12.882910880932608" fill="#b5ff20" stroke="none" /><path d="M 80.87730276802145 108.67885076344099 l -22.10720069248017 10.033369941486196 a45.27749646978276,45.27749646978276 0 0,0 -0.31599146517593646,-0.7124773346612288 l 22.276633242387387 -9.651344270332272" fill="#ffec16" stroke="none" /><path d="M 80.58989483394504 108.01547362559985 l -26.44861810500166 10.922053180059685 a49.61504229128927,49.61504229128927 0 0,0 -0.31918392890772973,-0.7921883354654876 l 26.63270464816678 -10.465165476751393" fill="#d7ff1c" stroke="none" /><path d="M 80.45479744820244 107.68017299344265 l -29.527309307986695 11.602583442931415 a52.725099487940206,52.725099487940206 0 0,0 -0.32465033203771493,-0.8475595725478929 l 29.72265391961792 -11.092600303550364" fill="#aeff20" stroke="none" /><path d="M 80.32549172779594 107.34259656027581 l -25.43915687548774 9.4939839504994 a48.15301887061575,48.15301887061575 0 0,0 -0.28312998047041216,-0.7790521067665579 l 25.598811116963375 -9.054684046726726" fill="#eaff1a" stroke="none" /><path d="M 80.20201598880116 107.00284435728193 l -34.65077844610769 12.256500872992572 a57.754567887147154,57.754567887147154 0 0,0 -0.3234507970685847,-0.9400994202432957 l 34.8566200741195 -11.65822874965998" fill="#6fff28" stroke="none" /><path d="M 80.0844068197444 106.66101706037122 l -24.103580318233725 8.061741282953959 a46.41602362036257,46.41602362036257 0 0,0 -0.24690616740034788,-0.7598990466350911 l 24.23877873665032 -7.645643336341064" fill="#fffc17" stroke="none" /><path d="M 79.97269907076064 106.31721596034903 l -26.25353509395003 8.281158379607145 a48.52863398422456,48.52863398422456 0 0,0 -0.24443001154191038,-0.7988114203447849 l 26.392191877998073 -7.828019986710313" fill="#e5ff1a" stroke="none" /><path d="M 79.86692584326677 105.97154293290107 l -29.77618174895536 8.831723675556344 a52.05833773124706,52.05833773124706 0 0,0 -0.24741930557373354,-0.8612990610656581 l 29.923793691415195 -8.31786713898609" fill="#b6ff1f" stroke="none" /><path d="M 79.76711848015287 105.62410040840567 l -26.981889025633034 7.500110794389997 a49.004892381862525,49.004892381862525 0 0,0 -0.21891634395270593,-0.8146691547269128 l 27.106993445927515 -7.034550706487544" fill="#dfff1b" stroke="none" /><path d="M 79.67330655649465 105.27499134158121 l -26.421599226919305 6.856683677554056 a48.2967949906574,48.2967949906574 0 0,0 -0.20190057885670545,-0.8064924499788121 l 26.53571112007107 -6.400863388177852" fill="#e8ff1a" stroke="none" /><path d="M 79.58551787078972 104.9243191809786 l -26.81000460829249 6.467027627697482 a48.578955626239136,48.578955626239136 0 0,0 -0.18908649240826,-0.8145796604415058 l 26.91735166663131 -6.0045793099074025" fill="#e5ff1a" stroke="none" /><path d="M 79.50377843672027 104.57218783832718 l -13.434557128456497 2.996909382853657 a34.76476629248741,34.76476629248741 0 0,0 -0.12526235524005808,-0.5851840216962413 l 13.484153522420996 -2.7652115417412517" fill="#ff4d07" stroke="none" /><path d="M 79.4281124754447 104.21870165774334 l -23.059856748488084 4.728912491673446 a44.53974525381905,44.53974525381905 0 0,0 -0.14755395535975874,-0.7523744394610722 l 23.13784063682351 -4.331274325144419" fill="#ffe115" stroke="none" /><path d="M 79.35854240842038 103.8639653848113 l -12.886742055705259 2.4123260193868172 a34.110584946297905,34.110584946297905 0 0,0 -0.10306847470161504,-0.5780627420909207 l 12.926356972746063 -2.190144526562683" fill="#ff4206" stroke="none" /><path d="M 79.29508885075956 103.50808413554451 l -9.443594172207012 1.6000514399336287 a30.578185397024633,30.578185397024633 0 0,0 -0.08346133056060237,-0.5197137850709408 l 9.469737257128905 -1.4372584251694742" fill="#ff0801" stroke="none" /><path d="M 79.23777060512086 103.15116336523772 l -23.206586630402867 3.5221528589785005 a44.47235019754953,44.47235019754953 0 0,0 -0.10835571435141725,-0.7578396138031631 l 23.263776395770883 -3.122167773194937" fill="#ffe015" stroke="none" /><path d="M 79.18660465613746 102.79330883721812 l -26.653460288512505 3.5770879732171386 a47.892424653040266,47.892424653040266 0 0,0 -0.10262318228075501,-0.8180077346273122 l 26.71108498004011 -3.1177624843024176" fill="#eeff19" stroke="none" /><path d="M 79.1416061653843 102.43462659150553 l -23.468482255661264 2.7392804745630293 a44.627808127344565,44.627808127344565 0 0,0 -0.08249280002648418,-0.7637808755803739 l 23.5121573571888 -2.3349032770978733" fill="#ffe215" stroke="none" /><path d="M 79.10278846688536 102.07522291339032 l -13.455063198966302 1.3361713550806915 a34.52124548916687,34.52124548916687 0 0,0 -0.05363188433820291,-0.5918233745992348 l 13.476069679581581 -1.1043665919328907" fill="#ff4906" stroke="none" /><path d="M 79.07016306316243 101.71520430193888 l -17.941523485814965 1.4703114199635539 a39.00166882996477,39.00166882996477 0 0,0 -0.04907420515817119,-0.6695785397456787 l 17.96417424963747 -1.1612597437211143" fill="#ff8f0d" stroke="none" /><line stroke="#e1ed5e" stroke-width="0.3" x1="15.007084014347285" x2="10.007500721073583" y1="101.09737516637583" y2="101.16192664675087" /><path d="M 14.007167355692545 101.11028546245083 a86.0,86.0 0 0,1 10.666146001902534,-42.60595125391555" fill="none" id="id22" stroke="none" /><text fill="#e1ed5e" style="font-size:6.75px; font-family:Arial;" text-anchor="middle"><textPath startOffset="22.20632615414155" xlink:href="#id22">October</textPath></text><path d="M 79.00019446554 99.90962569577889 l -14.158222311013631 -0.060931016159464696 a35.158353421101424,35.158353421101424 0 0,0 0.007813513579481974,-0.6051652375249394 l 14.155075790316433 0.30463251174487604" fill="#ff5307" stroke="none" /><path d="M 79.12142395522702 97.74499172005258 l -26.90846390160397 -2.906271422373866 a48.06495599709024,48.06495599709024 0 0,0 0.09592311136838495,-0.8218106389473923 l 26.854450437231993 3.3690257996461197" fill="#ecff1a" stroke="none" /><path d="M 79.16333360222342 97.38593545837743 l -31.012927041344028 -3.8907275935154226 a52.25602989630433,52.25602989630433 0 0,0 0.11965138051275044,-0.8915417632555542 l 30.941359661773443 4.423987698835637" fill="#b4ff20" stroke="none" /><path d="M 79.21141760316559 97.0276538004421 l -13.622631223885186 -1.9477603317703742 a34.76117188948637,34.76117188948637 0 0,0 0.08978993867371575,-0.5916035089330232 l 13.587085391772169 2.1819629530954896" fill="#ff4d07" stroke="none" /><path d="M 79.26566170972629 96.67025291283419 l -27.80676787668353 -4.46551527445251 a49.163046113908344,49.163046113908344 0 0,0 0.14137451603877896,-0.8344003964133924 l 27.72578149912453 4.943501459181731" fill="#ddff1b" stroke="none" /><path d="M 79.32604984820605 96.31383870115002 l -8.94645443031959 -1.5951510882455835 a30.087549387382502,30.087549387382502 0 0,0 0.09529769365847779,-0.5090840901316449 l 8.917671012751251 1.748913255839801" fill="#ff0000" stroke="none" /><path d="M 79.46518482838121 95.60439243477599 l -12.807862012359989 -2.741604182232172 a34.09800453579426,34.09800453579426 0 0,0 0.12779544519033287,-0.5728819226196535 l 12.758772180167618 2.961664274401785" fill="#ff4206" stroke="none" /><path d="M 79.54389044137918 95.25157060432595 l -13.420519694451833 -3.115274194232174 a34.77734670299105,34.77734670299105 0 0,0 0.1403799187795875,-0.5819653921491639 l 13.364906975411431 3.3458248180407346" fill="#ff4d07" stroke="none" /><path d="M 79.62865764111835 94.90015583598534 l -13.502635601951672 -3.3803043589519293 a34.91932562153218,34.91932562153218 0 0,0 0.1509906121452515,-0.5818284215427263 l 13.442448657936115 3.6122292060435193" fill="#ff4f07" stroke="none" /><path d="M 79.71946130924805 94.55025226153421 l -9.92693158154495 -2.6675461515772647 a31.279093982227675,31.279093982227675 0 0,0 0.14420143343703679,-0.5187692796812606 l 9.879543377541552 2.838026734677468" fill="#ff1402" stroke="none" /><path d="M 79.81627453868168 94.20196356495316 l -13.84207026067475 -3.9763138802933633 a35.401874224421974,35.401874224421974 0 0,0 0.17329066197445914,-0.5842499647752291 l 13.771573701588585 4.213993231815132" fill="#ff5708" stroke="none" /><path d="M 80.14247586403 93.16781622104843 l -13.5070477541562 -4.6472375879080055 a35.28415752613787,35.28415752613787 0 0,0 0.20254268980939485,-0.5726154587831019 l 13.425051983536997 4.879050673117719" fill="#ff5507" stroke="none" /><line stroke="#e1ed5e" stroke-width="0.3" x1="26.266209847984243" x2="21.928928074336255" y1="57.711370442889674" y2="55.22380399835377" /><path d="M 25.398753493254645 57.213857153982495 a86.0,86.0 0 0,1 29.58750427330803,-30.492523968695096" fill="none" id="id23" stroke="none" /><text fill="#e1ed5e" style="font-size:6.75px; font-family:Arial;" text-anchor="middle"><textPath startOffset="21.46611528233685" xlink:href="#id23">November</textPath></text><line stroke="#e1ed5e" stroke-width="0.3" x1="56.762969772571076" x2="54.21961505331055" y1="26.818313649435495" y2="22.513508569990535" /><path d="M 56.25429882871897 25.957352633546506 a86.0,86.0 0 0,1 42.265352541879196,-11.944610805530505" fill="none" id="id24" stroke="none" /><text fill="#e1ed5e" style="font-size:6.75px; font-family:Arial;" text-anchor="middle"><textPath startOffset="22.20632615414155" xlink:href="#id24">December</textPath></text></svg>