<?xml version="1.0" encoding="utf-8" ?>
<svg baseProfile="full" height="200mm" version="1.1" viewBox="0,0,200,200" width="200mm" xmlns="http://www.w3.org/2000/svg" xmlns:ev="http://www.w3.org/2001/xml-events" xmlns:xlink="http://www.w3.org/1999/xlink"><defs /><rect fill="#1a1a1a" height="200" width="200" x="0" y="0" /><text alignment-baseline="middle" fill="#e1ed5e" style="dominant-baseline: central; font-size:9.0px; font-family:Arial;" text-anchor="middle" x="100.0" y="100.0">2024</text><line stroke="#e1ed5e" stroke-width="0.3" x1="100.0" x2="100.0" y1="15.0" y2="10.0" /><path d="M 100.0 14.0 a86.0,86.0 0 0,1 42.35913384403234,11.155469271406648" fill="none" id="id73" stroke="none" /><text fill="#e1ed5e" style="font-size:6.75px; font-family:Arial;" text-anchor="middle"><textPath startOffset="22.145653131862478" xlink:href="#id73">January</textPath></text><path d="M 106.72888874123014 80.10723608172694 l 17.533608127026962 -51.83499690956358 a75.72014545454546,75.72014545454546 0 0,0 1.227727260342113,0.42706727208431833 l -18.420841159414096 51.526371204910674" fill="#ffd513" stroke="none" /><path d="M 109.3889696526874 81.21577127319529 l 24.57155951239308 -49.159578859963034 a75.9584,75.9584 0 0,0 1.161341643913871,0.5929893182692482 l -25.41182837802053 48.73053159002095" fill="#ffe515" stroke="none" /><line stroke="#e1ed5e" stroke-width="0.3" x1="143.13028292997686" x2="145.6673583964461" y1="26.7553504044142" y2="22.446841604673864" /><path d="M 143.63769802327073 25.89364864446614 a86.0,86.0 0 0,1 29.32050498858742,28.57503671076993" fill="none" id="id74" stroke="none" /><text fill="#e1ed5e" style="font-size:6.75px; font-family:Arial;" text-anchor="middle"><textPath startOffset="20.669276256404974" xlink:href="#id74">February</textPath></text><path d="M 114.65682725009322 84.96080404539774 l 38.57819059034231 -39.58462209878753 a76.27403636363636,76.27403636363636 0 0,0 0.9298461711139029,0.9218988156970018 l -39.252028681586175 38.916543272861865" fill="#fffb17" stroke="none" /><path d="M 115.16444852881244 85.47280134310134 l 39.98194165082625 -38.301795673381434 a76.36770909090907,76.36770909090907 0 0,0 0.8987539901306935,0.9544455921611202 l -40.633551474693206 37.60980862127582" fill="#fdff18" stroke="none" /><path d="M 117.01052211995028 87.68569379921539 l 44.758498178306986 -32.401701004139625 a76.25570909090908,76.25570909090908 0 0,0 0.7585079180944061,1.066936377348771 l -45.30812119493135 31.628587400081347" fill="#fffa17" stroke="none" /><path d="M 117.42321728460499 88.27688183743584 l 46.08345936047377 -31.007008097173333 a76.54385454545454,76.54385454545454 0 0,0 0.7241615832851734,1.0964729350838585 l -46.60894538267967 30.211355283750414" fill="#f1ff19" stroke="none" /><line stroke="#e1ed5e" stroke-width="0.3" x1="172.87174338648825" x2="177.1583165268699" y1="56.24261187166439" y2="53.66864786411523" /><path d="M 173.72905801456457 55.72781907015455 a86.0,86.0 0 0,1 12.242430191666344,42.057860355516425" fill="none" id="id75" stroke="none" /><text fill="#e1ed5e" style="font-size:6.75px; font-family:Arial;" text-anchor="middle"><textPath startOffset="22.145653131862474" xlink:href="#id75">March</textPath></text><path d="M 118.18653347947321 89.5 l 49.02384009009804 -28.30392727272728 a77.60785454545454,77.60785454545454 0 0,0 0.6562174085498511,1.1594732833699404 l -49.502490863669266 27.45819721925822" fill="#acff21" stroke="none" /><path d="M 118.36410011445183 89.81374322990088 l 48.51505876539402 -26.910485279474468 a76.47869090909091,76.47869090909091 0 0,0 0.6269601093014725,1.153535985125921 l -48.96986422431083 26.073694460873945" fill="#f5ff19" stroke="none" /><path d="M 118.8641267826498 90.77261029715802 l 49.53605365082733 -24.23056612392345 a76.14472727272727,76.14472727272727 0 0,0 0.5642713790772355,1.1791101591787263 l -49.944704287864475 23.37664346267962" fill="#fff216" stroke="none" /><path d="M 120.16314734710363 94.1308016681162 l 53.46631231808219 -15.563264289408819 a76.68538181818182,76.68538181818182 0 0,0 0.3570672509532499,1.2671057068276685 l -53.72559806111002 14.643150658678138" fill="#e7ff1a" stroke="none" /><path d="M 120.592083275326 95.88100663000786 l 54.495887583860316 -10.900703763116644 a76.57541818181818,76.57541818181818 0 0,0 0.24676868897180815,1.2911980552230051 l -54.674982565114284 9.963603142860324" fill="#efff19" stroke="none" /><path d="M 120.7213421655516 96.59031103205396 l 62.15699379870773 -10.227909676067192 a83.99287272727273,83.99287272727273 0 0,0 0.22189520237760432,1.4247263761420421 l -62.3234104932236 9.159395117993709" fill="#4dd2ff" stroke="none" /><path d="M 120.86939407059847 97.66154086499901 l 55.29655837886717 -6.196094703935453 a76.64261818181816,76.64261818181816 0 0,0 0.1352837376162457,1.3087474419236178 l -55.39477450896508 5.245942739728903" fill="#eaff1a" stroke="none" /><path d="M 120.93736805541906 98.37931529534042 l 55.33251493802311 -4.28308660348507 a76.49803636363636,76.49803636363636 0 0,0 0.09010754277557599,1.3101438960696516 l -55.397886441963756 3.3325992832610836" fill="#f4ff19" stroke="none" /><path d="M 120.98066250479742 99.09900007780936 l 62.94198751439227 -2.7029997665719256 a84.0,84.0 0 0,0 0.049501252012607466,1.4411749417435202 l -62.97911345340172 1.6221185602642854" fill="#4dd2ff" stroke="none" /><path d="M 120.99303781780057 99.45929381324524 l 55.53154701883946 -1.4302956672468508 a76.54996363636364,76.54996363636364 0 0,0 0.022558794575393552,1.3139366892944333 l -55.547917245013515 0.47681206198335113" fill="#f0ff19" stroke="none" /><line stroke="#e1ed5e" stroke-width="0.3" x1="184.99686870605535" x2="189.99668451229388" y1="99.2704041080226" y2="99.22748670261217" /><path d="M 185.99683186730306 99.26182062694052 a86.0,86.0 0 0,1 -10.086455211305974,41.156179273409016" fill="none" id="id76" stroke="none" /><text fill="#e1ed5e" style="font-size:6.75px; font-family:Arial;" text-anchor="middle"><textPath startOffset="21.40746469413373" xlink:href="#id76">April</textPath></text><path d="M 120.99922638620191 100.18025310272382 l 55.55708054380021 0.4768907178827147 a76.55912727272727,76.55912727272727 0 0,0 -0.02256149504159654,1.3140939779129022 l -55.540707617159946 -1.430531611764688" fill="#f0ff19" stroke="none" /><path d="M 120.98066250479742 100.90099992219065 l 55.483552727232286 2.3827024851415413 a76.53469090909091,76.53469090909091 0 0,0 -0.06763629593834403,1.3121260720222019 l -55.434474841837364 -3.334800350540474" fill="#f1ff19" stroke="none" /><path d="M 120.93736805541906 101.62068470465957 l 55.31322718078419 4.281593609090455 a76.47869090909091,76.47869090909091 0 0,0 -0.1125561560390107,1.308073147562291 l -55.231577402047435 -5.230487804028404" fill="#f5ff19" stroke="none" /><path d="M 120.9064616781168 101.97986365728391 l 55.24779574807651 5.232023698259508 a76.49498181818181,76.49498181818181 0 0,0 -0.13502314110278352,1.3062264070499707 l -55.14984021449206 -6.17965462759241" fill="#f4ff19" stroke="none" /><path d="M 120.82617615685814 102.69636545807757 l 55.12549987545968 7.137099609834129 a76.5856,76.5856 0 0,0 -0.1799961577575854,1.3023625325481698 l -54.99485920114689 -8.082350450582384" fill="#eeff19" stroke="none" /><path d="M 120.7213421655516 103.40968896794604 l 54.93642234931044 9.039767391818536 a76.67520000000002,76.67520000000002 0 0,0 -0.2248598183723541,1.2969316782003493 l -54.77314771344586 -9.981492102939473" fill="#e8ff1a" stroke="none" /><path d="M 120.592083275326 104.11899336999214 l 55.16781350115944 11.03510776495929 a77.26065454545454,77.26065454545454 0 0,0 -0.2713036918757042,1.2982863786672423 l -54.970252098459376 -11.98051059491194" fill="#c2ff1e" stroke="none" /><path d="M 120.51834098615036 104.47187691870673 l 53.73765939630954 11.711872752377268 a75.99912727272726,75.99912727272726 0 0,0 -0.2887573755933497,1.272318276175704 l -53.52869115915853 -12.632625362491988" fill="#ffe815" stroke="none" /><path d="M 120.35273937422433 105.17358676015961 l 53.637485996895194 13.63443919265336 a76.34327272727273,76.34327272727273 0 0,0 -0.3337674050550945,1.2673692015576832 l -53.39552911103537 -14.553188898583846" fill="#feff18" stroke="none" /><path d="M 120.16314734710363 105.8691983318838 l 53.04789646040653 15.441469531297479 a76.2496,76.2496 0 0,0 -0.3766137671548209,1.2536247438689891 l -52.775006373248075 -16.34983187875719" fill="#fff917" stroke="none" /><path d="M 119.94978838288452 106.5578916946017 l 59.743933539745235 19.639017619819054 a83.88901818181819,83.88901818181819 0 0,0 -0.4614478366657589,1.3641885351951246 l -59.39800028150711 -20.66170782948834" fill="#4cd8ff" stroke="none" /><path d="M 119.83427380445688 106.89939002012753 l 52.053789418736805 18.107010055732506 a76.11316363636362,76.11316363636362 0 0,0 -0.4398609807774577,1.2303694482763923 l -51.7352882679154 -18.997914460389822" fill="#fff016" stroke="none" /><path d="M 119.58574465831526 107.57618678355244 l 51.668381423463465 19.98643989784673 a76.39927272727273,76.39927272727273 0 0,0 -0.4836485975232414,1.2191104084063136 l -51.3176741509741 -20.870451323466607" fill="#faff18" stroke="none" /><path d="M 119.31412917781788 108.2440532568976 l 51.73658224562823 22.083270513312918 a77.25250909090909,77.25250909090909 0 0,0 -0.531078325804934,1.2152111408435071 l -51.349870037806326 -22.968143723932272" fill="#c2ff1e" stroke="none" /><line stroke="#e1ed5e" stroke-width="0.3" x1="174.33088141563837" x2="178.70328620479359" y1="141.23008692659167" y2="143.65538615756765" /><path d="M 175.20536237346943 141.71514677278685 a86.0,86.0 0 0,1 -30.301960400862466,31.631185727798858" fill="none" id="id77" stroke="none" /><text fill="#e1ed5e" style="font-size:6.75px; font-family:Arial;" text-anchor="middle"><textPath startOffset="22.145653131862474" xlink:href="#id77">May</textPath></text><path d="M 116.1254893667686 113.45245675266167 l 42.08889547060627 35.11205354501994 a75.81178181818183,75.81178181818183 0 0,0 -0.8422524213521101,0.9921712345391958 l -41.479948485747045 -35.82939156200869" fill="#ffdb14" stroke="none" /><path d="M 115.16444852881244 114.52719865689866 l 37.4975454530635 35.921800315240326 a72.92727272727274,72.92727272727274 0 0,0 -0.8737840178217426,0.8965793784556759 l -36.87537463409095 -36.56020238576374" fill="#ff0000" stroke="none" /><path d="M 114.39649973595853 115.28858382429668 l 38.03188773883328 40.38854682427292 a76.47665454545455,76.47665454545455 0 0,0 -0.9634974277254112,0.8917988349212528 l -37.332960539793895 -41.03546340532655" fill="#f5ff19" stroke="none" /><line stroke="#e1ed5e" stroke-width="0.3" x1="143.1302829299769" x2="145.66735839644613" y1="173.24464959558577" y2="177.55315839532614" /><path d="M 143.63769802327073 174.10635135553383 a86.0,86.0 0 0,1 -40.68552437913181,11.842963189579606" fill="none" id="id78" stroke="none" /><text fill="#e1ed5e" style="font-size:6.75px; font-family:Arial;" text-anchor="middle"><textPath startOffset="21.407464694133747" xlink:href="#id78">June</textPath></text><line stroke="#e1ed5e" stroke-width="0.3" x1="101.45913802915013" x2="101.54496967792366" y1="184.9874750549273" y2="189.98673829345242" /><path d="M 101.47630435890484 185.9873277026323 a86.0,86.0 0 0,1 -42.54439059252881,-10.42667462771756" fill="none" id="id79" stroke="none" /><text fill="#e1ed5e" style="font-size:6.75px; font-family:Arial;" text-anchor="middle"><textPath startOffset="22.145653131862474" xlink:href="#id79">July</textPath></text><line stroke="#e1ed5e" stroke-width="0.3" x1="58.13341422392154" x2="55.67067388415222" y1="173.97424548756322" y2="178.32567169271397" /><path d="M 57.64086615596768 174.84453072859336 a86.0,86.0 0 0,1 -31.369924170532247,-30.572349798747897" fill="none" id="id80" stroke="none" /><text fill="#e1ed5e" style="font-size:6.75px; font-family:Arial;" text-anchor="middle"><textPath startOffset="22.145653131862474" xlink:href="#id80">August</textPath></text><line stroke="#e1ed5e" stroke-width="0.3" x1="26.387840678322732" x2="22.057713659400548" y1="142.50000000000003" y2="145.00000000000006" /><path d="M 25.521815274538298 143.00000000000003 a86.0,86.0 0 0,1 -11.493303480769221,-40.785679425670985" fill="none" id="id81" stroke="none" /><text fill="#e1ed5e" style="font-size:6.75px; font-family:Arial;" text-anchor="middle"><textPath startOffset="21.40746469413373" xlink:href="#id81">September</textPath></text><line stroke="#e1ed5e" stroke-width="0.3" x1="15.003131293944662" x2="10.003315487706104" y1="100.72959589197737" y2="100.7725132973878" /><path d="M 14.003168132696942 100.73817937305945 a86.0,86.0 0 0,1 10.791469493833604,-42.45332614584628" fill="none" id="id82" stroke="none" /><text fill="#e1ed5e" style="font-size:6.75px; font-family:Arial;" text-anchor="middle"><textPath startOffset="22.145653131862435" xlink:href="#id82">October</textPath></text><line stroke="#e1ed5e" stroke-width="0.3" x1="26.387840678322718" x2="22.05771365940052" y1="57.49999999999999" y2="54.99999999999999" /><path d="M 25.521815274538284 56.99999999999999 a86.0,86.0 0 0,1 29.574782752854787,-30.34633250058573" fill="none" id="id83" stroke="none" /><text fill="#e1ed5e" style="font-size:6.75px; font-family:Arial;" text-anchor="middle"><textPath startOffset="21.40746469413373" xlink:href="#id83">November</textPath></text><line stroke="#e1ed5e" stroke-width="0.3" x1="56.869717070023135" x2="54.33264160355391" y1="26.7553504044142" y2="22.446841604673864" /><path d="M 56.362301976729285 25.89364864446614 a86.0,86.0 0 0,1 42.16139366436587,-11.88097634709845" fill="none" id="id84" stroke="none" /><text fill="#e1ed5e" style="font-size:6.75px; font-family:Arial;" text-anchor="middle"><textPath startOffset="22.145653131862474" xlink:href="#id84">December</textPath></text></svg>