<?xml version="1.0" encoding="utf-8" ?>
<svg baseProfile="full" height="200mm" version="1.1" viewBox="0,0,200,200" width="200mm" xmlns="http://www.w3.org/2000/svg" xmlns:ev="http://www.w3.org/2001/xml-events" xmlns:xlink="http://www.w3.org/1999/xlink"><defs /><rect fill="#1a1a1a" height="200" width="200" x="0" y="0" /><text alignment-baseline="middle" fill="#e1ed5e" style="dominant-baseline: central; font-size:9.0px; font-family:Arial;" text-anchor="middle" x="100.0" y="100.0">2021</text><line stroke="#e1ed5e" stroke-width="0.3" x1="100.0" x2="100.0" y1="15.0" y2="10.0" /><path d="M 100.0 14.0 a86.0,86.0 0 0,1 42.46469731375804,11.215312516191453" fill="none" id="id37" stroke="none" /><text fill="#e1ed5e" style="font-size:6.75px; font-family:Arial;" text-anchor="middle"><textPath startOffset="22.20632615414155" xlink:href="#id37">January</textPath></text><line stroke="#e1ed5e" stroke-width="0.3" x1="143.23703022742887" x2="145.7803849466894" y1="26.81831364943548" y2="22.513508569990506" /><path d="M 143.74570117128098 25.957352633546492 a86.0,86.0 0 0,1 28.547481713284135,27.462654790039103" fill="none" id="id38" stroke="none" /><text fill="#e1ed5e" style="font-size:6.75px; font-family:Arial;" text-anchor="middle"><textPath startOffset="19.985693538727396" xlink:href="#id38">February</textPath></text><line stroke="#e1ed5e" stroke-width="0.3" x1="172.23445277983987" x2="176.4835382374775" y1="55.19839476539836" y2="52.563006222186495" /><path d="M 173.08426987136738 54.67131705675599 a86.0,86.0 0 0,1 12.851231095245387,41.99856678651699" fill="none" id="id39" stroke="none" /><text fill="#e1ed5e" style="font-size:6.75px; font-family:Arial;" text-anchor="middle"><textPath startOffset="22.20632615414155" xlink:href="#id39">March</textPath></text><line stroke="#e1ed5e" stroke-width="0.3" x1="184.98032266829074" x2="189.97916517819016" y1="98.17113171792111" y2="98.06355123074" /><path d="M 185.9800911702706 98.14961562048488 a86.0,86.0 0 0,1 -9.607161424134198,41.387399972396054" fill="none" id="id40" stroke="none" /><text fill="#e1ed5e" style="font-size:6.75px; font-family:Arial;" text-anchor="middle"><textPath startOffset="21.466115282336823" xlink:href="#id40">April</textPath></text><line stroke="#e1ed5e" stroke-width="0.3" x1="174.80103733775053" x2="179.2010983576182" y1="140.37084112569926" y2="142.7455964860345" /><path d="M 175.68104954172406 140.8457921977663 a86.0,86.0 0 0,1 -30.038265399797805,32.042727171017184" fill="none" id="id41" stroke="none" /><text fill="#e1ed5e" style="font-size:6.75px; font-family:Arial;" text-anchor="middle"><textPath startOffset="22.206326154141568" xlink:href="#id41">May</textPath></text><line stroke="#e1ed5e" stroke-width="0.3" x1="143.8653032363475" x2="146.44561519142675" y1="172.8068346515853" y2="177.08958963109032" /><path d="M 144.38136562736335 173.6633856474863 a86.0,86.0 0 0,1 -40.68145358897372,12.25698825130547" fill="none" id="id42" stroke="none" /><text fill="#e1ed5e" style="font-size:6.75px; font-family:Arial;" text-anchor="middle"><textPath startOffset="21.466115282336833" xlink:href="#id42">June</textPath></text><path d="M 107.59598834532513 119.57807347666477 l 4.245847859906914 10.943345038589506 a32.738144005041754,32.738144005041754 0 0,0 -0.5271305431020524,0.19931566663360475 l -4.056847096044587 -11.014808955329741" fill="#ff5a08" stroke="none" /><path d="M 107.2578585660854 119.70592522655815 l 19.627926029749034 53.29208873014259 a77.79174413108555,77.79174413108555 0 0,0 -1.2605242320145258,0.45197914229638086 l -18.707682237104773 -53.622055413478925" fill="#45ffec" stroke="none" /><path d="M 106.57524785965236 119.94407469862006 l 19.53403149726735 59.250722050696154 a83.38771072947848,83.38771072947848 0 0,0 -1.3670766136138386,0.43769476082258363 l -18.511233538562568 -59.578189658178445" fill="#4cd8ff" stroke="none" /><path d="M 105.18746579009965 120.34920634021253 l 12.120238443518529 47.54484038245519 a70.06538522136442,70.06538522136442 0 0,0 -1.1712487302457877,0.28786444155438495 l -11.30003642852953 -47.7464260823236" fill="#3aff95" stroke="none" /><path d="M 104.83641907484287 120.43548508189849 l 13.224327933398252 55.87720005629863 a78.42076571608635,78.42076571608635 0 0,0 -1.3162733230525467,0.29957952290874224 l -12.260534460952844 -56.09655631278506" fill="#45fff3" stroke="none" /><path d="M 102.34483914955558 120.86867818915974 l 4.011427677247781 35.701038722182055 a56.92569717976997,56.92569717976997 0 0,0 -0.9746964343497931,0.10103127071363235 l -3.396298646292385 -35.76479936135144" fill="#67ff29" stroke="none" /><path d="M 101.98527174616119 120.90594882070398 l 2.7792821395132052 29.267293144785487 a50.39896013864818,50.39896013864818 0 0,0 -0.8643558035167467,0.07458025574696808 l -2.275082018254917 -29.310797652811118" fill="#b3ff20" stroke="none" /><line stroke="#e1ed5e" stroke-width="0.3" x1="102.19456741930631" x2="102.32365962044197" y1="184.97166512339345" y2="189.96999836594603" /><path d="M 102.22038585953345 185.97133177190398 a86.0,86.0 0 0,1 -42.740103519485714,-10.115201625700543" fill="none" id="id43" stroke="none" /><text fill="#e1ed5e" style="font-size:6.75px; font-family:Arial;" text-anchor="middle"><textPath startOffset="22.20632615414155" xlink:href="#id43">July</textPath></text><path d="M 99.45781275523022 120.99299961872073 l -1.6265617343093406 62.97899885616221 a84.0,84.0 0 0,0 -1.445118593301428,-0.04977280629562486 l 2.7104006792854114 -62.94166925144049" fill="#4dd2ff" stroke="none" /><path d="M 98.01472825383883 120.90594882070398 l -0.5562639472779323 5.8577500209138105 a26.88410272569718,26.88410272569718 0 0,0 -0.4603165242698774,-0.047713689861282764 l 0.657013068153403 -5.847306962596767" fill="#ff0000" stroke="none" /><path d="M 96.93821686468263 120.77559828337769 l -4.610681948992349 31.285584821394313 a52.623507168741135,52.623507168741135 0 0,0 -0.8950109281816397,-0.13978230015257592 l 5.148528740782506 -31.20158421389463" fill="#98ff23" stroke="none" /><path d="M 92.06813273071674 119.44442032107085 l -10.976108965075742 26.907166870190476 a50.05977627225461,50.05977627225461 0 0,0 -0.7950649579985071,-0.33233721692505447 l 11.437645382571711 -26.714244610245448" fill="#b7ff1f" stroke="none" /><line stroke="#e1ed5e" stroke-width="0.3" x1="58.666819895761336" x2="56.23545636021788" y1="174.27360380694188" y2="178.64263932499728" /><path d="M 58.180547188652646 175.14741091055294 a86.0,86.0 0 0,1 -31.652253787137756,-30.449443065178592" fill="none" id="id44" stroke="none" /><text fill="#e1ed5e" style="font-size:6.75px; font-family:Arial;" text-anchor="middle"><textPath startOffset="22.20632615414155" xlink:href="#id44">August</textPath></text><line stroke="#e1ed5e" stroke-width="0.3" x1="26.63291911575756" x2="22.317208475507996" y1="142.92168965132927" y2="145.44649492493687" /><path d="M 25.769776987707644 143.4266507060508 a86.0,86.0 0 0,1 -11.730757126820373,-40.83630448921669" fill="none" id="id45" stroke="none" /><text fill="#e1ed5e" style="font-size:6.75px; font-family:Arial;" text-anchor="middle"><textPath startOffset="21.46611528233685" xlink:href="#id45">September</textPath></text><line stroke="#e1ed5e" stroke-width="0.3" x1="15.007084014347285" x2="10.007500721073583" y1="101.09737516637583" y2="101.16192664675087" /><path d="M 14.007167355692545 101.11028546245083 a86.0,86.0 0 0,1 10.666146001902534,-42.60595125391555" fill="none" id="id46" stroke="none" /><text fill="#e1ed5e" style="font-size:6.75px; font-family:Arial;" text-anchor="middle"><textPath startOffset="22.20632615414155" xlink:href="#id46">October</textPath></text><path d="M 79.00175016825051 100.2711162175752 l -57.11482363248328 0.7374307418373842 a78.11958405545927,78.11958405545927 0 0,0 -0.005787183269427389,-1.3447375810818958 l 57.11905511304221 0.2458163174481869" fill="#45fff0" stroke="none" /><path d="M 79.62865764111835 94.90015583598534 l -7.413354735125036 -1.8558891807743072 a28.642130140223728,28.642130140223728 0 0,0 0.12384811808477822,-0.4772373198075669 l 7.380310285169951 1.983222926130738" fill="#ff1c02" stroke="none" /><path d="M 79.71946130924805 94.55025226153421 l -27.347710045451816 -7.348824567484561 a49.3178824641563,49.3178824641563 0 0,0 0.22736302238969605,-0.8179457619799422 l 27.21716025249576 7.818481632883446" fill="#c1ff1e" stroke="none" /><path d="M 79.81627453868168 94.20196356495316 l -9.320975163184961 -2.6775707839410554 a30.697936032771388,30.697936032771388 0 0,0 0.15026508547671147,-0.5066191674520519 l 9.273504180596543 2.8376193381396466" fill="#ff3b05" stroke="none" /><path d="M 80.38941819471856 92.48833698450439 l -52.997697745333454 -20.300307763068098 a77.75260753111706,77.75260753111706 0 0,0 0.48949505853005126,-1.2457115321806427 l 52.64040913692171 21.209568300144504" fill="#45ffec" stroke="none" /><path d="M 80.52162464483688 92.15188598940014 l -54.00300542771931 -21.75857769367 a79.22164802268787,79.22164802268787 0 0,0 0.520517588393605,-1.2604746273798653 l 53.620466152439505 22.684926891503174" fill="#47fffb" stroke="none" /><path d="M 81.43458229118936 90.18545643968196 l -16.315370483015283 -8.625063912905574 a39.45489207499606,39.45489207499606 0 0,0 0.3225754959755298,-0.5976834033152935 l 16.164486887821283 8.904628299553341" fill="#ffbb11" stroke="none" /><path d="M 81.6062741919709 89.86733742301443 l -24.7249034463254 -13.620356554450954 a49.22826532219946,49.22826532219946 0 0,0 0.4152576682979264,-0.7386970562062217 l 24.486788136735044 14.04393712059196" fill="#c2ff1e" stroke="none" /><line stroke="#e1ed5e" stroke-width="0.3" x1="26.266209847984243" x2="21.928928074336255" y1="57.711370442889674" y2="55.22380399835377" /><path d="M 25.398753493254645 57.213857153982495 a86.0,86.0 0 0,1 29.58750427330803,-30.492523968695096" fill="none" id="id47" stroke="none" /><text fill="#e1ed5e" style="font-size:6.75px; font-family:Arial;" text-anchor="middle"><textPath startOffset="21.46611528233685" xlink:href="#id47">November</textPath></text><path d="M 81.96595687620814 89.24020034530311 l -12.80652893769571 -7.640864818599311 a35.9127461792973,35.9127461792973 0 0,0 0.32130655463080887,-0.5281434939429293 l 12.673106584778683 7.860176085749314" fill="#ff890c" stroke="none" /><path d="M 84.31358615837235 86.03803664274999 l -15.335747695022857 -13.649846901637225 a41.53054986607846,41.53054986607846 0 0,0 0.47988819208173333,-0.5299045276084969 l 15.098515862325078 13.911804216515279" fill="#ffd814" stroke="none" /><path d="M 84.5562425177563 85.77008943001954 l -12.81537449306462 -11.808112965176164 a38.4259965337955,38.4259965337955 0 0,0 0.4523886680478209,-0.48257668918571006 l 12.610218503046344 12.026959071239926" fill="#ffad10" stroke="none" /><path d="M 85.05521093208273 85.24692304244772 l -10.864430083707328 -10.725060915645148 a36.26639357176619,36.26639357176619 0 0,0 0.44238817572041816,-0.4404884203033754 l 10.678206107819596 10.910485186598633" fill="#ff8e0d" stroke="none" /><path d="M 85.31137513191541 84.99185889309783 l -10.749022544082933 -10.98284206667918 a36.36763825429337,36.36763825429337 0 0,0 0.4511609121659574,-0.4340164400493241 l 10.558378388304549 11.166241593490817" fill="#ff900d" stroke="none" /><path d="M 86.10567301691215 84.25364557470407 l -18.741345234925124 -21.239450088886425 a49.32582322357019,49.32582322357019 0 0,0 0.6414851528195246,-0.5562896032254246 l 18.372966283458826 21.55890468553153" fill="#c1ff1e" stroke="none" /><path d="M 86.37877921826538 84.01681056812374 l -11.722975253089183 -13.755781304607922 a39.07345202457854,39.07345202457854 0 0,0 0.515662511123892,-0.43185252340633706 l 11.484455205006181 13.955534985408072" fill="#ffb610" stroke="none" /><path d="M 86.93701828274178 83.55741782278169 l -9.729450147474296 -12.246613143279538 a36.641027256971796,36.641027256971796 0 0,0 0.4972142816072901,-0.38808363347673824 l 9.517203310707579 12.412275165979498" fill="#ff940d" stroke="none" /><path d="M 87.22198572758235 83.33499621200491 l -9.086313104244772 -11.850310938218932 a35.93288167638254,35.93288167638254 0 0,0 0.494083704314292,-0.3721336026601081 l 8.88098324617209 12.004961130384894" fill="#ff890c" stroke="none" /><path d="M 87.51073957382395 83.11751280151077 l -9.27852341351095 -12.542340171013842 a36.60132345990232,36.60132345990232 0 0,0 0.5097251654046971,-0.3703370102610805 l 9.06125293175247 12.70019641609159" fill="#ff930d" stroke="none" /><path d="M 88.09926311788651 82.69761687909137 l -12.307615707293671 -17.89394088634697 a42.71797699700646,42.71797699700646 0 0,0 0.6094335891786936,-0.4114922798663826 l 11.997777423708436 18.103145078512018" fill="#ffe815" stroke="none" /><path d="M 88.39885842347998 82.49532879139004 l -13.08584956013642 -19.744909802594883 a44.68756893020324,44.68756893020324 0 0,0 0.6448479487328176,-0.419427043468476 l 12.744034585619316 19.967235770222892" fill="#fcff18" stroke="none" /><path d="M 89.00827224532344 82.1063720568725 l -9.500747843214812 -15.466435385067394 a39.15144162596502,39.15144162596502 0 0,0 0.5772748328411491,-0.34780162761460587 l 9.233110944156014 15.62768362214062" fill="#ffb711" stroke="none" /><line stroke="#e1ed5e" stroke-width="0.3" x1="56.762969772571076" x2="54.21961505331055" y1="26.818313649435495" y2="22.513508569990535" /><path d="M 56.25429882871897 25.957352633546506 a86.0,86.0 0 0,1 42.265352541879196,-11.944610805530505" fill="none" id="id48" stroke="none" /><text fill="#e1ed5e" style="font-size:6.75px; font-family:Arial;" text-anchor="middle"><textPath startOffset="22.20632615414155" xlink:href="#id48">December</textPath></text><path d="M 89.3179101791058 81.91981866633112 l -9.286053755800683 -15.71729301982398 a39.25552229399717,39.25552229399717 0 0,0 0.5847264591591802,-0.33871130662640975 l 9.014130564176183 15.874808483840438" fill="#ffb911" stroke="none" /><path d="M 89.63071344664047 81.73862282372117 l -18.32149238779194 -32.266027291664685 a58.104899952733575,58.104899952733575 0 0,0 0.8739970572355892,-0.48637841609507243 l 17.763371241484304 32.57662110531994" fill="#59ff2a" stroke="none" /><path d="M 90.26544431104013 81.39251694778311 l -11.92624941505467 -22.79687855901033 a46.7280605010241,46.7280605010241 0 0,0 0.7159173048343925,-0.366720649915155 l 11.532071622631513 22.99879173423799" fill="#e1ff1b" stroke="none" /><path d="M 90.58718382345135 81.22770947309562 l -8.002027211691509 -15.958707447864652 a38.85252875374192,38.85252875374192 0 0,0 0.6004172347568029,-0.2946221295117409 l 7.72613870992428 16.094084737511224" fill="#ffb310" stroke="none" /><path d="M 91.23893434514133 80.91482961587045 l -7.907024930305052 -17.22472173721729 a39.95289112966756,39.95289112966756 0 0,0 0.6274846625483123,-0.2815340773465385 l 7.609358149289966 17.358276145080357" fill="#ffc212" stroke="none" /><path d="M 91.56875222667455 80.76684994638697 l -8.81583366851601 -20.110457710743553 a42.95790137072633,42.95790137072633 0 0,0 0.6797908741302067,-0.2910509754645247 l 8.468359036595494 20.259228214170864" fill="#ffeb16" stroke="none" /><path d="M 92.57280143429618 80.3572730644239 l -11.024297034212859 -29.15598046612941 a52.17060028359855,52.17060028359855 0 0,0 0.8427233186310109,-0.31038211028644547 l 10.520791389809279 29.341425844222176" fill="#9eff22" stroke="none" /><path d="M 92.91201910852362 80.23233633223022 l -7.009649202315814 -19.549204488835418 a41.76792185284386,41.76792185284386 0 0,0 0.6788639705359037,-0.23684230947649815 l 6.672103227716625 19.66696765148413" fill="#ffdb14" stroke="none" /><path d="M 94.98787191387505 79.60689891045804 l -9.288856758177305 -37.79404508838852 a59.9187962817079,59.9187962817079 0 0,0 1.0037149160772492,-0.23754689190716965 l 8.636918155137522 37.94833789243656" fill="#46ff2d" stroke="none" /><path d="M 95.33964822691252 79.52364482259891 l -4.471080379642683 -19.64474664959037 a41.14712462580747,41.14712462580747 0 0,0 0.6919717353221781,-0.15123821967997317 l 4.132265920166985 19.71879836736621" fill="#ffd313" stroke="none" /><path d="M 96.04723909329186 79.375362276772 l -3.2355183876845373 -16.882223885484205 a38.18947534268158,38.18947534268158 0 0,0 0.6466839883037299,-0.11817736536248054 l 2.944439278277914 16.93541673219742" fill="#ffaa0f" stroke="none" /><path d="M 96.75951476605007 79.25152402106235 l -2.7320903055309933 -17.493278316069098 a38.70534110603435,38.70534110603435 0 0,0 0.6591538382194284,-0.09714214136758062 l 2.430567486882916 17.53771494159765" fill="#ffb110" stroke="none" /><path d="M 97.83486435360386 79.11191278185805 l -3.0707314445680485 -29.62479803258142 a50.78351977312116,50.78351977312116 0 0,0 0.870272034488688,-0.08264281599280845 l 2.5603342829891242 29.67326639308941" fill="#afff20" stroke="none" /><path d="M 98.55514903715128 79.0497635885617 l -2.7803811893155115 -40.31532990449691 a61.41109185441941,61.41109185441941 0 0,0 1.0552120268224008,-0.06365327111697174 l 2.0860071136534875 40.357216444994194" fill="#36ff2f" stroke="none" /><path d="M 98.91598698831166 79.02799685794201 l -2.1556021690123703 -41.70364651909908 a62.7593193634788,62.7593193634788 0 0,0 1.0793382638631703,-0.04647857609030322 l 1.4374230727598758 41.73457282171358" fill="#30ff39" stroke="none" /><path d="M 99.27714615592234 79.0124445844662 l -1.3698705921591319 -39.77323382949461 a60.796817394044425,60.796817394044425 0 0,0 1.0462071652918257,-0.027020444467696258 l 0.6850367916724271 39.790921066104666" fill="#3cff2e" stroke="none" /></svg>