<?xml version="1.0" encoding="utf-8" ?>
<svg baseProfile="full" height="200mm" version="1.1" viewBox="0,0,200,200" width="200mm" xmlns="http://www.w3.org/2000/svg" xmlns:ev="http://www.w3.org/2001/xml-events" xmlns:xlink="http://www.w3.org/1999/xlink"><defs /><rect fill="#1a1a1a" height="200" width="200" x="0" y="0" /><text alignment-baseline="middle" fill="#e1ed5e" style="dominant-baseline: central; font-size:9.0px; font-family:Arial;" text-anchor="middle" x="100.0" y="100.0">2022</text><line stroke="#e1ed5e" stroke-width="0.3" x1="100.0" x2="100.0" y1="15.0" y2="10.0" /><path d="M 100.0 14.0 a86.0,86.0 0 0,1 42.46469731375804,11.215312516191453" fill="none" id="id49" stroke="none" /><text fill="#e1ed5e" style="font-size:6.75px; font-family:Arial;" text-anchor="middle"><textPath startOffset="22.20632615414155" xlink:href="#id49">January</textPath></text><path d="M 100.0 79.0 l 0.0 -44.16510761647365 a65.16510761647365,65.16510761647365 0 0,0 1.1217102063356563,0.009654913882481787 l -0.760229727063128 44.15856407919973" fill="#32ff4c" stroke="none" /><path d="M 100.36148047927253 79.00311137660856 l 0.5459564542115208 -31.712326168679507 a52.71702538824551,52.71702538824551 0 0,0 0.9071680403365648,0.023429474075476152 l -1.0917511297429534 31.698229902461673" fill="#aaff21" stroke="none" /><path d="M 100.72285384407766 79.0124445844662 l 1.0917207624111387 -31.697348208237443 a52.716143171220125,52.716143171220125 0 0,0 0.906615161302985,0.039040755961358 l -1.6371767561034551 31.67385972575189" fill="#aaff21" stroke="none" /><path d="M 101.44485096284872 79.0497635885617 l 4.334552888546152 -62.8507092343149 a84.0,84.0 0 0,0 1.4416392425506352,0.11189895124614191 l -5.415782320459128 62.76678502088029" fill="#4dd2ff" stroke="none" /><path d="M 101.80526077348638 79.07773832637324 l 2.6880970222726686 -31.15398624403231 a52.269741356373665,52.269741356373665 0 0,0 0.8957412632214656,0.08506142615174 l -3.2239634125843786 31.10309927336539" fill="#afff20" stroke="none" /><path d="M 102.52436894288641 79.15227682838746 l 3.9215015097136385 -32.386065484584535 a53.622621164806546,53.622621164806546 0 0,0 0.9153771383993615,0.11884222406401666 l -4.478393376620846 32.31376493735638" fill="#9eff22" stroke="none" /><path d="M 102.88285421437855 79.19881850522331 l 8.633060605377894 -62.291689816365796 a83.8870762207503,83.8870762207503 0 0,0 1.4286009808421902,0.21053864878298856 l -9.70403056664874 62.13385668342184" fill="#4dd3ff" stroke="none" /><path d="M 103.59715602781102 79.31037775812273 l 6.066847872338246 -34.894452647359344 a56.4179258097492,56.4179258097492 0 0,0 0.9553566512000661,0.17458532152077605 l -6.666599644641213 34.784851844487825" fill="#7cff26" stroke="none" /><path d="M 104.307194497241 79.44645832069477 l 6.84512249793639 -32.66430402699626 a54.37382896192463,54.37382896192463 0 0,0 0.9144053958826337,0.19985360250973355 l -7.406370617972551 32.54163692639066" fill="#95ff23" stroke="none" /><path d="M 105.01212808612495 79.60689891045804 l 11.700674081774968 -47.60712920046311 a70.02391788379941,70.02391788379941 0 0,0 1.1680360006735546,0.29775838397812 l -12.51841897113355 47.39866782031613" fill="#39ff8c" stroke="none" /><path d="M 105.36241919743992 79.69619591428918 l 8.532705216220194 -32.30750313477306 a54.415293162117884,54.415293162117884 0 0,0 0.9035584563876705,0.2469766582491803 l -9.087561561831574 32.15583993569758" fill="#94ff23" stroke="none" /><path d="M 106.0581310904928 79.89281104454417 l 10.484169716457064 -34.797395167083145 a57.342489252356074,57.342489252356074 0 0,0 0.9426412407186546,0.2928832220337251 l -11.081596329886438 34.6117718101669" fill="#71ff27" stroke="none" /><path d="M 106.40334571778207 80.00007090966166 l 9.913165746705147 -30.962346987497373 a53.51057960258223,53.51057960258223 0 0,0 0.874814341396714,0.28841253418790297 l -10.444662910344277 30.787120729050233" fill="#a0ff22" stroke="none" /><path d="M 108.76106565485865 80.91482961587045 l 13.523087799813052 -29.45879473415951 a53.414417946814915,53.414417946814915 0 0,0 0.8323029229975063,0.39077738231109754 l -14.028168934110155 29.221652369208414" fill="#a1ff22" stroke="none" /><path d="M 109.08828744355905 81.06846463323043 l 14.052604261849067 -29.272552857794484 a53.470879836439764,53.470879836439764 0 0,0 0.8263255659598688,0.4054743665239758 l -14.554401094819367 29.026323331135675" fill="#a0ff22" stroke="none" /><line stroke="#e1ed5e" stroke-width="0.3" x1="143.23703022742887" x2="145.7803849466894" y1="26.81831364943548" y2="22.513508569990506" /><path d="M 143.74570117128098 25.957352633546492 a86.0,86.0 0 0,1 28.547481713284135,27.462654790039103" fill="none" id="id50" stroke="none" /><text fill="#e1ed5e" style="font-size:6.75px; font-family:Arial;" text-anchor="middle"><textPath startOffset="19.985693538727396" xlink:href="#id50">February</textPath></text><line stroke="#e1ed5e" stroke-width="0.3" x1="172.23445277983987" x2="176.4835382374775" y1="55.19839476539836" y2="52.563006222186495" /><path d="M 173.08426987136738 54.67131705675599 a86.0,86.0 0 0,1 12.851231095245387,41.99856678651699" fill="none" id="id51" stroke="none" /><text fill="#e1ed5e" style="font-size:6.75px; font-family:Arial;" text-anchor="middle"><textPath startOffset="22.20632615414155" xlink:href="#id51">March</textPath></text><path d="M 118.21658344932153 89.55222093294921 l 11.16053036926442 -6.400912437481699 a33.865811989749474,33.865811989749474 0 0,0 0.2856699912100583,0.5081750384484774 l -11.269058001766911 6.207853889098428" fill="#ff4606" stroke="none" /><path d="M 118.56541770881063 90.18545643968196 l 21.641758717175687 -11.440840544665607 a45.47975802047304,45.47975802047304 0 0,0 0.35991936976967426,0.69524966236051 l -21.835487520105477 11.066618160044753" fill="#fff417" stroke="none" /><path d="M 118.73160827565052 90.50648371742162 l 21.803617214333368 -11.050465715346686 a45.44402823094481,45.44402823094481 0 0,0 0.3476251479220919,0.7007910858368813 l -21.990602375208866 10.673515041010855" fill="#fff316" stroke="none" /><path d="M 119.61058180528143 92.48833698450437 l 22.094343510591077 -8.463046361809928 a44.659737295374654,44.659737295374654 0 0,0 0.26879932727896155,0.7202485584900751 l -22.236747426371664 8.08147466629052" fill="#ffe815" stroke="none" /><path d="M 119.97218684219823 93.5106431181261 l 22.21102057470157 -7.216798058154868 a44.35404909607763,44.35404909607763 0 0,0 0.22967902913686639,0.728145287818438 l -22.331955087606644 6.83340260391001" fill="#ffe415" stroke="none" /><path d="M 120.37134235888165 94.90015583598534 l 27.11067912152885 -6.786996961941633 a48.94731203876153,48.94731203876153 0 0,0 0.19757745601360457,0.819086110523626 l -27.223489377803276 6.319325619758601" fill="#dbff1b" stroke="none" /><path d="M 120.45610955862082 95.25157060432595 l 28.314886745412544 -6.572669166236289 a50.067727661004604,50.067727661004604 0 0,0 0.1876481522368765,0.8411898723728357 l -28.423829284651458 6.084301124313489" fill="#ccff1d" stroke="none" /><path d="M 120.67395015179393 96.31383870115 l 26.846373927001157 -4.78670325978222 a48.269769363263364,48.269769363263364 0 0,0 0.13880578650931638,0.8192396093230396 l -26.924791575030696 4.323877862143342" fill="#e4ff1a" stroke="none" /><path d="M 120.87857604477298 97.74499172005257 l 32.35417657910719 -3.494440230038264 a53.54233941549621,53.54233941549621 0 0,0 0.09108029817234405,0.9171661729086851 l -32.40953400296176 2.936998526425144" fill="#9fff22" stroke="none" /><path d="M 120.98425023603335 99.18683210126433 l 31.371029487032086 -1.2156695541754416 a52.3945750654661,52.3945750654661 0 0,0 0.027166102008544545,0.9015106706730802 l -31.387307283496277 0.6754887360773623" fill="#aeff20" stroke="none" /><line stroke="#e1ed5e" stroke-width="0.3" x1="184.98032266829074" x2="189.97916517819016" y1="98.17113171792111" y2="98.06355123074" /><path d="M 185.9800911702706 98.14961562048488 a86.0,86.0 0 0,1 -9.607161424134198,41.387399972396054" fill="none" id="id52" stroke="none" /><text fill="#e1ed5e" style="font-size:6.75px; font-family:Arial;" text-anchor="middle"><textPath startOffset="21.466115282336823" xlink:href="#id52">April</textPath></text><path d="M 120.99980553446 99.90962569577887 l 31.352379422767072 -0.1349274149877175 a52.352669756760164,52.352669756760164 0 0,0 -0.0038783423924926386,0.9011901860857813 l -31.350056783085076 -0.4047722493017485" fill="#aeff20" stroke="none" /><path d="M 120.99824983174949 100.27111621757518 l 27.24059128724249 0.35171341104542947 a48.242861743989025,48.242861743989025 0 0,0 -0.017868093073361836,0.830260073795576 l -27.23050113148412 -0.8205633006311203" fill="#e4ff1a" stroke="none" /><path d="M 120.9904718944345 100.63252640178507 l 32.42792903527192 0.9771824746570212 a53.44264889162734,53.44264889162734 0 0,0 -0.03562300472689488,0.9192714647379762 l -32.406303897693824 -1.5352311864090036" fill="#a0ff22" stroke="none" /><path d="M 120.9764740272857 100.99374915477107 l 27.185905129816025 1.2879176075683296 a48.216395233227374,48.216395233227374 0 0,0 -0.0464109187958411,0.8286981321915063 l -27.159707860132652 -1.7556874560952593" fill="#e5ff1a" stroke="none" /><path d="M 120.92983693683757 101.71520430193887 l 27.13513454682378 2.223729675909964 a48.226099620506645,48.226099620506645 0 0,0 -0.07492361762385777,0.8267758771949101 l -27.092836332922847 -2.690486941653445" fill="#e5ff1a" stroke="none" /><path d="M 120.8583938346157 102.4346265915055 l 31.163598815348035 3.6374673411786103 a52.375166290907565,52.375166290907565 0 0,0 -0.11222873504934266,0.89457344118066 l -31.096368571051844 -4.173358536646665" fill="#aeff20" stroke="none" /><path d="M 120.81339534386255 102.79330883721812 l 35.3720755306864 4.747189468043645 a56.689207545056085,56.689207545056085 0 0,0 -0.13812176672188753,0.9660233147543174 l -35.28511971294792 -5.355358254778372" fill="#78ff26" stroke="none" /><path d="M 120.70491114924044 103.5080841355445 l 27.357151405679893 4.635189600583011 a48.7470487739984,48.7470487739984 0 0,0 -0.14729398429406132,0.8261028864647281 l -27.27331097904664 -5.105411237780958" fill="#deff1b" stroke="none" /><path d="M 120.41448212921028 104.9243191809786 l 30.610145334294725 7.383685995469392 a52.488090070157256,52.488090070157256 0 0,0 -0.21942192582959869,0.8764815214669587 l -30.478512094170064 -7.909495356333747" fill="#adff20" stroke="none" /><path d="M 120.32669344350535 105.2749913415812 l 31.923363670527113 8.28444957977084 a53.98080127711417,53.98080127711417 0 0,0 -0.24114489563896804,0.8973898647756905 l -31.776030698546368 -8.832730377722077" fill="#9aff23" stroke="none" /><path d="M 119.67450827220406 107.3425965602758 l 30.470953577029096 11.371868400853959 a53.52381285796306,53.52381285796306 0 0,0 -0.32956834192863044,0.8603989444800706 l -30.27069095550696 -11.894690912167173" fill="#9fff22" stroke="none" /><path d="M 119.54520255179757 107.68017299344265 l 30.82288104034335 12.111670775413318 a54.11710380753665,54.11710380753665 0 0,0 -0.3481466308742626,0.8640713865325296 l -30.609831795211694 -12.640441529788662" fill="#98ff23" stroke="none" /><path d="M 118.97047184881838 109.00673069616215 l 28.270017055798537 13.421934489908221 a52.29444343308454,52.29444343308454 0 0,0 -0.3930717901456397,0.8098443117184889 l -28.03479200903818 -13.906567757591985" fill="#afff20" stroke="none" /><path d="M 118.64920377521936 109.65438752849418 l 43.422839393355865 22.479293172187443 a69.89643752363081,69.89643752363081 0 0,0 -0.5623251335063282,1.063707234834405 l -43.029461751624645 -23.223415422107983" fill="#39ff8a" stroke="none" /><line stroke="#e1ed5e" stroke-width="0.3" x1="174.80103733775053" x2="179.2010983576182" y1="140.37084112569926" y2="142.7455964860345" /><path d="M 175.68104954172406 140.8457921977663 a86.0,86.0 0 0,1 -30.038265399797805,32.042727171017184" fill="none" id="id53" stroke="none" /><text fill="#e1ed5e" style="font-size:6.75px; font-family:Arial;" text-anchor="middle"><textPath startOffset="22.206326154141568" xlink:href="#id53">May</textPath></text><path d="M 118.48025628344425 109.97397251340804 l 27.512319476462544 14.848664111015013 a52.26356583719595,52.26356583719595 0 0,0 -0.4340951813424352,0.7880088456054066 l -27.2526478856686 -15.320043475018226" fill="#afff20" stroke="none" /><path d="M 118.12598468904814 110.60418214915192 l 44.04164245538406 25.765529804672948 a72.02478609737994,72.02478609737994 0 0,0 -0.6352556099513911,1.064724942112946 l -43.591605969734445 -26.519816840672" fill="#3cffa5" stroke="none" /><path d="M 117.94076556474637 110.91462005526583 l 27.124067908757432 16.501463915177208 a52.74922630967218,52.74922630967218 0 0,0 -0.4785996591499791,0.7716550399987966 l -26.83600360993949 -16.96591528654128" fill="#a9ff21" stroke="none" /><path d="M 117.35343817320211 111.8261652097733 l 28.331685216818133 19.30771220672506 a55.28515914915069,55.28515914915069 0 0,0 -0.5426872644953737,0.7817814800343588 l -27.99513704516062 -19.79253494894644" fill="#8aff24" stroke="none" /><path d="M 117.14729908036423 112.12312394758627 l 36.88946852400522 26.08081874475581 a66.17789276161935,66.17789276161935 0 0,0 -0.6656242023454443,0.9244937999199024 l -36.43506452928417 -26.711946150126842" fill="#34ff5a" stroke="none" /><path d="M 116.498646956653 112.99209946851258 l 35.0445206806514 27.59631742564021 a65.60577502065509,65.60577502065509 0 0,0 -0.7062995522823433,0.8812172899930519 l -34.56430321631421 -28.19546254921151" fill="#33ff52" stroke="none" /><path d="M 116.27256486870786 113.27417163493432 l 25.212779594400672 20.567056664400315 a53.53748722185658,53.53748722185658 0 0,0 -0.5886676169130949,0.7090880663416556 l -24.855015977594032 -20.99800598785574" fill="#9fff22" stroke="none" /><path d="M 115.80600337817218 113.82643327865902 l 37.27816159914894 32.609382762342925 a70.52810491380879,70.52810491380879 0 0,0 -0.8071812317670233,0.9068766707597378 l -36.71132151773358 -33.246233602843525" fill="#3aff92" stroke="none" /><path d="M 115.56566222782051 114.09645910891815 l 26.8678836643756 24.331892718391064 a57.24809203063953,57.24809203063953 0 0,0 -0.6677678942046017,0.7247301633982488 l -26.44506936217528 -24.790774136590645" fill="#72ff27" stroke="none" /><path d="M 115.07121518719521 114.62390073753431 l 32.84195724643273 31.86720624931632 a66.76147932391369,66.76147932391369 0 0,0 -0.807366836165186,0.8178583424757193 l -32.288549785212005 -32.427805085772704" fill="#35ff62" stroke="none" /><path d="M 114.81725581225074 114.88116024355365 l 28.541855463583513 28.664951876633374 a61.45141504810183,61.45141504810183 0 0,0 -0.7559988573453306,0.7399039985797551 l -28.04420665386239 -29.1520059781357" fill="#41ff2d" stroke="none" /><path d="M 114.55890576462653 115.13401014063108 l 31.47939566789489 32.72289147007061 a66.40638697119492,66.40638697119492 0 0,0 -0.830598963090955,0.7853831629757969 l -30.91146087041313 -33.25990926979233" fill="#34ff5d" stroke="none" /><path d="M 114.0293411484842 115.62618273729858 l 35.946711822570755 40.03822287871241 a74.80729859545448,74.80729859545448 0 0,0 -0.965575730604677,0.8520083166934798 l -35.25219373905949 -40.65105433717818" fill="#40ffc6" stroke="none" /><path d="M 113.75828350139079 115.86535959552629 l 26.496510820987268 30.55444177750964 a61.44303398636064,61.44303398636064 0 0,0 -0.8050047558808392,0.6860425171668625 l -25.96664058852938 -31.00600868489945" fill="#41ff2d" stroke="none" /><path d="M 113.20401910651253 116.32954008644616 l 30.965866432424495 38.2957910876099 a70.2488832252734,70.2488832252734 0 0,0 -0.9468295258041619,0.752218638875152 l -30.302079413902984 -38.82314364049018" fill="#3aff8f" stroke="none" /><path d="M 112.92097659922987 116.55440617244103 l 33.07993287120896 42.38214044437756 a74.76362885269776,74.76362885269776 0 0,0 -1.0213112986387585,0.783097952848263 l -32.34549284407671 -42.945277739053196" fill="#40ffc6" stroke="none" /><path d="M 112.63410532772338 116.77436683061366 l 27.341459360589187 36.30139666418971 a66.4460867373374,66.4460867373374 0 0,0 -0.9195348315591405,0.6802498854143771 l -26.712539558611482 -36.766656498343856" fill="#34ff5e" stroke="none" /><path d="M 112.04921762599082 117.19931262002967 l 30.88756220732717 44.08957120406802 a74.83244178067804,74.83244178067804 0 0,0 -1.061348932915898,0.7300054739558215 l -30.12405638978839 -44.61471746738894" fill="#40ffc7" stroke="none" /><path d="M 111.7513745106137 117.40417183066458 l 30.267223350399973 44.82675244088991 a75.08828471804063,75.08828471804063 0 0,0 -1.0774285720839496,0.7140609071929155 l -29.49112007957606 -45.34111136917415" fill="#40ffca" stroke="none" /><path d="M 111.1453310114006 117.79835938074945 l 28.535377987605713 45.569118760978775 a74.76627550377393,74.76627550377393 0 0,0 -1.0966460951787558,0.67364960083814 l -27.74675269249465 -46.05355682864529" fill="#40ffc6" stroke="none" /><line stroke="#e1ed5e" stroke-width="0.3" x1="143.8653032363475" x2="146.44561519142675" y1="172.8068346515853" y2="177.08958963109032" /><path d="M 144.38136562736335 173.6633856474863 a86.0,86.0 0 0,1 -40.68145358897372,12.25698825130547" fill="none" id="id54" stroke="none" /><text fill="#e1ed5e" style="font-size:6.75px; font-family:Arial;" text-anchor="middle"><textPath startOffset="21.466115282336833" xlink:href="#id54">June</textPath></text><path d="M 110.8373102113329 117.98757091392108 l 23.44117892926873 38.9072435940056 a66.42314909467729,66.42314909467729 0 0,0 -0.9844294336064574,0.5816182613463999 l -22.76798162463389 -39.304980427645745" fill="#34ff5d" stroke="none" /><path d="M 110.5260780823613 118.17145234162733 l 22.79296615411758 39.348111894393234 a66.47299435661171,66.47299435661171 0 0,0 -0.9950413210686221,0.5650104310860342 l -22.11227606612776 -39.7346254912739" fill="#34ff5e" stroke="none" /><path d="M 109.89434966115114 118.52300852407294 l 23.17851618013781 43.39202347636708 a70.19462687821203,70.19462687821203 0 0,0 -1.070665599183309,0.5601216387114663 l -22.428159678428003 -43.784574534023264" fill="#39ff8e" stroke="none" /><path d="M 109.57404056367764 118.69057910512821 l 18.439858734759905 35.998556312469795 a61.44656285446219,61.44656285446219 0 0,0 -0.9455341272735761,0.47411044038146594 l -17.81747069980357 -36.31063459376057" fill="#41ff2d" stroke="none" /><path d="M 108.92500713936063 119.00905698771935 l 20.927792573576323 44.57336509052709 a70.24182548907032,70.24182548907032 0 0,0 -1.0988898908990208,0.5044464517661612 l -20.157434686909884 -44.92699861262733" fill="#3aff8f" stroke="none" /><path d="M 108.59647513512805 119.15986991738527 l 22.003405867254937 49.04130908647791 a74.75127781434233,74.75127781434233 0 0,0 -1.1785048870115846,0.5166219093997573 l -21.1559803055856 -49.41279554917212" fill="#40ffc6" stroke="none" /><path d="M 108.2653958097858 119.30500536409082 l 19.807157434188493 46.26242823866768 a71.32430577922169,71.32430577922169 0 0,0 -1.1327948385190767,0.4735083343733557 l -19.007891136171953 -46.59652161606101" fill="#3bff9c" stroke="none" /><path d="M 107.59598834532513 119.57807347666477 l 14.617631854832483 37.67581748395857 a61.412156390472056,61.412156390472056 0 0,0 -0.9888228039497998,0.37388817424986204 l -13.966938830122409 -37.92185390831506" fill="#41ff2d" stroke="none" /><path d="M 107.2578585660854 119.70592522655815 l 17.23506378456583 46.795191049968174 a70.86819957709596,70.86819957709596 0 0,0 -1.1483362899749456,0.41175253773677795 l -16.42700793396115 -47.08493112874491" fill="#3aff96" stroke="none" /><path d="M 106.57524785965236 119.94407469862006 l 16.822169148824376 51.02508761011381 a74.72657573763145,74.72657573763145 0 0,0 -1.225084046710082,0.3922332248774739 l -15.941363757023353 -51.30709368165099" fill="#40ffc5" stroke="none" /><path d="M 106.2309692047433 120.05430185196036 l 11.979679838753583 38.5564601078951 a61.37466216689305,61.37466216689305 0 0,0 -1.0115860243446255,0.3047825709683443 l -11.314218839968712 -38.75695804796917" fill="#42ff2d" stroke="none" /><path d="M 105.88484417918355 120.15858648285463 l 14.068420849947334 48.19150171962657 a71.20300093823082,71.20300093823082 0 0,0 -1.1794907030394768,0.33333585429314444 l -13.23679897880325 -48.42652636725824" fill="#3bff9b" stroke="none" /><path d="M 105.18746579009965 120.34920634021253 l 11.27860292535397 44.243302499531964 a66.65825993194325,66.65825993194325 0 0,0 -1.114293485421043,0.2738662280906847 l -10.515356155189718 -44.43088998593667" fill="#34ff60" stroke="none" /><path d="M 104.83641907484287 120.43548508189849 l 11.446629775341052 48.36583190831062 a70.70190166781028,70.70190166781028 0 0,0 -1.1867140827385867,0.27009226162195726 l -10.612395543209601 -48.55570090351026" fill="#3aff94" stroke="none" /><path d="M 104.13013068566511 120.58985236759428 l 9.79739918340768 48.842765066226285 a70.81570766408535,70.81570766408535 0 0,0 -1.197231886560622,0.2294523404952488 l -8.955199682275355 -49.00417460507" fill="#3aff96" stroke="none" /><path d="M 103.06178313531738 120.77559828337769 l 6.0040936584803 40.74052027575495 a62.18056741958522,62.18056741958522 0 0,0 -1.0602420655587215,0.14693988933873509 l -5.301923001734747 -40.837834730586295" fill="#39ff2e" stroke="none" /><path d="M 102.70371172650421 120.8252237178851 l 5.741094896423038 44.220537430669026 a65.59165954824887,65.59165954824887 0 0,0 -1.1209070423055527,0.13572623265218772 l -4.979060431066105 -44.312809192046565" fill="#33ff52" stroke="none" /><path d="M 102.34483914955558 120.86867818915974 l 5.11376940602867 45.511696650155635 a66.79809133046729,66.79809133046729 0 0,0 -1.1437341072094251,0.11855271665887833 l -4.329602702213642 -45.59297873527027" fill="#35ff62" stroke="none" /><path d="M 101.26447882468166 120.96189622390904 l 3.0129535597193806 49.94723408056677 a71.03802635448321,71.03802635448321 0 0,0 -1.2212178623964822,0.06312301423840244 l -2.152747628909419 -49.99169690156737" fill="#3bff99" stroke="none" /><path d="M 100.90346689309514 120.98055641714683 l 1.942344383392359 45.105654926306414 a66.14745627424347,66.14745627424347 0 0,0 -1.1379871304940474,0.039194577715312325 l -1.1656369012236594 -45.13240630244782" fill="#34ff5a" stroke="none" /><line stroke="#e1ed5e" stroke-width="0.3" x1="102.19456741930631" x2="102.32365962044197" y1="184.97166512339345" y2="189.96999836594603" /><path d="M 102.22038585953345 185.97133177190398 a86.0,86.0 0 0,1 -42.740103519485714,-10.115201625700543" fill="none" id="id55" stroke="none" /><text fill="#e1ed5e" style="font-size:6.75px; font-family:Arial;" text-anchor="middle"><textPath startOffset="22.20632615414155" xlink:href="#id55">July</textPath></text><path d="M 100.18074693466247 120.99922214144158 l 0.38901303369900797 45.19562738818657 a66.19730153617789,66.19730153617789 0 0,0 -1.1395199367228959,0.0 l 0.3890130336989769 -45.19562738818657" fill="#34ff5a" stroke="none" /><path d="M 99.45781275523022 120.99299961872073 l -1.2024566774977463 46.55803473015484 a67.57356009578356,67.57356009578356 0 0,0 -1.1625215251189076,-0.04003959187325239 l 2.003698554291297 -46.53043833985549" fill="#36ff6c" stroke="none" /><path d="M 98.73552117531835 120.96189622390904 l -3.2348938432689347 53.62644886919141 a74.72392908655527,74.72392908655527 0 0,0 -1.2832491185488715,-0.08850037241096863 l 4.157505722596736 -53.56282015226415" fill="#40ffc5" stroke="none" /><path d="M 97.65516085044442 120.86867818915974 l -4.560058877133169 40.5837650947398 a61.83914943075996,61.83914943075996 0 0,0 -1.0567797577393827,-0.12796131155180165 l 5.257966057923942 -40.49925825446265" fill="#3dff2e" stroke="none" /><path d="M 97.2962882734958 120.8252237178851 l -4.644045434416843 35.77056095873081 a57.0707664085365,57.0707664085365 0 0,0 -0.9731147490453306,-0.13486483717588915 l 5.259088774649005 -35.68532155606232" fill="#74ff27" stroke="none" /><path d="M 96.58105272829116 120.7198165907248 l -6.625990766344364 40.15543455335941 a61.69843581521054,61.69843581521054 0 0,0 -1.046379113054902,-0.18192642136706189 l 7.316218850871316 -40.035429553471346" fill="#3eff2d" stroke="none" /><path d="M 95.16358092515715 120.4354850818985 l -9.32868579880399 39.41681159657813 a61.50567139516321,61.50567139516321 0 0,0 -1.028160186330263,-0.2526967587869259 l 10.005799269877464 -39.250393579477176" fill="#40ff2d" stroke="none" /><path d="M 94.81253420990036 120.34920634021253 l -9.335891139249144 36.622501785923795 a58.79373625911974,58.79373625911974 0 0,0 -0.9785225107325252,-0.25843668873716336 l 9.964904092793159 -36.45637374788305" fill="#5fff29" stroke="none" /><path d="M 94.11515582081647 120.15858648285463 l -10.27946164659626 35.212388007331676 a57.682142807130546,57.682142807130546 0 0,0 -0.9507253882599738,-0.2864457605634493 l 10.88406200929648 -35.0302268776625" fill="#6dff28" stroke="none" /><path d="M 93.42475214034765 119.94407469862007 l -8.621915871924303 26.152038351291598 a48.536640013443304,48.536640013443304 0 0,0 -0.7912171875300846,-0.2684238284363024 l 9.070802792391614 -25.999751535957174" fill="#e0ff1b" stroke="none" /><path d="M 92.7421414339146 119.70592522655815 l -13.939497374144425 37.84734718230408 a61.33275685818711,61.33275685818711 0 0,0 -0.9875443588867643,-0.37340477571921976 l 14.588911953791474 -37.60179415647822" fill="#42ff2d" stroke="none" /><path d="M 92.40401165467489 119.57807347666478 l -9.91123784924393 25.545450313469832 a48.400778591533516,48.400778591533516 0 0,0 -0.7741334015266927,-0.3080436567600834 l 10.34949232681248 -25.371059812303685" fill="#e2ff1b" stroke="none" /><path d="M 91.07499286063937 119.00905698771935 l -15.472191207627096 32.95367273081456 a57.40512666115865,57.40512666115865 0 0,0 -0.8908382652720555,-0.42765650348282025 l 16.037142140899395 -32.68246195083218" fill="#70ff27" stroke="none" /><path d="M 90.42595943632237 118.69057910512821 l -14.459199755384839 28.227456843055265 a52.715260954194726,52.715260954194726 0 0,0 -0.8040560790151609,-0.4206441385035854 l 14.942946736926494 -27.974383285606965" fill="#aaff21" stroke="none" /><path d="M 90.10565033884886 118.52300852407294 l -12.767148611933333 23.90111636093459 a48.09729593479996,48.09729593479996 0 0,0 -0.7269040257385084,-0.3963660326949593 l 13.176675449540483 -23.677809676479864" fill="#e6ff1a" stroke="none" /><line stroke="#e1ed5e" stroke-width="0.3" x1="58.666819895761336" x2="56.23545636021788" y1="174.27360380694188" y2="178.64263932499728" /><path d="M 58.180547188652646 175.14741091055294 a86.0,86.0 0 0,1 -31.652253787137756,-30.449443065178592" fill="none" id="id56" stroke="none" /><text fill="#e1ed5e" style="font-size:6.75px; font-family:Arial;" text-anchor="middle"><textPath startOffset="22.20632615414155" xlink:href="#id56">August</textPath></text><path d="M 88.24862548938628 117.40417183066458 l -12.937109607954836 19.160284476137313 a44.11893825881167,44.11893825881167 0 0,0 -0.6257391437207059,-0.43038908884523797 l 13.265005636298431 -18.934754597926975" fill="#ffe115" stroke="none" /><path d="M 87.95078237400918 117.19931262002967 l -15.476050822207934 22.09084809294691 a47.97246222570752,47.97246222570752 0 0,0 -0.6722373642298707,-0.4796235103689871 l 15.854015514286692 -21.821180320733703" fill="#e8ff1a" stroke="none" /><path d="M 85.44109423537348 115.13401014063109 l -16.97930779285251 17.65002263715925 a45.49122684180308,45.49122684180308 0 0,0 -0.5596505057649226,-0.5477358107083784 l 17.280608250993225 -17.3551367235283" fill="#fff417" stroke="none" /><path d="M 84.43433777217949 114.09645910891817 l -17.17288535082445 15.55198054454585 a44.168342412233415,44.168342412233415 0 0,0 -0.5054985821182032,-0.5679330157634824 l 17.438042782590994 -15.254073359041504" fill="#ffe115" stroke="none" /><path d="M 84.19399662182784 113.82643327865904 l -17.3374444359024 15.166074116275675 a44.03468653288709,44.03468653288709 0 0,0 -0.49414779619893323,-0.5748055242813193 l 17.59593474167211 -14.865391492832826" fill="#ffdf14" stroke="none" /><path d="M 83.50135304334701 112.99209946851258 l -21.629305440169436 17.032311101135836 a48.53046449426559,48.53046449426559 0 0,0 -0.5111718049224823,-0.660758464515047 l 21.919284062309988 -16.657474642507534" fill="#e0ff1b" stroke="none" /><path d="M 83.28015986056508 112.70617746262583 l -21.617249448876887 16.427944613145286 a48.15111117334864,48.15111117334864 0 0,0 -0.4958159660642403,-0.6642265116302168 l 21.89682668163621 -16.05340522200576" fill="#e6ff1a" stroke="none" /><path d="M 82.05923443525364 110.91462005526583 l -7.305590481260024 4.4445006593812595 a29.551329627088265,29.551329627088265 0 0,0 -0.26064149502296113,-0.4368501377292671 l 7.381012851981217 -4.318088427765881" fill="#ff0000" stroke="none" /><line stroke="#e1ed5e" stroke-width="0.3" x1="26.63291911575756" x2="22.317208475507996" y1="142.92168965132927" y2="145.44649492493687" /><path d="M 25.769776987707644 143.4266507060508 a86.0,86.0 0 0,1 -11.730757126820373,-40.83630448921669" fill="none" id="id57" stroke="none" /><text fill="#e1ed5e" style="font-size:6.75px; font-family:Arial;" text-anchor="middle"><textPath startOffset="21.46611528233685" xlink:href="#id57">September</textPath></text><path d="M 81.87401531095188 110.60418214915194 l -23.1428600636968 13.539187402936202 a47.81233983559955,47.81233983559955 0 0,0 -0.40947399422460745,-0.7139524235963008 l 23.372486054073786 -13.138815133481595" fill="#eaff1a" stroke="none" /><path d="M 81.51974371655577 109.97397251340807 l -24.609502897344544 13.281986012642268 a48.964956379269296,48.964956379269296 0 0,0 -0.3939288840550196,-0.7451649926560604 l 24.834484289624452 -12.85640600490008" fill="#dbff1b" stroke="none" /><path d="M 81.35079622478065 109.6543875284942 l -29.695457451602937 15.372852242337267 a54.43867191329067,54.43867191329067 0 0,0 -0.42364000853042677,-0.8358819275685673 l 29.95567612991963 -14.859416103066014" fill="#94ff23" stroke="none" /><path d="M 81.02952815118164 109.00673069616217 l -25.16268612337035 11.946647363933124 a48.85467925109577,48.85467925109577 0 0,0 -0.3541391556269249,-0.7627842355220839 l 25.364599895837102 -11.511743061132213" fill="#dcff1b" stroke="none" /><path d="M 80.87730276802145 108.67885076344099 l -25.695982145414522 11.66214114853833 a49.21859377406842,49.21859377406842 0 0,0 -0.3434963673609166,-0.7744936280062453 l 25.89291959750672 -11.218099184039389" fill="#d7ff1c" stroke="none" /><path d="M 80.73074385275274 108.34839909993369 l -22.42660678200858 9.716320258695283 a45.44094047135596,45.44094047135596 0 0,0 -0.30477675614710914,-0.7204022219334296 l 22.590534519347994 -9.328843511095695" fill="#fff316" stroke="none" /><path d="M 80.45479744820244 107.68017299344265 l -26.39961265816693 10.373573342986576 a49.36460069177018,49.36460069177018 0 0,0 -0.3039583454775287,-0.793539325058724 l 26.574265283237967 -9.917610451094696" fill="#d5ff1c" stroke="none" /><path d="M 80.32549172779594 107.34259656027581 l -25.725002960219538 9.600662727395964 a48.45812269818376,48.45812269818376 0 0,0 -0.2849239290694166,-0.783988282840753 l 25.88645115029418 -9.156426647549093" fill="#e1ff1b" stroke="none" /><path d="M 80.0844068197444 106.66101706037122 l -26.714995506665012 8.93516147006134 a49.16963072915938,49.16963072915938 0 0,0 -0.2615537508150786,-0.8049796729700093 l 26.86484150849634 -8.473982897113528" fill="#d8ff1c" stroke="none" /><path d="M 79.4281124754447 104.21870165774334 l -27.5024510240967 5.639960630198416 a49.07479239893014,49.07479239893014 0 0,0 -0.1625779331618488,-0.8289813785957304 l 27.595458890234216 -5.165715524534731" fill="#d9ff1c" stroke="none" /><path d="M 79.18660465613746 102.79330883721812 l -37.28565113010567 5.004005213107526 a58.61993950511826,58.61993950511826 0 0,0 -0.12560994313197077,-1.0012348354872413 l 37.36626258248449 -4.361452623332876" fill="#61ff29" stroke="none" /><path d="M 79.1416061653843 102.43462659150553 l -31.982471357608254 3.733047512990912 a53.19959810113288,53.19959810113288 0 0,0 -0.09833742663595185,-0.9104824396094533 l 32.04199108574526 -3.1819687514966764" fill="#a4ff21" stroke="none" /><path d="M 79.04373962182676 101.35467743843564 l -27.375400839897075 1.7696305169297275 a48.43253840444749,48.43253840444749 0 0,0 -0.04661896842541191,-0.8324129980873922 l 27.401806159210018 -1.2981458025068977" fill="#e2ff1b" stroke="none" /><line stroke="#e1ed5e" stroke-width="0.3" x1="15.007084014347285" x2="10.007500721073583" y1="101.09737516637583" y2="101.16192664675087" /><path d="M 14.007167355692545 101.11028546245083 a86.0,86.0 0 0,1 10.666146001902534,-42.60595125391555" fill="none" id="id58" stroke="none" /><text fill="#e1ed5e" style="font-size:6.75px; font-family:Arial;" text-anchor="middle"><textPath startOffset="22.20632615414155" xlink:href="#id58">October</textPath></text><line stroke="#e1ed5e" stroke-width="0.3" x1="26.266209847984243" x2="21.928928074336255" y1="57.711370442889674" y2="55.22380399835377" /><path d="M 25.398753493254645 57.213857153982495 a86.0,86.0 0 0,1 29.58750427330803,-30.492523968695096" fill="none" id="id59" stroke="none" /><text fill="#e1ed5e" style="font-size:6.75px; font-family:Arial;" text-anchor="middle"><textPath startOffset="21.46611528233685" xlink:href="#id59">November</textPath></text><line stroke="#e1ed5e" stroke-width="0.3" x1="56.762969772571076" x2="54.21961505331055" y1="26.818313649435495" y2="22.513508569990535" /><path d="M 56.25429882871897 25.957352633546506 a86.0,86.0 0 0,1 42.265352541879196,-11.944610805530505" fill="none" id="id60" stroke="none" /><text fill="#e1ed5e" style="font-size:6.75px; font-family:Arial;" text-anchor="middle"><textPath startOffset="22.20632615414155" xlink:href="#id60">December</textPath></text></svg>